<svg width="880" height="951" xmlns="http://www.w3.org/2000/svg"><g stroke="#FFF" fill="none" fill-rule="evenodd"><path d="M238.09 284.19l-4.493 44.75 10.437-21.933"/><path d="M254.644 240.306l15.885 9.403-32.439 34.482 16.554-43.885"/><path d="M238.09 284.19l9.482-.943-3.538 23.76"/><path d="M270.53 249.71l-22.958 33.537-9.482.944m288.159-160.436l23.687 23.974-30.903 36.28M575.181 72.31l-48.932 51.445-17.662-21.676m66.594-29.769l-48.932 51.445 23.687 23.974m-72.433 4.845l-68.839 30.862 32.811 25.035M397.65 95.688l88.261 2.467-8.408 54.419-79.852-56.886m79.852 56.886l-36.028 55.897 34.598 32.717m42.96-57.178l-42.96 57.178 1.43-88.614"/><path d="M477.503 152.574c1.441 1.269 41.53 31.435 41.53 31.435l7.217-60.254m-17.663-21.676l-31.084 50.495 48.746-28.819m-40.338-25.6l-8.408 54.419 31.084-50.495M322.25 100.06l9.15 80.433 66.25-84.805m0 0l-28.75 85.27-37.5-.465m-37.638 19.233l4.064 17.506 26.373-21.73m-59.922 15.871l33.549 5.86-4.064-17.507M265.35 173.59l28.412 26.136 37.638-19.233"/><path d="M265.35 173.59l-8.964 24.711 37.376 1.425m0 0l30.437-4.223 7.2-15.01"/><path d="M256.386 198.301l7.891 13.072 29.485-11.647M270.53 249.71l-22.958 33.537 54.284 4.363m-4.03-70.378l-27.297 32.477 47.521 21.776-20.224-54.253m20.224 54.253l36.34-16.996-20.31 54.246"/><path d="M318.05 271.485l-.7-43.907-19.524-10.346m19.524 10.346l.7 43.907 36.34-16.996m-83.86-4.779l31.326 37.9 16.194-16.125m-16.194 16.125l32.225 21.125-16.03-37.25m-48.53 86.325c.346 0 31.56 4.624 31.56 4.624l-18.51 10.518m.001 0s17.597 11.835 17.337 11.835c-.26 0-29.124-5.564-29.124-5.564"/><path d="M269.521 357.81l1.264 21.413 11.787-6.271zm332.109-91.794l-1.944 44.04L580.79 291.3"/><path d="M621.963 298.737l-22.277 11.319 27.89.932"/><path d="M601.63 266.016l-1.944 44.04 22.277-11.319m-41.172-7.437l-13.129 19.62 32.024-.864"/><path d="M567.662 310.92l18.088 20.734 13.936-21.598"/><path d="M567.662 310.92l-1.23 24.704 19.318-3.97m-116.33 47.52l20.266 13.336 36.609-26.058 12.794 6.407-16.25 21.809m16.25-21.808l-2.82 37.928-13.43-16.12M214.08 665.62l2.499 130.574 29.86-91.322"/><path d="M246.439 704.872l-29.86 91.322 49.771 1.63-19.911-92.952m-195.42-89.838l5.102 172.88 160.458 8.28z"/><path d="M51.019 615.034l74.014-47.594 91.546 228.754"/><path d="M125.033 567.44l89.047 98.18 2.499 130.574M554.508 589.04l-69.285 50.818.717-27.996"/><path d="M485.223 639.858l69.285-50.818-7.94 176.734m-152.15-104.112l-69.732 7.538 40.944-42.397"/><path d="M365.63 626.803l92.637-14.843-63.849 49.702zm-139.712-80.439l33.985 28.829s-17.456 24.065-17.456 24.585m17.455-24.583c.692-.174 55.26 46.003 55.26 46.003l-72.715-21.419"/><path d="M242.447 599.78l50.492 45.015 22.223-23.597m-72.715-21.418l7.543 58.022 42.949-13.007m396.664 53.012l-143.035 67.967 37.106 65.902 222.275-46.918M554.508 589.04l-7.94 176.734 59.191-193.409M324.686 669.2l-18.522 57.252 88.254-64.79m-101.479-16.867l31.747 24.405-24.386 17.164-7.361-41.569m-42.949 13.007l50.31 28.562-53.861 18.508"/><path d="M315.162 621.198l9.524 48.002 40.944-42.397M242.447 599.78l-28.367 65.84 35.91-7.818m-64.645-103.89l8.207 23.649-68.519-10.12 60.312-13.53m369.163 35.129l51.251-16.675-12.233-20.332m60.267-61.804l14.532 16.832-19.306 15.214m-35.386-24.001l-27.04 27.39-26.818-44.132m22.389-33.968l31.47 50.71 6.974-36.498"/><path d="M506.442 530.133s14.387 21.332 14.186 21.101c-.202-.23 39.148-69.702 39.148-69.702m-74.495 59.88l35.346 9.822-34.687 60.628-.659-70.45m50.989-130.624l13.556 31.177-13.528 14.008"/><path d="M549.826 441.965l-1.626 25.028 33.964-19.429m12.908-33.02l22.82 27.063-35.728 5.957m-64.676 5.673l-61.09 1.672m23.012-42.559l5.414 18.769-28.426 23.79"/><path d="M484.824 431.119l-28.426 23.79 61.09-1.672M479.41 412.35l-23.012 42.559-25.371-.644m48.383-41.915l27.326-2.675-21.912 21.444 32.664 22.118-10.752-43.562-27.326 2.675 10.276-19.84m-20.266-13.336l20.266 13.336 36.609-26.058"/><path d="M489.686 392.51l-10.276 19.84 27.326-2.675M618.278 260.52l12.179-1.526 2.682 14.632M580.791 291.3l-13.129 19.62-5.09-17.897-17.55 39.941 6.895-52.798c.345.692-6.896 52.798-6.896 52.798l22.641-22.047"/><path d="M551.918 280.168l10.657 12.855-17.554 39.944M297.576 528.278l35.878 52.232 124.813 31.45M388.39 356.082l-10.782 31.957 91.813-8.865M303.452 418.48c0 .952 10.63 48.965 10.63 48.965l58.197-5.249m5.329-74.157l-5.33 74.156-26.83-73.467m1.675 91.822l-36.06 6.266 69.288 9.187m-3.146-164.245l-11.222 35.883-52.06-45.056m-40.863-18.837l-5.602 16.247 21.908-10.213m65.024-55.292l48.796-4.414-25.981 81.682m47.871-96.524l50.997 5.954-27.243 96.995m-124.631-142.68l-26.373 21.73 19.523 10.345m232.587-79.849l85.336 17.467-64.626 93.88M448.539 25.942l-55.09 33.773 72.616 4.64M440.13.73l8.409 25.212L493.474 8.5 440.13.73m53.344 7.77l22.355 35.86 38.537-17.384L493.474 8.5m60.892 18.476l20.815 45.333 21.107-2.492-41.922-42.84M515.829 44.36l59.352 27.95-82.925 4.965 23.573-32.915"/><path d="M515.829 44.36l-49.764 19.996-17.526-38.414M440.13.73l-48.592 6.616 57.001 18.596"/><path d="M448.539 25.942l-55.09 33.773-1.91-52.37"/><path d="M391.538 7.346l-47.822 19.423 49.733 32.946m.001 0l72.615 4.64-68.414 31.333-4.202-35.973m72.616 4.641l19.846 33.799 6.345-20.88-26.19-12.92M397.65 95.688l11.014 87.748 68.839-30.862"/><path d="M343.716 26.77l13.183 34.157 36.55-1.212M356.9 60.927l40.75 34.761-75.4 4.371 34.65-39.132"/><path d="M343.716 26.77l-41.182 26.096 54.365 8.06"/><path d="M302.534 52.866l-.548 17.04 54.913-8.98"/><path d="M322.25 100.06l-56.044 21.938 35.78-52.093"/><path d="M322.25 100.06l-56.9 73.53 66.05 6.903-9.15-80.434"/><path d="M266.206 121.998l-.856 51.593-24.338 14.636 25.194-66.23m-25.194 66.23l15.374 10.074-11.069 10.238-4.305-20.312m0 0l-9.318 12.912 13.623 7.4"/><path d="M256.386 198.301l7.891 13.072-18.96-2.834m0 0l.966 12.159 17.994-9.325"/><path d="M264.277 211.373l14.563 14.157 18.986-8.298"/><path d="M264.277 211.373l-1.761 18.59 16.324-4.433m-32.557-4.832l16.233 9.265-7.872 10.343-8.36-19.608m32.556 4.832l-8.31 24.18-8.014-19.747m-14.944 53.284l25.487 20.501-29.025 3.26M331.4 180.493l19.085 23.382-26.286-8.372"/><path d="M324.199 195.503l-6.85 32.075 33.136-23.703m-33.135 23.703l33.016-.055.12-23.648m-33.136 23.703l37.04 26.911-4.024-26.966m24.104 4.617l-20.08 22.35 48.796-4.414"/><path d="M365.474 214.813l-15.108 12.71 24.104 4.617m-5.57-51.182l-18.415 22.917 41.603-5.524m-41.603 5.524l14.99 10.938 26.613-16.462"/><path d="M365.474 214.813l8.996 17.327 18.658-10.768"/><path d="M365.474 214.813l27.654 6.559 10.54-7.047m-38.194.488l38.193-.488-11.579-15.974M368.9 180.958l23.188 17.393 16.576-14.915"/><path d="M414.192 203.986l-10.525 10.339 21.41 20.91"/><path d="M393.128 221.372l31.948 13.862-50.606-3.094"/><path d="M374.47 232.14l28.716 17.936 21.89-14.842m16.402-26.763s-16.747 26.187-16.4 26.764c.348.577 50.999 5.954 50.999 5.954M354.39 254.49l22.815 77.268-43.124-23.023m69.105-58.659l-25.981 81.682 71.625 6.425"/><path d="M403.186 250.076l45.644 88.107-23.754-102.949m50.997 5.954l-27.243 96.995 61.515-81.811"/><path d="M476.073 241.188l34.272 15.184 8.688-72.363M492.256 77.275l16.331 24.804 66.594-29.77m21.107-2.492l23.599 41.204-69.951 36.708"/><path d="M619.887 111.021l15.385 54.175-85.336-17.467"/><path d="M519.033 184.01l30.903-36.281 20.71 111.347"/><path d="M519.033 184.01c1.15-.174 51.613 75.068 51.613 75.068l-60.301-2.705m124.927-91.177l-64.626 93.88 36.454-16.72m28.172-77.16l-28.172 77.16 32.104-6.33-3.932-70.83"/><path d="M607.1 242.357l23.357 16.637 8.747-22.969"/><path d="M639.204 236.025l.923 23.558-9.67-.589M607.1 242.357l11.178 18.163 12.179-1.526"/><path d="M630.457 258.994l2.682 14.632 6.988-14.043"/><path d="M633.139 273.626l-14.861-13.106 3.685 38.217"/><path d="M633.139 273.626l-11.176 25.111 5.612 12.251 5.564-37.362m-14.861-13.106l-16.649 5.496 20.334 32.721m-51.317-39.661l30.983 6.94-20.838 25.284m-10.145-32.224L580.79 291.3l-18.216 1.723"/><path d="M570.646 259.076l-8.07 33.947-10.658-12.855"/><path d="M570.646 259.076l-18.728 21.092-41.573-23.796"/><path d="M510.345 256.372l34.676 76.595 6.897-52.799m15.744 30.752l-22.64 22.047 21.41 2.657m61.143-24.636l-24.453 35.453-3.436-36.385m-13.936 21.598l17.372 14.787-35.126 24.655"/><path d="M603.122 346.441l-23.383 28.905-11.743-4.25"/><path d="M585.75 331.654c-.575.98-17.754 39.442-17.754 39.442l-1.56-35.472m-21.415-2.657l22.975 38.129-41.701-4.644"/><path d="M545.021 332.967l-18.726 33.485-77.465-28.269 96.191-5.216m22.975 38.129s-8.165 42.04-7.3 42.216c.864.176 19.043-37.967 19.043-37.967"/><path d="M567.996 371.096l-31.726 39.692 24.425 2.52m-34.4-46.856l-36.61 26.058 33.154 2.158zm-77.465-28.269l20.59 40.991 56.875-12.722"/><path d="M448.83 338.183l-60.44 17.899 81.03 23.092m-92.215-47.416l11.185 24.324-22.407 11.559m11.222-35.883l-63.282-9.173 20.158-13.85m-20.158 13.85l-24.557-12.803m0 0l-21.908 10.213 17.696 20.417"/><path d="M289.366 309.782l-4.212 30.63 28.769-17.827m0 0l-12.842 39.85-15.927-22.023m-12.094-36.664l-5.602 16.247-23.424-12.988m23.424 12.988l-11.093 18.99 28.789 1.427m-41.12-33.405l12.33 31.978-22.767-10.044"/><path d="M233.597 328.94l14.428 67.453 8.34-57.408m.001 0s12.465 18.824 13.157 18.824c.692 0 15.631-17.396 15.631-17.396"/><path d="M270.785 379.223l-22.76 17.17 21.496-38.584m31.56 4.625c.606-.086 64.902 5.207 64.902 5.207l-83.411 5.311"/><path d="M282.572 372.952l17.337 11.835 66.074-17.146m-95.198 11.582c.404 0 29.124 5.564 29.124 5.564l-51.884 11.606"/><path d="M248.025 396.393l10.618 26.435 41.266-38.04"/><path d="M299.91 384.787l3.542 33.693-44.81 4.348m107.341-55.188l-20.535 21.088 32.16-.69"/><path d="M365.983 367.64l11.625 20.399 10.782-31.957m81.03 23.092l-91.812 8.865 53.419 66.226 38.394-75.09m-123.973 9.553l-41.996 29.752 68.827 43.715m-113.636-39.367l.384 19.63 44.425-23.978m10.629 48.964l-55.054-24.986 5.259 33.57"/><path d="M264.286 476.027l49.795-8.583-3.018 19.372m-46.777-10.789l46.777 10.79-13.487 41.461m0 0l-33.29-52.25-50.848 33.785m12.48 36.551l-12.48-36.55 84.138 18.464m-33.29-52.251l-85.47 16.351 34.622 17.435"/><path d="M178.816 492.378l12.453 44.53 22.169-27.095"/><path d="M178.816 492.378l-23.584 5.596 36.037 38.934m.001 0l-5.925 17.004 19.881.567"/><path d="M191.27 536.908l13.956 17.571 20.692-8.115-34.649-9.456m34.649 9.456l71.658-18.086-37.674 46.917"/><path d="M225.918 546.364l16.53 53.415-37.222-45.3m-19.881-.567l8.207 23.649 11.674-23.082"/><path d="M193.552 577.56l48.895 22.22-28.367 65.84-20.528-88.06m20.528 88.06l35.91-7.818-3.551 47.07-32.36-39.251m35.911-7.819l42.949-13.007 7.361 41.569"/><path d="M292.939 644.795l31.747 24.405-18.522 57.252"/><path d="M300.3 686.364l5.864 40.088-59.725-21.58m135.527 104.675l-75.802-83.095 88.254-64.79m0 0l-12.452 147.885 103.257-169.689m0 0l-90.805 21.804 63.85-49.702M324.686 669.2l-9.524-48.002-22.223 23.597m4.637-116.517l160.691 83.682-77.916-115.957m-69.288-9.187l69.288 9.187-82.775 32.275m16.505-60.834l33.042 13.106-36.06 6.266m61.216-24.621l-25.156 18.355 33.228 15.453m50.676-41.738l-58.748 7.93 8.072 33.808m0 0l50.676-41.738 27.24 157.695m11.153-232.786l20.266 13.336-10.276 19.84"/><path d="M469.42 379.174l9.99 33.176-14.87-6.301 4.88-26.875"/><path d="M464.54 406.049l-33.513 48.216 48.383-41.915m10.276-19.84l17.05 17.165 16.103-15.007m13.431 16.12l-29.531-1.112s10.405 43.562 10.754 43.562c.348 0 18.782-42.45 18.782-42.45"/><path d="M517.488 453.237l18.81 2.736-.028-45.185m0 0l13.556 31.177 10.87-28.656"/><path d="M549.826 441.965l-13.528 14.008 11.902 11.02m-11.902-11.02L525.58 478.49l22.619-11.497m1.627-25.028l32.338 5.6-21.469-34.256m0 0l34.377 1.235-3.863 11.13"/><path d="M560.695 413.309c1.038-.231 30.514 12.365 30.514 12.365l-9.045 21.89"/><path d="M617.891 441.607l2.717 20.17-38.444-14.213m35.727-5.957l27.945 15.434-25.228 4.735"/><path d="M645.836 457.04l18.337 20.944-43.565-16.208"/><path d="M664.173 477.984c-.692.519-10.38 12.246-10.38 12.246l-33.185-28.454"/><path d="M613.633 498.274l40.16-8.045-4.774 32.046"/><path d="M613.633 498.274l35.386 24.001-55.493 29.758m-6.932-26.369l6.932 26.37-44.954 12.274m65.061-66.034l-53.858-16.742 22.39-33.968m4.429 78.1l-38.022 38.644-27.945-13.074"/><path d="M586.594 525.664l-65.967 25.57 39.148-69.702M548.2 466.993l11.575 14.539-34.194-3.042"/><path d="M559.775 481.532l-53.333 48.6 19.139-51.642m-40.3 62.922l21.16-11.28 14.186 21.102m-35.346-9.822l-27.014 70.548 27.673-.098"/><path d="M520.627 551.234l33.881 37.806-68.568 22.822m62.632-47.554l5.936 24.732 39.018-37.007m12.234 20.332l43.259-50.09L790.76 572.02M381.966 809.547l164.602-43.773-61.345-125.916"/><path d="M458.267 611.96l26.956 27.898.717-27.996m60.628 153.912l59.191-193.409 83.844 125.442"/><path d="M605.76 572.365l185.001-.345-101.158 125.787m0 0l116.27 87.213-15.112-213"/><path d="M805.872 785.02l46.746-108.47-61.857-104.53"/><path d="M790.761 572.02l83.155 70.124-21.298 34.407"/><path d="M790.761 572.02l89.104 44.342-5.95 25.782M333.454 580.51l-18.292 40.688 50.468 5.605M205.226 554.48l-11.674 23.08 48.895 22.22m-29.009-89.967l-22.169 27.095 34.649 9.456m294.709 4.87l27.945 13.074 5.936 24.732m94.511-66.765l-43.26 50.09-12.233-20.332m-45.326-85.04l33.964-19.429-22.389 33.968m60.833-19.756c.345 1.183-7.205 36.036-6.978 36.498.227.461 40.16-8.045 40.16-8.045m-136.302-36.992c.518 0 18.81 2.736 18.81 2.736L525.58 478.49m13.509-105.63l28.907-1.764-31.726 39.692m-13.431-16.12l-16.103 15.007 29.534 1.113m-66.85-31.614l-4.88 26.875-33.513 48.216m-53.419-66.226l-5.33 74.156 58.749-7.93m-116.946 13.179l33.042 13.106 25.156-18.355m-68.827-43.715l-44.425 23.978 55.054 24.986m63.124-135.686l11.185 24.324 60.44-17.899m-134.907-15.598l-12.842 39.85 64.902 5.206M265.35 173.59l-24.338 14.637 15.374 10.074m7.891 13.072l-17.994 9.325 16.233 9.265m0 0l-7.872 10.343 15.885 9.403m-26.495 57.298l12.33 31.978 11.094-18.99m17.696 20.417l-15.633 17.397 31.56 4.625m-44.716-23.449l-8.34 57.408 21.496-38.584m240.824-101.437l-61.515 81.81 96.191-5.215"/><path d="M545.021 332.967l21.412 2.657 1.563 35.472m31.69-61.04l-13.936 21.598 17.372 14.787m3.978-104.084l-36.454 16.72 30.983 6.939zm0 0l11.178 18.163-16.649 5.496m-187.437-62.03l10.884 31.248 16.4-26.763m-91.11 19.052l4.024 26.966 20.08-22.349m-43.07-51.647l19.085 23.382 18.415-22.917m-18.415 22.917l-.119 23.648 15.108-12.71M322.25 100.06l-56.044 21.938-.856 51.593m36.636-103.686l20.265 30.154 34.648-39.132m.001 0l40.75 34.761-4.2-35.973m72.615 4.641c-.461-.346-68.414 31.332-68.414 31.332l88.26 2.464m-19.846-33.796l26.19 12.919L515.83 44.36m38.536-17.384L515.83 44.36l59.352 27.95M493.474 8.5l-44.935 17.442 67.29 18.418m97.804 453.914l-20.107 53.76-6.932-26.37m-130.196-70.755l28.883 86.503 21.16-11.28-50.043-75.223m-25.371-.644l54.254 87.147-27.014 70.548M306.164 726.452l-39.814 71.371-19.911-92.951m51.137-176.594l35.878 52.232-73.552-5.315m198.365 36.765l-124.813-31.45 32.176 46.293M301.856 287.61l-12.49 22.172-16.307-6.034M397.65 95.688l-28.75 85.27 39.764 2.478m0 0l5.528 20.55-22.104-5.635"/><path d="M408.664 183.436l5.528 20.55 27.283 4.485M575.181 72.31l-25.245 75.419 46.352-77.912m-104.032 7.458c.13.173 16.336 24.804 16.336 24.804l-22.677-3.924m109.157 316.389l-3.863 11.13 26.682 15.933M259.902 575.195l73.552 5.315-18.292 40.688M125.033 567.44l89.047 98.18-20.528-88.06m237.475-123.295l25.371.644 28.883 86.503m-28.883-86.503l50.044 75.224 19.139-51.643zm23.012-42.559l5.414 18.769 21.912-21.444m19.559-43.223l12.794 6.407 28.907-1.763M299.91 384.787l45.538 3.941 20.535-21.087m-66.073 17.146l3.542 33.693 41.996-29.752"/><path d="M392.088 198.351l11.58 15.974 10.524-10.339m-10.525 10.339l-10.54 7.047 31.95 13.862M278.84 225.53l-8.31 24.18 27.296-32.478m-50.254 66.015l54.284 4.363-28.797 16.138m61.021 4.987l-44.714 1.047 12.49-22.172"/><path d="M289.366 309.782l44.715-1.047-20.158 13.85m248.652-29.562l18.216-1.723-13.129 19.62M456.398 454.909l61.09-1.672 8.093 25.253M51.019 615.034L.578 679.43 56.12 787.915m210.43 9.134l4.554 32.29-54.3-33.917M362.27 950.516l68.35-54.905-48.513-86.86z"/><path d="M382.108 808.75l-43.834 54.819 23.995 86.947"/><path d="M306.345 725.812l-18.699 156.332 50.629-18.575m-31.93-137.757L271.104 829.34l16.542 52.804m142.974 13.467l24.798-72.307 35.927 64.484z"/><path d="M382.108 808.75l48.511 86.86 24.8-72.305m-149.074-97.493l31.93 137.757 43.833-54.818m-75.763-82.939l-39.794 71.237 4.553 32.29m220.24 58.449l92.369-56.951-21.094 85.484z"/><path d="M382.108 808.75l73.31 14.555 91.207-58.245m143.143-67.382L583.416 831.373"/><path d="M455.419 823.304l67.052-3.95-31.127 68.434m55.281-122.728l-24.137 54.497 61.225 11.28"/></g></svg>