<svg width="880" height="951" xmlns="http://www.w3.org/2000/svg"><g fill="none" fill-rule="evenodd"><path d="M455.419 823.17s64.58-3.989 65.962-3.989c1.383 0-30.037 68.54-30.037 68.54" stroke="#364D6E" fill="#364D6E"/><path stroke="#906F68" fill="#906F68" d="M238.305 283.686l-4.49 44.712 10.432-21.915z"/><path stroke="#755858" fill="#755858" d="M254.85 239.838l15.878 9.394-32.424 34.453z"/><path stroke="#7A5860" fill="#7A5860" d="M238.305 283.686l9.477-.943-3.535 23.74"/><path stroke="#825560" fill="#825560" d="M270.728 249.233l-22.945 33.51-9.478.942"/><path stroke="#4E3228" fill="#4E3228" d="M526.317 123.385l23.675 23.954-30.888 36.25"/><path stroke="#42251B" fill="#42251B" d="M575.224 71.982l-48.907 51.403-17.653-21.658"/><path stroke="#542E21" fill="#542E21" d="M575.224 71.982l-48.907 51.403 23.675 23.953"/><path stroke="#7D5755" fill="#7D5755" d="M477.595 152.18l-68.803 30.835 32.794 25.015"/><path stroke="#70494E" fill="#70494E" d="M397.784 95.341L486 97.806l-8.404 54.373z"/><path stroke="#724B45" fill="#724B45" d="M477.595 152.18l-36.009 55.85 34.58 32.689"/><path stroke="#795551" fill="#795551" d="M519.105 183.588l-42.938 57.132 1.428-88.54"/><path d="M477.595 152.18c1.44 1.267 41.51 31.408 41.51 31.408l7.212-60.203" stroke="#5C3D3D" fill="#5C3D3D"/><path stroke="#543A3D" fill="#543A3D" d="M508.664 101.727l-31.07 50.452 48.723-28.794"/><path stroke="#64474B" fill="#64474B" d="M486 97.806l-8.405 54.374 31.07-50.453"/><path stroke="#755455" fill="#755455" d="M322.423 99.71l9.143 80.365 66.218-84.734"/><path stroke="#785A5C" fill="#785A5C" d="M397.784 95.341l-28.736 85.198-37.481-.464"/><path stroke="#785C59" fill="#785C59" d="M293.949 199.292l4.062 17.491 26.358-21.711"/><path stroke="#492A26" fill="#492A26" d="M264.48 210.93l33.53 5.854-4.061-17.493"/><path stroke="#7D6059" fill="#7D6059" d="M265.552 173.178l28.396 26.114 37.618-19.217"/><path stroke="#3F2420" fill="#3F2420" d="M265.552 173.178l-8.96 24.69 37.356 1.424"/><path stroke="#71534D" fill="#71534D" d="M293.949 199.292l30.42-4.22 7.198-14.997"/><path stroke="#53332D" fill="#53332D" d="M256.592 197.868l7.887 13.062 29.47-11.638"/><path stroke="#724B51" fill="#724B51" d="M270.728 249.233l-22.945 33.51 54.255 4.36"/><path stroke="#6D4B4A" fill="#6D4B4A" d="M298.01 216.784l-27.282 32.448 47.496 21.758z"/><path stroke="#674242" fill="#674242" d="M318.224 270.99l36.322-16.98-20.3 54.199"/><path stroke="#6A4845" fill="#6A4845" d="M318.224 270.99l-.7-43.87-19.513-10.336"/><path stroke="#5D3E3C" fill="#5D3E3C" d="M317.523 227.12l.701 43.87 36.322-16.98"/><path stroke="#6B484C" fill="#6B484C" d="M270.728 249.233l31.31 37.87 16.186-16.113"/><path stroke="#603B3D" fill="#603B3D" d="M302.038 287.102l32.208 21.108-16.022-37.22"/><path d="M269.72 357.242c.346 0 31.544 4.621 31.544 4.621l-18.5 10.509-13.043-15.13z" stroke="#653D3D" fill="#653D3D"/><path d="M282.764 372.372s17.588 11.826 17.329 11.826c-.26 0-29.11-5.56-29.11-5.56" stroke="#694640" fill="#694640"/><path stroke="#5A3939" fill="#5A3939" d="M269.72 357.242l1.262 21.396 11.783-6.266"/><path stroke="#B7645A" fill="#B7645A" d="M601.659 265.526l-1.943 44.003-18.885-18.74"/><path stroke="#D68768" fill="#D68768" d="M621.982 298.22l-22.266 11.309 27.876.932"/><path stroke="#B3584C" fill="#B3584C" d="M601.659 265.526l-1.943 44.003 22.266-11.31"/><path stroke="#FB6D49" fill="#FB6D49" d="M580.831 290.79l-13.122 19.602 32.007-.863"/><path stroke="#FC7E5F" fill="#FC7E5F" d="M567.71 310.392l18.078 20.717 13.928-21.58"/><path stroke="#CE5C4F" fill="#CE5C4F" d="M567.71 310.392l-1.23 24.683 19.308-3.966"/><path stroke="#FBC47D" fill="#FBC47D" d="M469.518 378.59l20.254 13.323 36.591-26.035 12.786 6.402-16.24 21.79"/><path stroke="#C57A5C" fill="#C57A5C" d="M539.15 372.28l-2.818 37.896-13.423-16.106"/><path stroke="#1D1C29" fill="#1D1C29" d="M214.307 664.795l2.498 130.464 29.845-91.246"/><path stroke="#08070E" fill="#08070E" d="M246.65 704.013l-29.845 91.246 49.745 1.628z"/><path stroke="#445472" fill="#445472" d="M266.55 796.887l4.554 32.324-54.3-33.952"/><path stroke="#141726" fill="#141726" d="M51.33 614.252l5.1 172.734 160.375 8.273"/><path stroke="#101019" fill="#101019" d="M51.33 614.252l73.839-47.585 91.636 228.592z"/><path stroke="#13141D" fill="#13141D" d="M125.17 566.667l89.137 98.127 2.497 130.465"/><path stroke="#4C5E79" fill="#4C5E79" d="M362.27 950.516l68.35-54.963-48.513-86.952z"/><path stroke="#2E4660" fill="#2E4660" d="M382.108 808.6l-43.834 54.876 23.995 87.04"/><path stroke="#131117" fill="#131117" d="M554.562 588.278l-69.25 50.775.717-27.972"/><path stroke="#08080E" fill="#08080E" d="M485.312 639.054l69.25-50.775-7.937 176.586"/><path stroke="#100E1A" fill="#100E1A" d="M394.553 660.839l-69.695 7.532 40.923-42.361z"/><path stroke="#0A070A" fill="#0A070A" d="M365.78 626.01l92.59-14.83-63.817 49.66"/><path d="M226.14 545.64l33.966 28.804S242.66 598.49 242.66 599.01" stroke="#0B0B10" fill="#0B0B10"/><path d="M260.106 574.444c.692-.173 55.232 45.965 55.232 45.965l-72.678-21.4" stroke="#0E0E12" fill="#0E0E12"/><path stroke="#190D10" fill="#190D10" d="M242.66 599.009l50.466 44.978 22.212-23.578"/><path stroke="#1C0F12" fill="#1C0F12" d="M242.66 599.009l7.54 57.974 42.926-12.996"/><path stroke="#151834" fill="#151834" d="M306.345 725.575l-18.699 156.497 50.629-18.596"/><path stroke="#11111C" fill="#11111C" d="M689.587 696.954l-142.962 67.91 37.088 65.846"/><path stroke="#100E1A" fill="#100E1A" d="M554.562 588.278l-7.937 176.587 59.162-193.247"/><path stroke="#293952" fill="#293952" d="M546.625 764.865l-91.207 58.305 65.963-3.99"/><path stroke="#09080D" fill="#09080D" d="M324.857 668.371l-18.512 57.204 88.208-64.736"/><path stroke="#070709" fill="#070709" d="M293.126 643.987l31.732 24.384-24.375 17.15z"/><path stroke="#0B0D24" fill="#0B0D24" d="M250.199 656.983l50.284 28.538-53.833 18.492"/><path stroke="#09070B" fill="#09070B" d="M315.338 620.41l9.52 47.961 40.922-42.361"/><path stroke="#08090D" fill="#08090D" d="M242.66 599.009l-28.353 65.786 35.892-7.812"/><path stroke="#181929" fill="#181929" d="M185.762 553.061l8.027 23.748-68.62-10.142"/><path stroke="#0D0D12" fill="#0D0D12" d="M554.562 588.278l51.225-16.66-12.228-20.315"/><path stroke="#AB9387" fill="#AB9387" d="M653.796 489.55l14.524 16.818-19.296 15.202"/><path stroke="#85654C" fill="#85654C" d="M613.657 497.588l-27.026 27.367-26.805-44.095"/><path stroke="#C09D7C" fill="#C09D7C" d="M582.203 446.922l31.453 50.666 6.971-36.466"/><path d="M506.52 529.42s14.38 21.314 14.178 21.085c-.202-.231 39.128-69.644 39.128-69.644" stroke="#1C1113" fill="#1C1113"/><path stroke="#171218" fill="#171218" d="M485.37 540.69l35.327 9.814-34.669 60.577z"/><path stroke="#FDFB97" fill="#FDFB97" d="M536.333 410.176l13.548 31.151-13.52 13.996"/><path stroke="#1A0E11" fill="#1A0E11" d="M549.881 441.327l-1.625 25.007 33.947-19.413"/><path stroke="#AB8B71" fill="#AB8B71" d="M595.105 413.93l22.807 27.04-35.709 5.952"/><path d="M517.56 452.59l-61.058 1.67" stroke="#795349" fill="#FDBC79"/><path stroke="#FDBC79" fill="#FDBC79" d="M479.502 411.737l5.411 18.753-28.411 23.77"/><path stroke="#775243" fill="#775243" d="M484.913 430.49l-28.411 23.77 61.059-1.67"/><path stroke="#C0824E" fill="#C0824E" d="M479.502 411.737l-23 42.523-25.36-.643"/><path stroke="#845847" fill="#845847" d="M479.502 411.737l27.312-2.673-21.9 21.426 32.646 22.1-10.746-43.526-27.312 2.673 10.27-19.823"/><path stroke="#FBCC8C" fill="#FBCC8C" d="M469.518 378.59l20.254 13.323 36.591-26.035"/><path stroke="#FDCB78" fill="#FDCB78" d="M489.772 391.914l-10.27 19.823 27.312-2.673"/><path stroke="#FCFBAF" fill="#FCFBAF" d="M618.3 260.035l12.172-1.524 2.68 14.618"/><path d="M580.831 290.79l-13.122 19.602-5.084-17.883-17.545 39.912 6.893-52.755c.347.692-6.893 52.755-6.893 52.755l22.63-22.029" stroke="#945A58" fill="#945A58"/><path stroke="#815B5A" fill="#815B5A" d="M551.973 279.667l10.651 12.842-17.544 39.912"/><path stroke="#6D5049" fill="#6D5049" d="M297.761 527.568l35.859 52.188 124.75 31.424"/><path stroke="#704E43" fill="#704E43" d="M388.528 355.516l-10.777 31.93 91.767-8.856"/><path d="M303.634 417.862c0 .951 10.623 48.924 10.623 48.924l58.168-5.245" stroke="#74524B" fill="#74524B"/><path stroke="#6E4840" fill="#6E4840" d="M377.751 387.446l-5.326 74.095-26.817-73.406"/><path stroke="#44271A" fill="#44271A" d="M347.282 479.88l-36.042 6.261 69.254 9.179"/><path stroke="#623C39" fill="#623C39" d="M377.349 331.213l-11.216 35.853-52.034-45.019"/><path stroke="#461C14" fill="#461C14" d="M273.257 303.226l-5.6 16.233 21.898-10.204"/><path stroke="#705352" fill="#705352" d="M354.546 254.01l48.77-4.411-25.967 81.614"/><path stroke="#75534C" fill="#75534C" d="M425.195 234.77l50.973 5.95-27.23 96.913"/><path stroke="#71534F" fill="#71534F" d="M324.37 195.072l-26.36 21.711 19.513 10.337"/><path stroke="#6D3F27" fill="#6D3F27" d="M549.992 147.339l85.292 17.452-64.593 93.802"/><path stroke="#1D1314" fill="#1D1314" d="M448.647 25.654L393.585 59.4l72.578 4.636"/><path stroke="#5D3412" fill="#5D3412" d="M440.242.463l8.404 25.191 44.912-17.428z"/><path stroke="#B37A3E" fill="#B37A3E" d="M493.558 8.226l22.344 35.83 38.518-17.369z"/><path stroke="#9F6B3F" fill="#9F6B3F" d="M554.42 26.687l20.804 45.295 21.096-2.49z"/><path stroke="#2E1912" fill="#2E1912" d="M515.902 44.057l59.322 27.925-82.883 4.962z"/><path stroke="#231312" fill="#231312" d="M515.902 44.057l-49.74 19.978-17.516-38.38"/><path stroke="#36241B" fill="#36241B" d="M440.242.463l-48.567 6.61 56.971 18.581"/><path stroke="#141011" fill="#141011" d="M448.647 25.654L393.585 59.4l-1.91-52.325"/><path stroke="#171115" fill="#171115" d="M391.675 7.073L343.877 26.48l49.708 32.918"/><path stroke="#633F44" fill="#633F44" d="M393.585 59.399l72.579 4.636-68.38 31.307z"/><path stroke="#5A3C40" fill="#5A3C40" d="M466.163 64.035L486 97.805l6.342-20.86z"/><path stroke="#704648" fill="#704648" d="M397.784 95.341l11.009 87.674 68.802-30.836"/><path stroke="#22181B" fill="#22181B" d="M343.877 26.48l13.176 34.129 36.533-1.21"/><path stroke="#795A60" fill="#795A60" d="M357.053 60.61l40.731 34.732-75.36 4.367z"/><path stroke="#241E1E" fill="#241E1E" d="M343.877 26.48l-41.16 26.075 54.336 8.054"/><path stroke="#423237" fill="#423237" d="M302.716 52.555l-.547 17.025 54.884-8.97"/><path stroke="#796064" fill="#796064" d="M322.423 99.71l-56.016 21.92 35.762-52.05"/><path stroke="#7A5C5E" fill="#7A5C5E" d="M322.423 99.71l-56.871 73.468 66.014 6.897z"/><path stroke="#8C7570" fill="#8C7570" d="M266.407 121.629l-.855 51.55-24.326 14.624z"/><path stroke="#4F352D" fill="#4F352D" d="M241.226 187.803l15.365 10.065-11.062 10.229z"/><path stroke="#6F4B41" fill="#6F4B41" d="M241.226 187.803l-9.314 12.901 13.617 7.393"/><path stroke="#6A4D44" fill="#6A4D44" d="M256.592 197.868l7.887 13.062-18.95-2.833"/><path stroke="#4D2C27" fill="#4D2C27" d="M245.529 208.097l.965 12.149 17.985-9.316"/><path stroke="#574243" fill="#574243" d="M264.48 210.93l14.554 14.144 18.976-8.29"/><path stroke="#3B2722" fill="#3B2722" d="M264.48 210.93l-1.762 18.574 16.316-4.43"/><path stroke="#4E2F27" fill="#4E2F27" d="M246.494 220.246l16.224 9.257-7.867 10.335z"/><path stroke="#6B4946" fill="#6B4946" d="M279.034 225.074l-8.306 24.159-8.01-19.73"/><path stroke="#825D56" fill="#825D56" d="M247.782 282.743l25.475 20.483-29.011 3.257"/><path stroke="#442923" fill="#442923" d="M331.567 180.075l19.077 23.363-26.275-8.366"/><path stroke="#634139" fill="#634139" d="M324.37 195.072l-6.847 32.048 33.12-23.682"/><path stroke="#4E302B" fill="#4E302B" d="M317.523 227.12l33-.055.12-23.627"/><path stroke="#583B39" fill="#583B39" d="M317.523 227.12l37.023 26.89-4.022-26.945"/><path stroke="#6B4E4C" fill="#6B4E4C" d="M374.615 231.679l-20.069 22.33 48.771-4.41"/><path stroke="#261112" fill="#261112" d="M365.624 214.366l-15.1 12.7 24.091 4.613"/><path stroke="#301A19" fill="#301A19" d="M369.048 180.54l-18.404 22.898 41.58-5.52"/><path stroke="#482D28" fill="#482D28" d="M350.643 203.438l14.981 10.927 26.6-16.447"/><path stroke="#382225" fill="#382225" d="M365.624 214.366l8.991 17.313 18.649-10.76"/><path stroke="#3A262A" fill="#3A262A" d="M365.624 214.366l27.64 6.553 10.534-7.04"/><path stroke="#533633" fill="#533633" d="M365.624 214.366l38.174-.488-11.573-15.96"/><path stroke="#482E31" fill="#482E31" d="M369.048 180.54l23.176 17.378 16.568-14.903"/><path stroke="#54362F" fill="#54362F" d="M414.317 203.549l-10.52 10.33 21.398 20.892"/><path stroke="#442D2C" fill="#442D2C" d="M393.264 220.92l31.932 13.85-50.581-3.091"/><path stroke="#634641" fill="#634641" d="M374.615 231.679l28.702 17.92 21.878-14.828"/><path d="M441.586 208.03s-16.737 26.164-16.39 26.74c.345.577 50.971 5.95 50.971 5.95" stroke="#69463B" fill="#69463B"/><path stroke="#724E4E" fill="#724E4E" d="M354.546 254.01l22.803 77.203-43.102-23.004"/><path stroke="#7C5B55" fill="#7C5B55" d="M403.317 249.599l-25.968 81.614 71.588 6.42"/><path stroke="#72564F" fill="#72564F" d="M403.317 249.599l45.62 88.034-23.742-102.862"/><path stroke="#7B5A52" fill="#7B5A52" d="M476.167 240.72l-27.23 96.913 61.484-81.743"/><path stroke="#AD846D" fill="#AD846D" d="M476.167 240.72l34.254 15.17 8.684-72.302"/><path stroke="#36221D" fill="#36221D" d="M492.34 76.944l16.325 24.782 66.56-29.744"/><path stroke="#653A26" fill="#653A26" d="M596.32 69.491l23.587 41.17-69.915 36.677"/><path stroke="#582C1C" fill="#582C1C" d="M619.907 110.662l15.377 54.129-85.292-17.453"/><path stroke="#6E442E" fill="#6E442E" d="M519.105 183.588l30.887-36.249 20.698 111.253"/><path d="M519.105 183.588c1.152-.173 51.585 75.004 51.585 75.004l-60.27-2.702" stroke="#8B5C37" fill="#8B5C37"/><path stroke="#8E5833" fill="#8E5833" d="M635.284 164.79l-64.594 93.802 36.437-16.705"/><path stroke="#7F4F2D" fill="#7F4F2D" d="M635.284 164.79l-28.157 77.097 32.088-6.327z"/><path stroke="#916141" fill="#916141" d="M607.127 241.887l23.345 16.624 8.743-22.95"/><path stroke="#BD9B7C" fill="#BD9B7C" d="M639.215 235.56l.922 23.538-9.665-.587"/><path stroke="#F8BA8B" fill="#F8BA8B" d="M607.127 241.887l11.172 18.148 12.173-1.524"/><path stroke="#9A684D" fill="#9A684D" d="M630.472 258.51l2.68 14.62 6.985-14.032"/><path stroke="#FEE59F" fill="#FEE59F" d="M633.152 273.13l-14.853-13.094 3.683 38.184"/><path stroke="#FFF0B5" fill="#FFF0B5" d="M633.152 273.13l-11.17 25.09 5.61 12.241z"/><path stroke="#F26244" fill="#F26244" d="M618.3 260.035l-16.64 5.491 20.322 32.693"/><path stroke="#DE5E45" fill="#DE5E45" d="M570.69 258.593l30.969 6.933-20.828 25.263"/><path stroke="#975747" fill="#975747" d="M570.69 258.593l10.14 32.196-18.205 1.72"/><path stroke="#764739" fill="#764739" d="M570.69 258.593l-8.065 33.916-10.651-12.843"/><path stroke="#68403A" fill="#68403A" d="M570.69 258.593l-18.716 21.073-41.553-23.777"/><path stroke="#825D54" fill="#825D54" d="M510.421 255.89l34.659 76.53 6.893-52.753"/><path stroke="#9E362E" fill="#9E362E" d="M567.71 310.392l-22.63 22.029 21.4 2.654"/><path stroke="#D07756" fill="#D07756" d="M627.592 310.46l-24.442 35.424-3.434-36.355"/><path stroke="#B25855" fill="#B25855" d="M585.788 331.11l17.362 14.774-35.108 24.634"/><path stroke="#F9D482" fill="#F9D482" d="M603.15 345.884l-23.37 28.88-11.737-4.247"/><path d="M585.788 331.11c-.576.98-17.746 39.408-17.746 39.408l-1.562-35.443" stroke="#A25D5B" fill="#A25D5B"/><path stroke="#BE6154" fill="#BE6154" d="M545.08 332.42l22.962 38.098-41.68-4.64"/><path stroke="#7E5E52" fill="#7E5E52" d="M545.08 332.42l-18.717 33.458-77.426-28.246z"/><path d="M568.043 370.518s-8.162 42.004-7.298 42.177c.865.173 19.035-37.93 19.035-37.93" stroke="#DE9F73" fill="#DE9F73"/><path stroke="#FDFD9A" fill="#FDFD9A" d="M568.043 370.518l-31.71 39.658 24.412 2.519"/><path stroke="#FBD77E" fill="#FBD77E" d="M526.363 365.878l-36.59 26.036 33.136 2.156"/><path stroke="#886455" fill="#886455" d="M448.937 337.632l20.581 40.957 56.845-12.711"/><path stroke="#7B5A4F" fill="#7B5A4F" d="M448.937 337.632l-60.409 17.885 80.99 23.072"/><path stroke="#633D34" fill="#633D34" d="M377.349 331.213l11.179 24.303-22.395 11.55"/><path stroke="#69413C" fill="#69413C" d="M377.349 331.213l-63.25-9.166 20.148-13.838"/><path d="M314.1 322.047l-24.546-12.792" stroke="#51271D"/><path stroke="#663932" fill="#663932" d="M289.554 309.255l-21.896 10.204 17.687 20.4"/><path stroke="#5C352E" fill="#5C352E" d="M289.554 309.255l-4.21 30.605 28.755-17.813"/><path stroke="#68443E" fill="#68443E" d="M314.1 322.047l-12.837 39.816-15.918-22.003"/><path stroke="#653C33" fill="#653C33" d="M273.257 303.226l-5.6 16.233-23.41-12.976"/><path stroke="#795A56" fill="#795A56" d="M267.657 319.459l-11.087 18.974 28.774 1.427"/><path stroke="#714B3F" fill="#714B3F" d="M244.246 306.483l12.325 31.95-22.756-10.035"/><path stroke="#7E594A" fill="#7E594A" d="M233.814 328.398l14.42 67.395 8.336-57.36"/><path d="M256.57 338.433s12.46 18.809 13.151 18.809c.692 0 15.623-17.382 15.623-17.382" stroke="#6D514D" fill="#6D514D"/><path stroke="#755455" fill="#755455" d="M270.983 378.638l-22.749 17.155 21.487-38.55"/><path d="M301.264 361.863c.606-.086 64.869 5.202 64.869 5.202l-83.37 5.307" stroke="#533030" fill="#533030"/><path stroke="#5C3838" fill="#5C3838" d="M282.764 372.372l17.329 11.826 66.04-17.133"/><path d="M270.983 378.638c.403 0 29.11 5.56 29.11 5.56l-51.859 11.595" stroke="#745650" fill="#745650"/><path stroke="#7C605D" fill="#7C605D" d="M248.235 395.793l10.612 26.413 41.246-38.008"/><path stroke="#7A5B55" fill="#7A5B55" d="M300.093 384.197l3.54 33.665-44.786 4.345"/><path stroke="#6B433E" fill="#6B433E" d="M366.133 367.065l-20.526 21.07 32.144-.688"/><path stroke="#6B453D" fill="#6B453D" d="M366.133 367.065l11.618 20.382 10.777-31.93"/><path stroke="#6D4B3D" fill="#6D4B3D" d="M469.518 378.59l-91.767 8.856 53.392 66.17z"/><path stroke="#774F4A" fill="#774F4A" d="M345.608 388.135l-41.974 29.727 68.791 43.68"/><path stroke="#795D5C" fill="#795D5C" d="M258.847 422.206l.384 19.614 44.402-23.958"/><path stroke="#442B27" fill="#442B27" d="M314.258 466.785l-55.026-24.965 5.255 33.54"/><path stroke="#1B1110" fill="#1B1110" d="M264.487 475.361l49.77-8.576-3.016 19.356"/><path stroke="#100E15" fill="#100E15" d="M264.487 475.361l46.754 10.78-13.48 41.427"/><path stroke="#11172D" fill="#11172D" d="M297.761 527.568l-33.274-52.207-50.822 33.757"/><path stroke="#0C0C15" fill="#0C0C15" d="M226.14 545.64l-12.474-36.522 84.095 18.45"/><path stroke="#080A15" fill="#080A15" d="M264.487 475.361l-85.425 16.336 34.603 17.42"/><path stroke="#10142A" fill="#10142A" d="M179.062 491.698l12.446 44.492 22.157-27.072"/><path stroke="#10101E" fill="#10101E" d="M179.062 491.698l-23.573 5.591 36.02 38.9"/><path stroke="#101118" fill="#101118" d="M191.508 536.19l-5.746 16.87 19.696.687"/><path stroke="#0D0E17" fill="#0D0E17" d="M191.508 536.19l13.95 17.557 20.681-8.108z"/><path stroke="#0B0C13" fill="#0B0C13" d="M226.14 545.64l71.621-18.072-37.655 46.876"/><path stroke="#0A0B11" fill="#0A0B11" d="M226.14 545.64l16.52 53.37-37.202-45.263"/><path stroke="#08080E" fill="#08080E" d="M185.762 553.061l8.027 23.748 11.669-23.062"/><path stroke="#101219" fill="#101219" d="M193.79 576.809l48.87 22.2-28.353 65.786z"/><path stroke="#181821" fill="#181821" d="M214.307 664.795l35.892-7.811-3.55 47.029z"/><path stroke="#090A1A" fill="#090A1A" d="M250.199 656.983l42.927-12.996 7.357 41.534"/><path stroke="#08070C" fill="#08070C" d="M293.126 643.987l31.732 24.384-18.513 57.204"/><path stroke="#2A141E" fill="#2A141E" d="M300.483 685.52l5.862 40.055-59.695-21.562"/><path stroke="#251D3B" fill="#251D3B" d="M306.345 725.575l-35.241 103.637 16.542 52.86"/><path stroke="#0A0A0E" fill="#0A0A0E" d="M382.108 808.6l-75.763-83.025 88.208-64.736"/><path stroke="#0E0C12" fill="#0E0C12" d="M394.553 660.839L382.107 808.6l103.205-169.546"/><path stroke="#100E13" fill="#100E13" d="M485.312 639.054l-90.759 21.785 63.817-49.66"/><path stroke="#08080A" fill="#08080A" d="M324.857 668.371l-9.519-47.962-22.213 23.578"/><path stroke="#75544D" fill="#75544D" d="M297.761 527.568l160.61 83.612-77.877-115.86"/><path stroke="#67453B" fill="#67453B" d="M311.24 486.14l69.254 9.18-82.733 32.248"/><path stroke="#251410" fill="#251410" d="M314.258 466.785l33.024 13.095-36.041 6.26"/><path stroke="#46271B" fill="#46271B" d="M372.425 461.541l-25.143 18.34 33.212 15.439"/><path stroke="#60392F" fill="#60392F" d="M431.143 453.617l-58.718 7.924 8.07 33.779"/><path stroke="#704F4A" fill="#704F4A" d="M380.494 495.32l50.649-41.703 27.227 157.562"/><path stroke="#DD995F" fill="#DD995F" d="M469.518 378.59l20.254 13.323-10.27 19.825"/><path stroke="#B37856" fill="#B37856" d="M469.518 378.59l9.984 33.148-14.862-6.296z"/><path stroke="#8F5F43" fill="#8F5F43" d="M464.64 405.441l-33.497 48.176 48.359-41.88"/><path stroke="#FEE88F" fill="#FEE88F" d="M489.772 391.914l17.042 17.15 16.095-14.995"/><path d="M536.333 410.176l-29.519-1.112s10.4 43.526 10.746 43.526c.346 0 18.773-42.414 18.773-42.414" stroke="#8D5D4E" fill="#8D5D4E"/><path stroke="#F6C880" fill="#F6C880" d="M517.56 452.59l18.8 2.734-.027-45.147"/><path stroke="#FEE6B0" fill="#FEE6B0" d="M536.333 410.176l13.548 31.151 10.865-28.632"/><path stroke="#4C3134" fill="#4C3134" d="M549.881 441.327l-13.52 13.996 11.895 11.01"/><path stroke="#5D3D3B" fill="#5D3D3B" d="M536.36 455.324l-10.71 22.498 22.606-11.488"/><path stroke="#1D1010" fill="#1D1010" d="M549.881 441.327l32.322 5.594-21.458-34.226"/><path stroke="#6E5C57" fill="#6E5C57" d="M560.746 412.695l34.36 1.234-3.863 11.121"/><path d="M560.746 412.695c1.037-.23 30.497 12.355 30.497 12.355l-9.04 21.872" stroke="#2D1C17" fill="#2D1C17"/><path stroke="#CEAC8D" fill="#CEAC8D" d="M617.912 440.97l2.715 20.152-38.423-14.2"/><path stroke="#968072" fill="#968072" d="M617.912 440.97l27.93 15.42-25.215 4.732"/><path stroke="#AC8A63" fill="#AC8A63" d="M645.843 456.39l18.328 20.925-43.543-16.193"/><path d="M664.17 477.315c-.691.519-10.374 12.236-10.374 12.236l-33.168-28.43" stroke="#A8896E" fill="#A8896E"/><path stroke="#99775D" fill="#99775D" d="M613.657 497.588l40.14-8.037-4.773 32.019"/><path stroke="#7A5A44" fill="#7A5A44" d="M613.657 497.588l35.367 23.982-55.465 29.733"/><path stroke="#0F0D11" fill="#0F0D11" d="M586.63 524.956l6.929 26.347-44.931 12.264"/><path stroke="#825F44" fill="#825F44" d="M613.657 497.588l-53.83-16.728 22.377-33.939"/><path stroke="#6C4F42" fill="#6C4F42" d="M586.63 524.956l-38.002 38.611-27.93-13.062"/><path stroke="#4E342C" fill="#4E342C" d="M586.63 524.956l-65.932 25.549 39.128-69.644"/><path stroke="#221010" fill="#221010" d="M548.256 466.334l11.57 14.527-34.177-3.04"/><path stroke="#2E1819" fill="#2E1819" d="M559.826 480.86l-53.306 48.56 19.128-51.598"/><path stroke="#241213" fill="#241213" d="M485.37 540.69l21.15-11.27 14.177 21.084"/><path stroke="#1E1518" fill="#1E1518" d="M485.37 540.69l-27 70.49 27.658-.099"/><path stroke="#0D0D12" fill="#0D0D12" d="M520.698 550.504l33.864 37.775-68.533 22.802"/><path stroke="#10101C" fill="#10101C" d="M548.628 563.567l5.934 24.712 38.997-36.976"/><path stroke="#13131F" fill="#13131F" d="M605.787 571.618l43.237-50.049 141.67 49.704"/><path stroke="#0B0D1C" fill="#0B0D1C" d="M430.62 895.553l24.798-72.383 35.927 64.552"/><path stroke="#08080E" fill="#08080E" d="M382.108 808.6l73.31 14.57 91.207-58.306"/><path stroke="#100F17" fill="#100F17" d="M382.108 808.6l164.517-43.736-61.314-125.81"/><path stroke="#0F0E12" fill="#0F0E12" d="M458.37 611.18l26.942 27.874.716-27.973"/><path stroke="#0A0911" fill="#0A0911" d="M546.625 764.865l59.162-193.247 83.8 125.336"/><path stroke="#0F0E15" fill="#0F0E15" d="M605.787 571.618l184.907-.345-101.107 125.68"/><path stroke="#161723" fill="#161723" d="M546.625 764.865l-25.244 54.316 62.332 11.529"/><path stroke="#0A0A11" fill="#0A0A11" d="M689.587 696.954L583.713 830.71l222.13-46.642"/><path stroke="#16131F" fill="#16131F" d="M689.587 696.954l116.21 87.14-15.102-212.821"/><path stroke="#0F0F19" fill="#0F0F19" d="M805.797 784.094l46.722-108.378-61.824-104.443"/><path stroke="#2B1F28" fill="#2B1F28" d="M790.694 571.273l83.112 70.065-21.286 34.378"/><path stroke="#A08772" fill="#A08772" d="M790.694 571.273l89.058 44.304-5.946 25.76"/><path stroke="#0A0B10" fill="#0A0B10" d="M333.62 579.756l-18.282 40.653 50.442 5.6"/><path stroke="#07080C" fill="#07080C" d="M205.458 553.747L193.79 576.81l48.87 22.2"/><path stroke="#0C101E" fill="#0C101E" d="M213.665 509.118l-22.157 27.072 34.631 9.45"/><path stroke="#3E4F6D" fill="#3E4F6D" d="M382.108 808.6l48.511 86.953 24.8-72.383"/><path stroke="#425C79" fill="#425C79" d="M521.381 819.181l-30.037 68.54 92.369-57.01"/><path stroke="#100F16" fill="#100F16" d="M520.698 550.504l27.93 13.063 5.934 24.712"/><path stroke="#200F10" fill="#200F10" d="M649.024 521.57l-43.237 50.048-12.228-20.315"/><path stroke="#1B0E10" fill="#1B0E10" d="M548.256 466.334l33.947-19.412-22.376 33.939"/><path d="M620.628 461.122c.346 1.181-7.202 36.005-6.971 36.466.23.461 40.14-8.037 40.14-8.037" stroke="#937059" fill="#937059"/><path d="M517.56 452.59c.519 0 18.8 2.734 18.8 2.734l-10.712 22.498" stroke="#7C5650" fill="#7C5650"/><path stroke="#FFF598" fill="#FFF598" d="M539.15 372.28l28.893-1.762-31.71 39.658"/><path stroke="#945F48" fill="#945F48" d="M522.909 394.07l-16.095 14.994 29.518 1.112"/><path stroke="#795141" fill="#795141" d="M469.518 378.59l-4.878 26.852-33.497 48.175"/><path stroke="#6A4339" fill="#6A4339" d="M377.751 387.446l-5.326 74.095 58.718-7.924"/><path stroke="#382218" fill="#382218" d="M314.258 466.785l33.024 13.095 25.143-18.34"/><path stroke="#735653" fill="#735653" d="M303.634 417.862L259.23 441.82l55.026 24.966"/><path stroke="#745347" fill="#745347" d="M377.349 331.213l11.179 24.303 60.409-17.883"/><path stroke="#64403C" fill="#64403C" d="M314.1 322.047l-12.837 39.816 64.87 5.203"/><path stroke="#382223" fill="#382223" d="M265.552 173.178l-24.326 14.625 15.365 10.065"/><path stroke="#3C221D" fill="#3C221D" d="M264.48 210.93l-17.986 9.315 16.224 9.259"/><path stroke="#7A5B55" fill="#7A5B55" d="M262.718 229.504l-7.867 10.334 15.877 9.394"/><path stroke="#6E4137" fill="#6E4137" d="M244.246 306.483l12.325 31.95 11.087-18.974"/><path stroke="#714C45" fill="#714C45" d="M285.344 339.86l-15.623 17.382 31.543 4.62"/><path stroke="#633F38" fill="#633F38" d="M256.57 338.433l-8.336 57.36 21.487-38.551"/><path stroke="#7D5C52" fill="#7D5C52" d="M510.421 255.89l-61.484 81.742 96.143-5.212"/><path stroke="#A05B59" fill="#A05B59" d="M545.08 332.42l21.4 2.655 1.562 35.443"/><path stroke="#C05950" fill="#C05950" d="M599.716 309.529l-13.929 21.58 17.363 14.775"/><path stroke="#A34333" fill="#A34333" d="M607.127 241.887l-36.437 16.705 30.97 6.934"/><path stroke="#C95844" fill="#C95844" d="M607.127 241.887l11.172 18.148-16.64 5.49"/><path stroke="#5B3B33" fill="#5B3B33" d="M414.317 203.549l10.878 31.222 16.391-26.742"/><path stroke="#553637" fill="#553637" d="M350.524 227.065l4.022 26.945 20.069-22.331"/><path stroke="#3B2523" fill="#3B2523" d="M331.567 180.075l19.077 23.363 18.404-22.898"/><path stroke="#29100D" fill="#29100D" d="M350.643 203.438l-.12 23.627 15.101-12.7"/><path stroke="#7D6467" fill="#7D6467" d="M322.423 99.71l-56.016 21.92-.855 51.548"/><path stroke="#755962" fill="#715A62" d="M302.169 69.58l20.254 30.13 34.63-39.101"/><path stroke="#6E4B52" fill="#6E4B52" d="M357.053 60.61l40.731 34.732-4.2-35.943"/><path d="M466.163 64.035c-.46-.346-68.38 31.306-68.38 31.306L486 97.806" stroke="#69464A" fill="#69464A"/><path stroke="#291A1A" fill="#291A1A" d="M466.163 64.035l26.178 12.91 23.561-32.888"/><path stroke="#814B1F" fill="#814B1F" d="M554.42 26.687l-38.518 17.37 59.322 27.925"/><path stroke="#845125" fill="#845125" d="M493.558 8.226l-44.911 17.428 67.255 18.403"/><path stroke="#171216" fill="#171216" d="M613.657 497.588l-20.098 53.715-6.928-26.348"/><path stroke="#6C4A48" fill="#6C4A48" d="M456.502 454.26l28.868 86.43 21.15-11.27z"/><path stroke="#694645" fill="#694645" d="M431.143 453.617l54.227 87.073-27 70.49"/><path stroke="#371A23" fill="#371A23" d="M306.345 725.575l-39.794 71.312-19.901-92.874"/><path stroke="#3D546D" fill="#3D546D" d="M306.345 725.575l31.93 137.901 43.833-54.875"/><path stroke="#0D0B0F" fill="#0D0B0F" d="M297.761 527.568l35.859 52.188-73.514-5.312"/><path stroke="#563D3A" fill="#563D3A" d="M458.37 611.18l-124.75-31.424 32.16 46.254"/><path stroke="#5E3432" fill="#5E3432" d="M302.038 287.102l-12.483 22.153-16.298-6.03"/><path stroke="#765855" fill="#765855" d="M397.784 95.341l-28.736 85.198 39.745 2.476"/><path stroke="#3D2628" fill="#3D2628" d="M408.792 183.015l5.524 20.534-22.092-5.63"/><path stroke="#4A3131" fill="#4A3131" d="M408.792 183.015l5.524 20.534 27.27 4.48"/><path stroke="#4D2719" fill="#4D2719" d="M575.224 71.982l-25.232 75.356 46.328-77.846"/><path d="M492.34 76.944c.13.173 16.325 24.782 16.325 24.782l-22.666-3.92" stroke="#493234" fill="#493234"/><path stroke="#A69291" fill="#A69291" d="M595.105 413.93l-3.86 11.12 26.667 15.92"/><path stroke="#13111E" fill="#13111E" d="M260.106 574.444l73.514 5.312-18.282 40.653"/><path stroke="#0B0C12" fill="#0B0C12" d="M125.17 566.667l89.137 98.127-20.518-87.985"/><path stroke="#0D0D1D" fill="#0D0D1D" d="M306.345 725.575l-39.794 71.312 4.553 32.325"/><path stroke="#735448" fill="#735448" d="M431.143 453.617l25.359.643 28.868 86.43"/><path stroke="#6D4C44" fill="#6D4C44" d="M456.502 454.26l50.018 75.16 19.13-51.598"/><path stroke="#FED484" fill="#FED484" d="M480.262 412.238l4.63 17.065 21.043-20.46z"/><path stroke="#FDBD84" fill="#FDBD84" d="M526.363 365.878l12.787 6.402 28.892-1.762"/><path stroke="#6B4240" fill="#6B4240" d="M300.093 384.197l45.515 3.938 20.525-21.07"/><path stroke="#704B42" fill="#704B42" d="M300.093 384.197l3.54 33.665 41.975-29.727"/><path stroke="#513433" fill="#513433" d="M392.225 197.918l11.572 15.96 10.52-10.33"/><path stroke="#4A312E" fill="#4A312E" d="M403.798 213.879l-10.534 7.04 31.932 13.851"/><path stroke="#553738" fill="#553738" d="M279.034 225.074l-8.306 24.159 27.282-32.449"/><path stroke="#7B5354" fill="#7B5354" d="M247.782 282.743l54.257 4.36-28.782 16.123"/><path stroke="#734B4C" fill="#734B4C" d="M334.246 308.21l-44.692 1.045 12.485-22.153"/><path stroke="#51271D" fill="#51271D" d="M289.554 309.255l44.693-1.045-20.148 13.837"/><path stroke="#BD4530" fill="#BD4530" d="M562.624 292.51l18.207-1.72-13.122 19.602"/><path stroke="#795349" fill="#795349" d="M456.502 454.26l61.058-1.67 8.09 25.232z"/><path stroke="#09070B" fill="#09070B" d="M51.33 614.252L.913 678.593l55.515 108.393"/><path stroke="#2E405A" fill="#2E405A" d="M491.344 887.721l92.369-57.01-21.094 85.573"/></g></svg>