<svg width="1000" height="590" xmlns="http://www.w3.org/2000/svg"><g fill="none" fill-rule="evenodd"><path stroke="#FFF" d="M286.241 33.132L366.78.053l17.011 67.422-69.859 1.267z"/><path stroke="#FFF" d="M383.792 67.476l-57.915 83.512-25.7-17.716 13.754-64.531zM254.569 139.96l-13.394 31.091 47.419 16.63 6.515-32.174zM4.81 73.44h77.46l14.479 47.721L1.19 87.54zm77.461 0H203.17l1.448 47.721z"/><path stroke="#FFF" d="M82.271 73.44l14.479 47.721L204.617 158.4v-37.24z"/><path stroke="#FFF" d="M96.75 121.161l40.178 137.378 29.683 21.33 40.178-13.74-2.172-107.73z"/><path stroke="#FFF" d="M204.617 158.398l83.976 29.284-5.067 24.582-42.35 41.936-34.388 11.931zm-67.688 100.141l7.782 29.916 21.9-8.586z"/><path stroke="#FFF" d="M144.711 288.454l39.907 23.319 11.13-10.304-29.137-21.6z"/><path stroke="#FFF" d="M195.749 301.47l12.488 8.676v12.473l-23.62-10.846z"/><path stroke="#FFF" d="M208.236 310.146l48.053 27.385-9.684 50.431-37.011-18.978z"/><path stroke="#FFF" d="M246.605 387.963l-11.492 52.872-25.52-26.436v-45.416zm7.667-39.932l90.79 55.659-19.547 32.265-78.91-47.993 7.47-38.907"/><path stroke="#FFF" d="M325.514 435.955L232.262 589.69l-17.51-54.498 31.853-147.23zM434.92 132.007L421.889 190.3l17.917-6.235zm-15.474 69.954l-7.058 28.199 18.46 6.235 13.845-14.64-1.357-9.49zm40.45-84.867l18.189 27.385 46.693-48.534-15.745-5.966zm18.189 27.386l-38.278 39.585 51.308-16.809z"/><path stroke="#FFF" d="M439.806 184.066l3.53 28.198 16.559 4.88 31.22-49.89zm65.824-68.217l1.502 25.92 26.876-43.113-9.23-2.711z"/><path stroke="#FFF" d="M534.009 98.657l81.467 23.9-124.361 44.698z"/><path stroke="#FFF" d="M661.603 105.977l21.446 35.792-72.483 132.044-150.67-56.669 31.218-49.89z"/><path stroke="#FFF" d="M566.67 108.239l48.806 14.318 46.127-16.58L729.2 82.39z"/><path stroke="#FFF" d="M661.603 105.977l21.446 35.792 46.152-59.38z"/><path stroke="#FFF" d="M729.2 82.388l22.533 171.903-68.683-112.523zM610.565 273.813l141.168-19.522-68.683-112.522zm-71.305-26.818l-9.255 23.576 69.159 23.577 11.401-20.335zm-91.31-4.092l11.945 112.522 87.144 33.623 52.124-94.9zm0 0l-56.194 86.765 66.347 8.879z"/><path stroke="#FFF" d="M447.95 242.903l-17.102-6.507-46.695 47.72v42.3l7.603 3.252zm11.946 112.523l12.488 113.608 25.79 13.556 48.866-93.544zm91.764 36.567l-19.818 43.96 16.832 8.949 14.93-49.89zm58.905-118.18l50.494 76.46 90.674-95.982zm141.168-19.522l9.23 64.802-9.23 7.593-51.121-18.279z"/><path stroke="#FFF" d="M700.61 308.408l25.875 66.54 25.247-48.264zm25.876 66.54l42.621 46.093 40.18-33.62zm42.622 46.094l71.127-12.743-5.43 23.047zm71.127-12.744l66.783 9.219-4.886 28.198zm4.343 37.418l-63.797 33.622 7.602 54.228 109.404-50.703z"/><path stroke="#FFF" d="M897.788 482.862l-13.303 61.007-45.201-33.894zm91.216 9.218l-8.145 41.486 16.56-11.931zM729.2 82.388l214.197 42.75-163.249 173.89-28.415-44.737z"/><path stroke="#FFF" d="M895.396 176.268v29.488l69.718-56.397-21.718-24.22zm-63.868 97.148l-9.135 10.234 15.61-1.004zm47.537-23.654l8.293-22.855-30.307 31.382z"/><path d="M543 204c0 5.523-4.477 10-10 10-5.522 0-10-4.477-10-10s4.478-10 10-10c5.523 0 10 4.477 10 10m-287 42c0 5.523-4.477 10-10 10-5.522 0-10-4.477-10-10s4.478-10 10-10c5.523 0 10 4.477 10 10m248-46c0 5.523-4.477 10-10 10-5.522 0-10-4.477-10-10s4.478-10 10-10c5.523 0 10 4.477 10 10m385 336c0 5.523-4.477 10-10 10-5.522 0-10-4.477-10-10s4.478-10 10-10c5.523 0 10 4.477 10 10m107-37c0 5.523-4.477 10-10 10-5.522 0-10-4.477-10-10s4.478-10 10-10c5.523 0 10 4.477 10 10M436 159c0 5.523-4.477 10-10 10-5.522 0-10-4.477-10-10s4.478-10 10-10c5.523 0 10 4.477 10 10m13 19c0 5.523-4.477 10-10 10-5.522 0-10-4.477-10-10s4.478-10 10-10c5.523 0 10 4.477 10 10m57-28c0 5.523-4.477 10-10 10-5.522 0-10-4.477-10-10s4.478-10 10-10c5.523 0 10 4.477 10 10m334 119c0 5.523-4.477 10-10 10-5.522 0-10-4.477-10-10s4.478-10 10-10c5.523 0 10 4.477 10 10M487 134c0 5.523-4.477 10-10 10-5.522 0-10-4.477-10-10s4.478-10 10-10c5.523 0 10 4.477 10 10m65 116c0 5.523-4.477 10-10 10-5.522 0-10-4.477-10-10s4.478-10 10-10c5.523 0 10 4.477 10 10m-59-75c0 5.523-4.477 10-10 10-5.522 0-10-4.477-10-10s4.478-10 10-10c5.523 0 10 4.477 10 10m102 112c0 5.523-4.477 10-10 10-5.522 0-10-4.477-10-10s4.478-10 10-10c5.523 0 10 4.477 10 10m-462-72c0 5.523-4.477 10-10 10-5.522 0-10-4.477-10-10s4.478-10 10-10c5.523 0 10 4.477 10 10m126-23c0 5.523-4.477 10-10 10-5.522 0-10-4.477-10-10s4.478-10 10-10c5.523 0 10 4.477 10 10m417 118c0 5.523-4.477 10-10 10-5.522 0-10-4.477-10-10s4.478-10 10-10c5.523 0 10 4.477 10 10" fill="#FFF"/></g></svg>