<?xml version="1.0" encoding="UTF-8"?>
<svg width="880px" height="951px" viewBox="0 0 880 951" version="1.1" xmlns="http://www.w3.org/2000/svg" xmlns:xlink="http://www.w3.org/1999/xlink">
    <!-- Generator: Sketch 51.2 (57519) - http://www.bohemiancoding.com/sketch -->
    <title>Asset/Portrait/Border</title>
    <desc>Created with Sketch.</desc>
    <defs></defs>
    <g id="Asset/Portrait/Border" stroke="none" stroke-width="1" fill="none" fill-rule="evenodd">
        <g id="border" stroke="#FFFFFF">
            <polyline id="Shape" points="238.090075 284.190831 233.597313 328.940604 244.034179 307.007179"></polyline>
            <polyline id="Shape" points="254.644254 240.305911 270.529403 249.709236 238.090075 284.190831 254.644254 240.305911"></polyline>
            <polyline id="Shape" points="238.090075 284.190831 247.572239 283.247131 244.034179 307.007179"></polyline>
            <polyline id="Shape" points="270.529403 249.709236 247.572239 283.247131 238.090075 284.190831"></polyline>
            <polyline id="Shape" points="526.24903 123.755277 549.93597 147.728869 519.033358 184.009161"></polyline>
            <polyline id="Shape" points="575.18097 72.3092596 526.24903 123.755277 508.587463 102.078926"></polyline>
            <polyline id="Shape" points="575.18097 72.3092596 526.24903 123.755277 549.93597 147.728869"></polyline>
            <polyline id="Shape" points="477.502612 152.573852 408.663955 183.435878 441.475149 208.471439"></polyline>
            <polyline id="Shape" points="397.650821 95.6882132 485.911045 98.1546456 477.502612 152.573852 397.650821 95.6882132"></polyline>
            <polyline id="Shape" points="477.502612 152.573852 441.475149 208.471439 476.073433 241.188012"></polyline>
            <polyline id="Shape" points="519.033358 184.009161 476.073433 241.188012 477.502612 152.573852"></polyline>
            <path d="M477.502612,152.573852 C478.944104,153.842796 519.033358,184.009161 519.033358,184.009161 L526.249851,123.755277" id="Shape"></path>
            <polyline id="Shape" points="508.587463 102.078926 477.502612 152.573852 526.24903 123.755277"></polyline>
            <polyline id="Shape" points="485.911045 98.1546456 477.502612 152.573852 508.587463 102.078926"></polyline>
            <polyline id="Shape" points="322.250746 100.059293 331.399627 180.493078 397.650821 95.6882132"></polyline>
            <polyline id="Shape" points="397.650821 95.6882132 368.899776 180.957947 331.399627 180.493078"></polyline>
            <polyline id="Shape" points="293.762388 199.725994 297.825821 217.23249 324.198731 195.502752"></polyline>
            <polyline id="Shape" points="264.277463 211.373173 297.825821 217.23249 293.762388 199.725994"></polyline>
            <polyline id="Shape" points="265.350373 173.590681 293.762388 199.725994 331.399627 180.493078"></polyline>
            <polyline id="Shape" points="265.350373 173.590681 256.386194 198.300999 293.762388 199.725994"></polyline>
            <polyline id="Shape" points="293.762388 199.725994 324.198731 195.502752 331.399627 180.493078"></polyline>
            <polyline id="Shape" points="256.386194 198.300999 264.277463 211.373173 293.762388 199.725994"></polyline>
            <polyline id="Shape" points="270.529403 249.709236 247.572239 283.247131 301.855597 287.609998"></polyline>
            <polyline id="Shape" points="297.825821 217.23249 270.529403 249.709236 318.050224 271.484967 297.825821 217.23249"></polyline>
            <polyline id="Shape" points="318.050224 271.484967 354.390448 254.489335 334.080672 308.735242"></polyline>
            <polyline id="Shape" points="318.050224 271.484967 317.349179 227.577872 297.825821 217.23249"></polyline>
            <polyline id="Shape" points="317.349179 227.577872 318.050224 271.484967 354.390448 254.489335"></polyline>
            <polyline id="Shape" points="270.529403 249.709236 301.855597 287.609998 318.050224 271.484967"></polyline>
            <polyline id="Shape" points="301.855597 287.609998 334.080672 308.735242 318.050224 271.484967"></polyline>
            <path d="M269.521343,357.809279 C269.86694,357.809279 301.080672,362.434148 301.080672,362.434148 L282.571119,372.952008" id="Shape"></path>
            <path d="M282.57194,372.952008 C282.57194,372.952008 300.168657,384.787269 299.909254,384.787269 C299.649851,384.787269 270.784701,379.222808 270.784701,379.222808" id="Shape"></path>
            <polygon id="Shape" points="269.521343 357.809279 270.784701 379.222808 282.57194 372.952008"></polygon>
            <polyline id="Shape" points="601.629403 266.015779 599.685522 310.055929 580.79097 291.300201"></polyline>
            <polyline id="Shape" points="621.962985 298.737279 599.685522 310.055929 627.575448 310.98813"></polyline>
            <polyline id="Shape" points="601.629403 266.015779 599.685522 310.055929 621.962985 298.737279"></polyline>
            <polyline id="Shape" points="580.79097 291.300201 567.662388 310.919961 599.685522 310.055929"></polyline>
            <polyline id="Shape" points="567.662388 310.919961 585.75 331.654255 599.685522 310.055929"></polyline>
            <polyline id="Shape" points="567.662388 310.919961 566.432687 335.623708 585.75 331.654255"></polyline>
            <polyline id="Shape" points="469.420896 379.174349 489.685522 392.510168 526.295 366.452059 539.088657 372.859198 522.83903 394.667783"></polyline>
            <polyline id="Shape" points="539.088657 372.859198 536.269701 410.787885 522.83903 394.667783"></polyline>
            <polyline id="Shape" points="214.079701 665.620533 216.578507 796.194432 246.438582 704.87155"></polyline>
            <polyline id="Shape" points="246.438582 704.87155 216.578507 796.194432 266.350224 797.823115 246.438582 704.87155"></polyline>
            <polygon id="Shape" points="51.0186567 615.03444 56.1213433 787.914677 216.578507 796.194432"></polygon>
            <polyline id="Shape" points="51.0186567 615.03444 125.03306 567.440426 216.578507 796.194432"></polyline>
            <polyline id="Shape" points="125.03306 567.440426 214.079701 665.620533 216.578507 796.194432"></polyline>
            <polyline id="Shape" points="554.508358 589.039574 485.223134 639.858101 485.939776 611.86167"></polyline>
            <polyline id="Shape" points="485.223134 639.858101 554.508358 589.039574 546.567836 765.774278"></polyline>
            <polyline id="Shape" points="394.418134 661.661757 324.686343 669.199858 365.630149 626.803175"></polyline>
            <polygon id="Shape" points="365.630149 626.803175 458.267388 611.960229 394.418134 661.661757"></polygon>
            <path d="M225.917836,546.364462 L259.90291,575.192892 C259.90291,575.192892 242.447388,599.257651 242.447388,599.778369" id="Shape"></path>
            <path d="M259.90209,575.194535 C260.594104,575.021236 315.162313,621.197647 315.162313,621.197647 L242.447388,599.779191" id="Shape"></path>
            <polyline id="Shape" points="242.447388 599.779191 292.93903 644.795072 315.162313 621.197647"></polyline>
            <polyline id="Shape" points="242.447388 599.779191 249.989776 657.802361 292.93903 644.795072"></polyline>
            <polyline id="Shape" points="689.603134 697.806531 546.567836 765.774278 583.673955 831.675577 805.948945 784.757911"></polyline>
            <polyline id="Shape" points="554.508358 589.039574 546.567836 765.774278 605.759328 572.365078"></polyline>
            <polyline id="Shape" points="324.686343 669.199858 306.164478 726.451807 394.418134 661.661757"></polyline>
            <polyline id="Shape" points="292.93903 644.795072 324.686343 669.199858 300.3 686.363862 292.93903 644.795072"></polyline>
            <polyline id="Shape" points="249.989776 657.802361 300.3 686.363862 246.438582 704.87155"></polyline>
            <polyline id="Shape" points="315.162313 621.197647 324.686343 669.199858 365.630149 626.803175"></polyline>
            <polyline id="Shape" points="242.447388 599.779191 214.079701 665.620533 249.989776 657.802361"></polyline>
            <polyline id="Shape" points="185.345075 553.911597 193.551567 577.560766 125.03306 567.440426 185.345075 553.911597"></polyline>
            <polyline id="Shape" points="554.508358 589.039574 605.759328 572.365078 593.525522 552.033232"></polyline>
            <polyline id="Shape" points="653.793209 490.228691 668.324701 507.060881 649.018881 522.275064"></polyline>
            <polyline id="Shape" points="613.633358 498.273548 586.593881 525.663842 559.775224 481.531704"></polyline>
            <polyline id="Shape" points="582.164328 447.564257 613.633358 498.273548 620.607687 461.776426"></polyline>
            <path d="M506.441642,530.132659 C506.441642,530.132659 520.828657,551.464877 520.627537,551.234085 C520.426418,551.003293 559.776045,481.531704 559.776045,481.531704" id="Shape"></path>
            <polyline id="Shape" points="485.281418 541.411885 520.626716 551.234085 485.939776 611.86167 485.281418 541.411885"></polyline>
            <polyline id="Shape" points="536.269701 410.787885 549.82597 441.965299 536.297612 455.97296"></polyline>
            <polyline id="Shape" points="549.82597 441.965299 548.199776 466.992648 582.164328 447.564257"></polyline>
            <polyline id="Shape" points="595.07209 414.543795 617.891343 441.607202 582.164328 447.564257"></polyline>
            <path d="M517.487612,453.237133 L456.398209,454.908525" id="Shape"></path>
            <polyline id="Shape" points="479.409552 412.350041 484.824179 431.11891 456.398209 454.908525"></polyline>
            <polyline id="Shape" points="484.824179 431.11891 456.398209 454.908525 517.487612 453.237133"></polyline>
            <polyline id="Shape" points="479.409552 412.350041 456.398209 454.908525 431.026791 454.265429"></polyline>
            <polyline id="Shape" points="479.409552 412.350041 506.736343 409.674993 484.824179 431.11891 517.487612 453.237133 506.736343 409.674993 479.409552 412.350041 489.685522 392.510168"></polyline>
            <polyline id="Shape" points="469.420896 379.174349 489.685522 392.510168 526.295 366.452059"></polyline>
            <polyline id="Shape" points="489.685522 392.510168 479.409552 412.350041 506.736343 409.674993"></polyline>
            <polyline id="Shape" points="618.277985 260.520308 630.456791 258.99429 633.138657 273.626156"></polyline>
            <path d="M580.79097,291.300201 L567.662388,310.919961 L562.572836,293.022515 L545.021269,332.964265 L551.916791,280.165528 C552.262388,280.857903 545.021269,332.964265 545.021269,332.964265 L567.662388,310.917497" id="Shape"></path>
            <polyline id="Shape" points="551.918433 280.167992 562.575299 293.022515 545.021269 332.966729"></polyline>
            <polyline id="Shape" points="297.576269 528.278113 333.453507 580.510136 458.267388 611.960229"></polyline>
            <polyline id="Shape" points="388.390299 356.082038 377.607836 388.038886 469.420896 379.174349"></polyline>
            <path d="M303.452239,418.480395 C303.452239,419.432308 314.081194,467.445196 314.081194,467.445196 L372.278582,462.196122" id="Shape"></path>
            <polyline id="Shape" points="377.607836 388.038886 372.278582 462.195301 345.447612 388.727976"></polyline>
            <polyline id="Shape" points="347.12306 480.550223 311.062761 486.816095 380.351269 496.00259"></polyline>
            <polyline id="Shape" points="377.204776 331.757741 365.983134 367.640513 313.922761 322.585208"></polyline>
            <polyline id="Shape" points="273.059403 303.74817 267.457612 319.994756 289.365672 309.781607"></polyline>
            <polyline id="Shape" points="354.390448 254.489335 403.186119 250.075546 377.204776 331.757741"></polyline>
            <polyline id="Shape" points="425.076119 235.234243 476.073433 241.188012 448.829552 338.18295"></polyline>
            <polyline id="Shape" points="324.198731 195.502752 297.825821 217.23249 317.349179 227.577872"></polyline>
            <polyline id="Shape" points="549.93597 147.728869 635.272164 165.195941 570.645522 259.076423"></polyline>
            <polyline id="Shape" points="448.538955 25.9423021 393.449478 59.7150958 466.065075 64.3555696"></polyline>
            <polyline id="Shape" points="440.129701 0.730155972 448.538955 25.9423021 493.473955 8.49986969 440.129701 0.730155972"></polyline>
            <polyline id="Shape" points="493.473955 8.49986969 515.828582 44.3604659 554.366343 26.9763475 493.473955 8.49986969"></polyline>
            <polyline id="Shape" points="554.366343 26.9763475 575.18097 72.3092596 596.287836 69.8165449 554.366343 26.9763475"></polyline>
            <polyline id="Shape" points="515.828582 44.3604659 575.18097 72.3092596 492.255746 77.2749773 515.828582 44.3604659"></polyline>
            <polyline id="Shape" points="515.828582 44.3604659 466.065075 64.3555696 448.538955 25.9423021"></polyline>
            <polyline id="Shape" points="440.129701 0.730155972 391.538433 7.34591115 448.538955 25.9423021"></polyline>
            <polyline id="Shape" points="448.538955 25.9423021 393.449478 59.7150958 391.538433 7.34591115"></polyline>
            <polyline id="Shape" points="391.538433 7.34591115 343.715522 26.7693741 393.449478 59.7150958"></polyline>
            <polyline id="Shape" points="393.449478 59.7150958 466.065075 64.3555696 397.650821 95.6882132 393.449478 59.7150958"></polyline>
            <polyline id="Shape" points="466.065075 64.3555696 485.911045 98.1546456 492.255746 77.2749773 466.065075 64.3555696"></polyline>
            <polyline id="Shape" points="397.650821 95.6882132 408.663955 183.435878 477.502612 152.573852"></polyline>
            <polyline id="Shape" points="343.715522 26.7693741 356.899104 60.9265469 393.449478 59.7150958"></polyline>
            <polyline id="Shape" points="356.899104 60.9265469 397.650821 95.6882132 322.250746 100.059293 356.899104 60.9265469"></polyline>
            <polyline id="Shape" points="343.715522 26.7693741 302.534478 52.8660849 356.899104 60.9265469"></polyline>
            <polyline id="Shape" points="302.534478 52.8660849 301.986119 69.9052478 356.899104 60.9265469"></polyline>
            <polyline id="Shape" points="322.250746 100.059293 266.205746 121.997647 301.986119 69.9052478"></polyline>
            <polyline id="Shape" points="322.250746 100.059293 265.350373 173.590681 331.399627 180.493078 322.250746 100.059293"></polyline>
            <polyline id="Shape" points="266.205746 121.997647 265.350373 173.590681 241.012463 188.227475 266.205746 121.997647"></polyline>
            <polyline id="Shape" points="241.012463 188.227475 256.386194 198.300999 245.317239 208.538788 241.012463 188.227475"></polyline>
            <polyline id="Shape" points="241.012463 188.227475 231.694478 201.139491 245.317239 208.538788"></polyline>
            <polyline id="Shape" points="256.386194 198.300999 264.277463 211.373173 245.317239 208.538788"></polyline>
            <polyline id="Shape" points="245.317239 208.538788 246.283433 220.697651 264.277463 211.373173"></polyline>
            <polyline id="Shape" points="264.277463 211.373173 278.840149 225.530314 297.825821 217.23249"></polyline>
            <polyline id="Shape" points="264.277463 211.373173 262.515821 229.962993 278.840149 225.530314"></polyline>
            <polyline id="Shape" points="246.283433 220.697651 262.515821 229.962993 254.644254 240.305911 246.283433 220.697651"></polyline>
            <polyline id="Shape" points="278.840149 225.530314 270.529403 249.709236 262.515821 229.962993"></polyline>
            <polyline id="Shape" points="247.572239 283.247131 273.059403 303.74817 244.034179 307.007179"></polyline>
            <polyline id="Shape" points="331.399627 180.493078 350.485448 203.875317 324.198731 195.502752"></polyline>
            <polyline id="Shape" points="324.198731 195.502752 317.349179 227.577872 350.485448 203.875317"></polyline>
            <polyline id="Shape" points="317.349179 227.577872 350.366418 227.522843 350.485448 203.875317"></polyline>
            <polyline id="Shape" points="317.349179 227.577872 354.390448 254.489335 350.366418 227.522843"></polyline>
            <polyline id="Shape" points="374.469552 232.14032 354.390448 254.489335 403.186119 250.075546"></polyline>
            <polyline id="Shape" points="365.474179 214.812873 350.366418 227.522843 374.469552 232.14032"></polyline>
            <polyline id="Shape" points="368.899776 180.957947 350.485448 203.875317 392.088433 198.3511"></polyline>
            <polyline id="Shape" points="350.485448 203.875317 365.474179 214.812873 392.088433 198.3511"></polyline>
            <polyline id="Shape" points="365.474179 214.812873 374.469552 232.14032 393.127687 221.371957"></polyline>
            <polyline id="Shape" points="365.474179 214.812873 393.127687 221.371957 403.667164 214.325007"></polyline>
            <polyline id="Shape" points="365.474179 214.812873 403.667164 214.325007 392.088433 198.3511"></polyline>
            <polyline id="Shape" points="368.899776 180.957947 392.088433 198.3511 408.663955 183.435878"></polyline>
            <polyline id="Shape" points="414.191866 203.986195 403.667164 214.325007 425.076119 235.234243"></polyline>
            <polyline id="Shape" points="393.127687 221.371957 425.076119 235.234243 374.469552 232.14032"></polyline>
            <polyline id="Shape" points="374.469552 232.14032 403.186119 250.075546 425.076119 235.234243"></polyline>
            <path d="M441.477612,208.471439 C441.477612,208.471439 424.731343,234.657674 425.078582,235.235064 C425.425821,235.812454 476.076716,241.188833 476.076716,241.188833" id="Shape"></path>
            <polyline id="Shape" points="354.390448 254.489335 377.204776 331.757741 334.080672 308.735242"></polyline>
            <polyline id="Shape" points="403.186119 250.075546 377.204776 331.757741 448.829552 338.18295"></polyline>
            <polyline id="Shape" points="403.186119 250.075546 448.829552 338.18295 425.076119 235.234243"></polyline>
            <polyline id="Shape" points="476.073433 241.188012 448.829552 338.18295 510.345 256.371807"></polyline>
            <polyline id="Shape" points="476.073433 241.188012 510.345 256.371807 519.033358 184.009161"></polyline>
            <polyline id="Shape" points="492.255746 77.2749773 508.587463 102.078926 575.18097 72.3092596"></polyline>
            <polyline id="Shape" points="596.287836 69.8165449 619.88694 111.021489 549.93597 147.728869"></polyline>
            <polyline id="Shape" points="619.88694 111.021489 635.272164 165.195941 549.93597 147.728869"></polyline>
            <polyline id="Shape" points="519.033358 184.009161 549.93597 147.728869 570.645522 259.076423"></polyline>
            <path d="M519.033358,184.009161 C520.182612,183.835862 570.645522,259.078065 570.645522,259.078065 L510.345,256.372628" id="Shape"></path>
            <polyline id="Shape" points="635.272164 165.195941 570.645522 259.076423 607.099851 242.356754"></polyline>
            <polyline id="Shape" points="635.272164 165.195941 607.099851 242.356754 639.204254 236.025177 635.272164 165.195941"></polyline>
            <polyline id="Shape" points="607.099851 242.356754 630.456791 258.99429 639.204254 236.025177"></polyline>
            <polyline id="Shape" points="639.204254 236.025177 640.12694 259.583179 630.456791 258.99429"></polyline>
            <polyline id="Shape" points="607.099851 242.356754 618.277985 260.520308 630.456791 258.99429"></polyline>
            <polyline id="Shape" points="630.456791 258.99429 633.138657 273.626156 640.12694 259.583179"></polyline>
            <polyline id="Shape" points="633.138657 273.626156 618.277985 260.520308 621.962985 298.737279"></polyline>
            <polyline id="Shape" points="633.138657 273.626156 621.962985 298.737279 627.575448 310.98813 633.138657 273.626156"></polyline>
            <polyline id="Shape" points="618.277985 260.520308 601.629403 266.015779 621.962985 298.737279"></polyline>
            <polyline id="Shape" points="570.645522 259.076423 601.629403 266.015779 580.79097 291.300201"></polyline>
            <polyline id="Shape" points="570.645522 259.076423 580.79097 291.300201 562.575299 293.022515"></polyline>
            <polyline id="Shape" points="570.645522 259.076423 562.575299 293.022515 551.918433 280.167992"></polyline>
            <polyline id="Shape" points="570.645522 259.076423 551.918433 280.167992 510.345 256.371807"></polyline>
            <polyline id="Shape" points="510.345 256.371807 545.021269 332.966729 551.918433 280.167992"></polyline>
            <polyline id="Shape" points="567.662388 310.919961 545.021269 332.966729 566.432687 335.623708"></polyline>
            <polyline id="Shape" points="627.575448 310.98813 603.121791 346.44135 599.685522 310.055929"></polyline>
            <polyline id="Shape" points="585.75 331.654255 603.121791 346.44135 567.996493 371.095818"></polyline>
            <polyline id="Shape" points="603.121791 346.44135 579.738582 375.346164 567.996493 371.095818"></polyline>
            <path d="M585.75,331.654255 C585.175373,332.634914 567.995672,371.095818 567.995672,371.095818 L566.43597,335.623708" id="Shape"></path>
            <polyline id="Shape" points="545.021269 332.966729 567.996493 371.095818 526.295 366.452059"></polyline>
            <polyline id="Shape" points="545.021269 332.966729 526.295 366.452059 448.829552 338.18295 545.021269 332.966729"></polyline>
            <path d="M567.996493,371.095818 C567.996493,371.095818 559.831045,413.135226 560.695448,413.31181 C561.559851,413.488395 579.738582,375.344521 579.738582,375.344521" id="Shape"></path>
            <polyline id="Shape" points="567.996493 371.095818 536.269701 410.787885 560.695448 413.308525"></polyline>
            <polygon id="Shape" points="526.295 366.452059 489.685522 392.510168 522.83903 394.667783"></polygon>
            <polyline id="Shape" points="448.829552 338.18295 469.420896 379.174349 526.295 366.452059"></polyline>
            <polyline id="Shape" points="448.829552 338.18295 388.390299 356.082038 469.420896 379.174349"></polyline>
            <polyline id="Shape" points="377.204776 331.757741 388.390299 356.082038 365.983134 367.640513"></polyline>
            <polyline id="Shape" points="377.204776 331.757741 313.922761 322.585208 334.080672 308.735242"></polyline>
            <path d="M313.922761,322.585208 L289.365672,309.781607" id="Shape"></path>
            <polyline id="Shape" points="289.365672 309.781607 267.457612 319.994756 285.153657 340.41202"></polyline>
            <polyline id="Shape" points="289.365672 309.781607 285.153657 340.41202 313.922761 322.585208"></polyline>
            <polyline id="Shape" points="313.922761 322.585208 301.081493 362.434148 285.153657 340.41202"></polyline>
            <polyline id="Shape" points="273.059403 303.74817 267.457612 319.994756 244.034179 307.007179"></polyline>
            <polyline id="Shape" points="267.457612 319.994756 256.364851 338.984561 285.153657 340.41202"></polyline>
            <polyline id="Shape" points="244.034179 307.007179 256.364851 338.984561 233.597313 328.940604"></polyline>
            <polyline id="Shape" points="233.597313 328.940604 248.024552 396.392561 256.364851 338.984561"></polyline>
            <path d="M256.365672,338.984561 C256.365672,338.984561 268.83097,357.809279 269.522985,357.809279 C270.215,357.809279 285.154478,340.412841 285.154478,340.412841" id="Shape"></path>
            <polyline id="Shape" points="270.784701 379.222808 248.024552 396.392561 269.521343 357.809279"></polyline>
            <path d="M301.081493,362.434148 C301.687313,362.347909 365.983134,367.640513 365.983134,367.640513 L282.57194,372.952008" id="Shape"></path>
            <polyline id="Shape" points="282.57194 372.952008 299.909254 384.787269 365.983134 367.640513"></polyline>
            <path d="M270.784701,379.222808 C271.188582,379.222808 299.909254,384.787269 299.909254,384.787269 L248.024552,396.392561" id="Shape"></path>
            <polyline id="Shape" points="248.024552 396.392561 258.642836 422.827656 299.909254 384.787269"></polyline>
            <polyline id="Shape" points="299.909254 384.787269 303.452239 418.480395 258.642836 422.827656"></polyline>
            <polyline id="Shape" points="365.983134 367.640513 345.447612 388.727976 377.607836 388.038886"></polyline>
            <polyline id="Shape" points="365.983134 367.640513 377.607836 388.038886 388.390299 356.082038"></polyline>
            <polyline id="Shape" points="469.420896 379.174349 377.607836 388.038886 431.026791 454.265429 469.420896 379.174349"></polyline>
            <polyline id="Shape" points="345.447612 388.727976 303.452239 418.480395 372.278582 462.195301"></polyline>
            <polyline id="Shape" points="258.642836 422.827656 259.027015 442.458093 303.452239 418.480395"></polyline>
            <polyline id="Shape" points="314.081194 467.444375 259.027015 442.458093 264.285672 476.027198"></polyline>
            <polyline id="Shape" points="264.285672 476.027198 314.081194 467.444375 311.062761 486.816095"></polyline>
            <polyline id="Shape" points="264.285672 476.027198 311.062761 486.816095 297.576269 528.278113"></polyline>
            <polyline id="Shape" points="297.576269 528.278113 264.285672 476.027198 213.437761 509.813133"></polyline>
            <polyline id="Shape" points="225.917836 546.364462 213.437761 509.813133 297.576269 528.278113"></polyline>
            <polyline id="Shape" points="264.285672 476.027198 178.816493 492.378093 213.437761 509.813133"></polyline>
            <polyline id="Shape" points="178.816493 492.378093 191.269478 536.907751 213.437761 509.813133"></polyline>
            <polyline id="Shape" points="178.816493 492.378093 155.232164 497.973765 191.269478 536.907751"></polyline>
            <polyline id="Shape" points="191.269478 536.907751 185.345075 553.911597 205.226343 554.479131"></polyline>
            <polyline id="Shape" points="191.269478 536.907751 205.226343 554.479131 225.917836 546.364462 191.269478 536.907751"></polyline>
            <polyline id="Shape" points="225.917836 546.364462 297.576269 528.278113 259.90209 575.194535"></polyline>
            <polyline id="Shape" points="225.917836 546.364462 242.447388 599.779191 205.226343 554.479131"></polyline>
            <polyline id="Shape" points="185.345075 553.911597 193.551567 577.560766 205.226343 554.479131"></polyline>
            <polyline id="Shape" points="193.551567 577.560766 242.447388 599.779191 214.079701 665.620533 193.551567 577.560766"></polyline>
            <polyline id="Shape" points="214.079701 665.620533 249.989776 657.802361 246.438582 704.87155 214.079701 665.620533"></polyline>
            <polyline id="Shape" points="249.989776 657.802361 292.93903 644.795072 300.3 686.363862"></polyline>
            <polyline id="Shape" points="292.93903 644.795072 324.686343 669.199858 306.164478 726.451807"></polyline>
            <polyline id="Shape" points="300.3 686.363862 306.164478 726.451807 246.438582 704.87155"></polyline>
            <polyline id="Shape" points="381.96597 809.547499 306.164478 726.451807 394.418134 661.661757"></polyline>
            <polyline id="Shape" points="394.418134 661.661757 381.96597 809.547499 485.223134 639.858101"></polyline>
            <polyline id="Shape" points="485.223134 639.858101 394.418134 661.661757 458.267388 611.960229"></polyline>
            <polyline id="Shape" points="324.686343 669.199858 315.162313 621.197647 292.93903 644.795072"></polyline>
            <polyline id="Shape" points="297.576269 528.278113 458.267388 611.960229 380.351269 496.00259"></polyline>
            <polyline id="Shape" points="311.062761 486.816095 380.351269 496.00259 297.576269 528.278113"></polyline>
            <polyline id="Shape" points="314.081194 467.444375 347.12306 480.550223 311.062761 486.816095"></polyline>
            <polyline id="Shape" points="372.278582 462.195301 347.12306 480.550223 380.351269 496.00259"></polyline>
            <polyline id="Shape" points="431.026791 454.265429 372.278582 462.195301 380.351269 496.00259"></polyline>
            <polyline id="Shape" points="380.351269 496.00259 431.026791 454.265429 458.267388 611.960229"></polyline>
            <polyline id="Shape" points="469.420896 379.174349 489.685522 392.510168 479.409552 412.350041"></polyline>
            <polyline id="Shape" points="469.420896 379.174349 479.409552 412.350041 464.540672 406.048853 469.420896 379.174349"></polyline>
            <polyline id="Shape" points="464.540672 406.048853 431.026791 454.265429 479.409552 412.350041"></polyline>
            <polyline id="Shape" points="489.685522 392.510168 506.736343 409.674993 522.83903 394.667783"></polyline>
            <path d="M536.269701,410.787885 L506.738806,409.675814 C506.738806,409.675814 517.144478,453.237955 517.492537,453.237955 C517.840597,453.237955 536.274627,410.788707 536.274627,410.788707" id="Shape"></path>
            <polyline id="Shape" points="517.487612 453.237133 536.297612 455.97296 536.269701 410.787885"></polyline>
            <polyline id="Shape" points="536.269701 410.787885 549.82597 441.965299 560.695448 413.308525"></polyline>
            <polyline id="Shape" points="549.82597 441.965299 536.297612 455.97296 548.199776 466.992648"></polyline>
            <polyline id="Shape" points="536.297612 455.97296 525.580821 478.490346 548.199776 466.992648"></polyline>
            <polyline id="Shape" points="549.82597 441.965299 582.164328 447.564257 560.695448 413.308525"></polyline>
            <polyline id="Shape" points="560.695448 413.308525 595.07209 414.543795 591.208955 425.674361"></polyline>
            <path d="M560.695448,413.308525 C561.73306,413.077733 591.208955,425.674361 591.208955,425.674361 L582.164328,447.564257" id="Shape"></path>
            <polyline id="Shape" points="617.891343 441.607202 620.607687 461.776426 582.164328 447.564257"></polyline>
            <polyline id="Shape" points="617.891343 441.607202 645.836269 457.040679 620.607687 461.776426"></polyline>
            <polyline id="Shape" points="645.836269 457.040679 664.172612 477.983589 620.607687 461.776426"></polyline>
            <path d="M664.172612,477.983589 C663.480597,478.502665 653.793209,490.229512 653.793209,490.229512 L620.607687,461.776426" id="Shape"></path>
            <polyline id="Shape" points="613.633358 498.273548 653.793209 490.228691 649.018881 522.275064"></polyline>
            <polyline id="Shape" points="613.633358 498.273548 649.018881 522.275064 593.525522 552.033232"></polyline>
            <polyline id="Shape" points="586.593881 525.663842 593.525522 552.033232 548.571642 564.307901"></polyline>
            <polyline id="Shape" points="613.633358 498.273548 559.775224 481.531704 582.164328 447.564257"></polyline>
            <polyline id="Shape" points="586.593881 525.663842 548.571642 564.307901 520.626716 551.234085"></polyline>
            <polyline id="Shape" points="586.593881 525.663842 520.626716 551.234085 559.775224 481.531704"></polyline>
            <polyline id="Shape" points="548.199776 466.992648 559.775224 481.531704 525.580821 478.490346"></polyline>
            <polyline id="Shape" points="559.775224 481.531704 506.441642 530.132659 525.580821 478.490346"></polyline>
            <polyline id="Shape" points="485.281418 541.411885 506.441642 530.132659 520.626716 551.234085"></polyline>
            <polyline id="Shape" points="485.281418 541.411885 458.267388 611.960229 485.939776 611.86167"></polyline>
            <polyline id="Shape" points="520.626716 551.234085 554.508358 589.039574 485.939776 611.86167"></polyline>
            <polyline id="Shape" points="548.571642 564.307901 554.508358 589.039574 593.525522 552.033232"></polyline>
            <polyline id="Shape" points="605.759328 572.365078 649.018881 522.275064 790.761269 572.020122"></polyline>
            <polyline id="Shape" points="381.96597 809.547499 546.567836 765.774278 485.223134 639.858101"></polyline>
            <polyline id="Shape" points="458.267388 611.960229 485.223134 639.858101 485.939776 611.86167"></polyline>
            <polyline id="Shape" points="546.567836 765.774278 605.759328 572.365078 689.603134 697.806531"></polyline>
            <polyline id="Shape" points="605.759328 572.365078 790.761269 572.020122 689.603134 697.806531"></polyline>
            <polyline id="Shape" points="689.603134 697.806531 805.872313 785.020336 790.761269 572.020122"></polyline>
            <polyline id="Shape" points="805.872313 785.020336 852.618209 676.550697 790.761269 572.020122"></polyline>
            <polyline id="Shape" points="790.761269 572.020122 873.915522 642.143842 852.618209 676.550697"></polyline>
            <polyline id="Shape" points="790.761269 572.020122 879.864552 616.361698 873.915522 642.143842"></polyline>
            <polyline id="Shape" points="333.453507 580.510136 315.162313 621.197647 365.630149 626.803175"></polyline>
            <polyline id="Shape" points="205.226343 554.479131 193.551567 577.560766 242.447388 599.779191"></polyline>
            <polyline id="Shape" points="213.437761 509.813133 191.269478 536.907751 225.917836 546.364462"></polyline>
            <polyline id="Shape" points="520.626716 551.234085 548.571642 564.307901 554.508358 589.039574"></polyline>
            <polyline id="Shape" points="649.018881 522.275064 605.759328 572.365078 593.525522 552.033232"></polyline>
            <polyline id="Shape" points="548.199776 466.992648 582.164328 447.564257 559.775224 481.531704"></polyline>
            <path d="M620.607687,461.776426 C620.953284,462.959131 613.402687,497.811964 613.630075,498.273548 C613.857463,498.735131 653.789925,490.228691 653.789925,490.228691" id="Shape"></path>
            <path d="M517.487612,453.237133 C518.006418,453.237133 536.297612,455.97296 536.297612,455.97296 L525.580821,478.490346" id="Shape"></path>
            <polyline id="Shape" points="539.088657 372.859198 567.996493 371.095818 536.269701 410.787885"></polyline>
            <polyline id="Shape" points="522.83903 394.667783 506.736343 409.674993 536.269701 410.787885"></polyline>
            <polyline id="Shape" points="469.420896 379.174349 464.540672 406.048853 431.026791 454.265429"></polyline>
            <polyline id="Shape" points="377.607836 388.038886 372.278582 462.195301 431.026791 454.265429"></polyline>
            <polyline id="Shape" points="314.081194 467.444375 347.12306 480.550223 372.278582 462.195301"></polyline>
            <polyline id="Shape" points="303.452239 418.480395 259.027015 442.458093 314.081194 467.444375"></polyline>
            <polyline id="Shape" points="377.204776 331.757741 388.390299 356.082038 448.829552 338.18295"></polyline>
            <polyline id="Shape" points="313.922761 322.585208 301.081493 362.434148 365.983134 367.640513"></polyline>
            <polyline id="Shape" points="265.350373 173.590681 241.012463 188.227475 256.386194 198.300999"></polyline>
            <polyline id="Shape" points="264.277463 211.373173 246.283433 220.697651 262.515821 229.962993"></polyline>
            <polyline id="Shape" points="262.515821 229.962993 254.644254 240.305911 270.529403 249.709236"></polyline>
            <polyline id="Shape" points="244.034179 307.007179 256.364851 338.984561 267.457612 319.994756"></polyline>
            <polyline id="Shape" points="285.153657 340.41202 269.521343 357.809279 301.081493 362.434148"></polyline>
            <polyline id="Shape" points="256.364851 338.984561 248.024552 396.392561 269.521343 357.809279"></polyline>
            <polyline id="Shape" points="510.345 256.371807 448.829552 338.18295 545.021269 332.966729"></polyline>
            <polyline id="Shape" points="545.021269 332.966729 566.432687 335.623708 567.996493 371.095818"></polyline>
            <polyline id="Shape" points="599.685522 310.055929 585.75 331.654255 603.121791 346.44135"></polyline>
            <polygon id="Shape" points="607.099851 242.356754 570.645522 259.076423 601.629403 266.015779"></polygon>
            <polyline id="Shape" points="607.099851 242.356754 618.277985 260.520308 601.629403 266.015779"></polyline>
            <polyline id="Shape" points="414.191866 203.986195 425.076119 235.234243 441.475149 208.471439"></polyline>
            <polyline id="Shape" points="350.366418 227.522843 354.390448 254.489335 374.469552 232.14032"></polyline>
            <polyline id="Shape" points="331.399627 180.493078 350.485448 203.875317 368.899776 180.957947"></polyline>
            <polyline id="Shape" points="350.485448 203.875317 350.366418 227.522843 365.474179 214.812873"></polyline>
            <polyline id="Shape" points="322.250746 100.059293 266.205746 121.997647 265.350373 173.590681"></polyline>
            <polyline id="Shape" points="301.986119 69.9052478 322.250746 100.059293 356.899104 60.9265469"></polyline>
            <polyline id="Shape" points="356.899104 60.9265469 397.650821 95.6882132 393.449478 59.7150958"></polyline>
            <path d="M466.065075,64.3555696 C465.603731,64.0097927 397.650821,95.6882132 397.650821,95.6882132 L485.911045,98.1521816" id="Shape"></path>
            <polyline id="Shape" points="466.065075 64.3555696 492.255746 77.2749773 515.828582 44.3604659"></polyline>
            <polyline id="Shape" points="554.366343 26.9763475 515.828582 44.3604659 575.18097 72.3092596"></polyline>
            <polyline id="Shape" points="493.473955 8.49986969 448.538955 25.9423021 515.828582 44.3604659"></polyline>
            <polyline id="Shape" points="613.633358 498.273548 593.525522 552.033232 586.593881 525.663842"></polyline>
            <polyline id="Shape" points="456.398209 454.908525 485.281418 541.411885 506.441642 530.132659 456.398209 454.908525"></polyline>
            <polyline id="Shape" points="431.026791 454.265429 485.281418 541.411885 458.267388 611.960229"></polyline>
            <polyline id="Shape" points="306.164478 726.451807 266.350224 797.823115 246.438582 704.87155"></polyline>
            <polyline id="Shape" points="297.576269 528.278113 333.453507 580.510136 259.90209 575.194535"></polyline>
            <polyline id="Shape" points="458.267388 611.960229 333.453507 580.510136 365.630149 626.803175"></polyline>
            <polyline id="Shape" points="301.855597 287.609998 289.365672 309.781607 273.059403 303.74817"></polyline>
            <polyline id="Shape" points="397.650821 95.6882132 368.899776 180.957947 408.663955 183.435878"></polyline>
            <polyline id="Shape" points="408.663955 183.435878 414.191866 203.986195 392.088433 198.3511"></polyline>
            <polyline id="Shape" points="408.663955 183.435878 414.191866 203.986195 441.475149 208.471439"></polyline>
            <polyline id="Shape" points="575.18097 72.3092596 549.93597 147.728869 596.287836 69.8165449"></polyline>
            <path d="M492.255746,77.2749773 C492.385448,77.4482764 508.591567,102.078926 508.591567,102.078926 L485.915149,98.1546456" id="Shape"></path>
            <polyline id="Shape" points="595.07209 414.543795 591.208955 425.674361 617.891343 441.607202"></polyline>
            <polyline id="Shape" points="259.90209 575.194535 333.453507 580.510136 315.162313 621.197647"></polyline>
            <polyline id="Shape" points="125.03306 567.440426 214.079701 665.620533 193.551567 577.560766"></polyline>
            <polyline id="Shape" points="431.026791 454.265429 456.398209 454.908525 485.281418 541.411885"></polyline>
            <polygon id="Shape" points="456.398209 454.908525 506.441642 530.132659 525.580821 478.490346"></polygon>
            <polyline id="Shape" points="479.409552 412.350041 484.824179 431.11891 506.736343 409.674993"></polyline>
            <polyline id="Shape" points="526.295 366.452059 539.088657 372.859198 567.996493 371.095818"></polyline>
            <polyline id="Shape" points="299.909254 384.787269 345.447612 388.727976 365.983134 367.640513"></polyline>
            <polyline id="Shape" points="299.909254 384.787269 303.452239 418.480395 345.447612 388.727976"></polyline>
            <polyline id="Shape" points="392.088433 198.3511 403.667164 214.325007 414.191866 203.986195"></polyline>
            <polyline id="Shape" points="403.667164 214.325007 393.127687 221.371957 425.076119 235.234243"></polyline>
            <polyline id="Shape" points="278.840149 225.530314 270.529403 249.709236 297.825821 217.23249"></polyline>
            <polyline id="Shape" points="247.572239 283.247131 301.855597 287.609998 273.059403 303.74817"></polyline>
            <polyline id="Shape" points="334.080672 308.735242 289.365672 309.781607 301.855597 287.609998"></polyline>
            <polyline id="Shape" points="289.365672 309.781607 334.080672 308.735242 313.922761 322.585208"></polyline>
            <polyline id="Shape" points="562.575299 293.022515 580.79097 291.300201 567.662388 310.919961"></polyline>
            <polyline id="Shape" points="456.398209 454.908525 517.487612 453.237133 525.580821 478.490346"></polyline>
            <polyline id="Shape" points="51.0186567 615.03444 0.577910448 679.430255 56.1213433 787.914677"></polyline>
            <polyline id="Stroke-61" points="266.550766 797.048832 271.10359 829.339561 216.804455 795.422409"></polyline>
            <polygon id="Fill-72" points="362.269159 950.51607 430.619749 895.611181 382.10731 808.750881"></polygon>
            <polyline id="Fill-73" points="382.107656 808.750535 338.274496 863.568522 362.269332 950.515741"></polyline>
            <polyline id="Fill-82" points="306.344989 725.811974 287.646399 882.144499 338.274669 863.568522"></polyline>
            <polyline id="Fill-250" points="306.344989 725.811974 271.103813 829.339933 287.646399 882.144499"></polyline>
            <polygon id="Stroke-294" points="430.619402 895.611267 455.418305 823.304299 491.34451 887.788205"></polygon>
            <polyline id="Fill-326" points="382.107656 808.750535 430.619229 895.610852 455.418909 823.304653"></polyline>
            <polyline id="Fill-370" points="306.344989 725.811974 338.274669 863.568522 382.107829 808.750535"></polyline>
            <polyline id="Fill-387" points="306.344989 725.811974 266.551113 797.049178 271.103813 829.339933"></polyline>
            <polygon id="Fill-406" points="491.344063 887.787946 583.712519 830.836989 562.618792 916.320856"></polygon>
            <polyline id="Fill-295" points="382.107656 808.750535 455.418909 823.304653 546.624774 765.060152"></polyline>
            <path d="M689.767978,697.677872 L583.416078,831.373272" id="Path-2"></path>
            <path d="M455.418736,823.30448 C455.418736,823.30448 477.769632,821.987547 522.471425,819.35368 C501.719851,864.976305 491.344063,887.787617 491.344063,887.787617" id="Fill-6"></path>
            <polyline id="Fill-300" points="546.62512 765.060325 522.488038 819.557436 583.713039 830.836297"></polyline>
        </g>
    </g>
</svg>