<?xml version="1.0" encoding="UTF-8"?>
<svg width="880px" height="951px" viewBox="0 0 880 951" version="1.1" xmlns="http://www.w3.org/2000/svg" xmlns:xlink="http://www.w3.org/1999/xlink">
    <!-- Generator: Sketch 51.2 (57519) - http://www.bohemiancoding.com/sketch -->
    <title>Asset/Portrait/Fill</title>
    <desc>Created with Sketch.</desc>
    <defs></defs>
    <g id="Asset/Portrait/Fill" stroke="none" stroke-width="1" fill="none" fill-rule="evenodd">
        <g id="fill">
            <path d="M455.418736,823.170064 C455.418736,823.170064 519.998439,819.181104 521.380941,819.181104 C522.764137,819.181104 491.344063,887.721078 491.344063,887.721078" id="Fill-6" stroke="#364D6E" fill="#364D6E"></path>
            <polygon id="Fill-8" stroke="#906F68" fill="#906F68" points="238.3047 283.685525 233.814164 328.398355 244.246656 306.483493"></polygon>
            <polygon id="Fill-9" stroke="#755858" fill="#755858" points="254.850922 239.837963 270.727884 249.232422 238.304354 283.685179"></polygon>
            <polyline id="Fill-10" stroke="#7A5860" fill="#7A5860" points="238.3047 283.685525 247.782047 282.74336 244.246656 306.483493"></polyline>
            <polyline id="Fill-11" stroke="#825560" fill="#825560" points="270.728057 249.232595 247.782739 282.743187 238.304527 283.685352"></polyline>
            <polyline id="Fill-12" stroke="#4E3228" fill="#4E3228" points="526.317189 123.384812 549.992027 147.33901 519.104418 183.588115"></polyline>
            <polyline id="Fill-13" stroke="#42251B" fill="#42251B" points="575.224085 71.9822642 526.317189 123.384985 508.66448 101.726794"></polyline>
            <polyline id="Fill-14" stroke="#542E21" fill="#542E21" points="575.224085 71.9822642 526.317189 123.384985 549.992027 147.338491"></polyline>
            <polyline id="Fill-15" stroke="#7D5755" fill="#7D5755" points="477.595054 152.179383 408.792346 183.014503 441.58609 208.02985"></polyline>
            <polygon id="Fill-16" stroke="#70494E" fill="#70494E" points="397.784273 95.3413746 485.999333 97.8057249 477.595227 152.17921"></polygon>
            <polyline id="Fill-17" stroke="#724B45" fill="#724B45" points="477.595054 152.179383 441.58609 208.02985 476.166664 240.718991"></polyline>
            <polyline id="Fill-18" stroke="#795551" fill="#795551" points="519.104591 183.588115 476.166664 240.719684 477.595054 152.17921"></polyline>
            <path d="M477.595054,152.179383 C479.035911,153.447149 519.104591,183.588289 519.104591,183.588289 L526.317362,123.384985" id="Fill-19" stroke="#5C3D3D" fill="#5C3D3D"></path>
            <polyline id="Fill-20" stroke="#543A3D" fill="#543A3D" points="508.66448 101.726794 477.594708 152.17921 526.317189 123.384812"></polyline>
            <polyline id="Fill-21" stroke="#64474B" fill="#64474B" points="485.999506 97.8060713 477.5954 152.179556 508.664307 101.726967"></polyline>
            <polyline id="Fill-22" stroke="#755455" fill="#755455" points="322.423162 99.7092792 331.566484 180.075433 397.783926 95.3410282"></polyline>
            <polyline id="Fill-23" stroke="#785A5C" fill="#785A5C" points="397.784273 95.3413746 369.04782 180.539415 331.56683 180.074914"></polyline>
            <polyline id="Fill-24" stroke="#785C59" fill="#785C59" points="293.948699 199.291616 298.010839 216.783324 324.369471 195.071963"></polyline>
            <polyline id="Fill-25" stroke="#492A26" fill="#492A26" points="264.47909 210.929605 298.01032 216.784017 293.948872 199.291269"></polyline>
            <polyline id="Fill-26" stroke="#7D6059" fill="#7D6059" points="265.551638 173.178231 293.948352 199.291616 331.566484 180.074914"></polyline>
            <polyline id="Fill-27" stroke="#3F2420" fill="#3F2420" points="265.551638 173.178231 256.591345 197.867803 293.948352 199.291616"></polyline>
            <polyline id="Fill-28" stroke="#71534D" fill="#71534D" points="293.948699 199.291616 324.369471 195.071963 331.566657 180.074914"></polyline>
            <polyline id="Fill-29" stroke="#53332D" fill="#53332D" points="256.591518 197.867803 264.478744 210.929778 293.948526 199.291616"></polyline>
            <polyline id="Fill-30" stroke="#724B51" fill="#724B51" points="270.728057 249.232595 247.782739 282.743187 302.038348 287.102432"></polyline>
            <polygon id="Fill-31" stroke="#6D4B4A" fill="#6D4B4A" points="298.010493 216.783844 270.727884 249.232422 318.223706 270.989852"></polygon>
            <polyline id="Fill-32" stroke="#674242" fill="#674242" points="318.224052 270.990025 354.545742 254.009579 334.246295 308.209006"></polyline>
            <polyline id="Fill-33" stroke="#6A4845" fill="#6A4845" points="318.224052 270.990025 317.523277 227.119948 298.010839 216.784017"></polyline>
            <polyline id="Fill-34" stroke="#5D3E3C" fill="#5D3E3C" points="317.523451 227.119948 318.224226 270.990025 354.545915 254.009579"></polyline>
            <polyline id="Fill-35" stroke="#6B484C" fill="#6B484C" points="270.728057 249.232595 302.038348 287.102432 318.223879 270.990025"></polyline>
            <polyline id="Fill-36" stroke="#603B3D" fill="#603B3D" points="302.038348 287.102085 334.246122 308.209699 318.223879 270.989852"></polyline>
            <path d="M269.720618,357.241939 C270.065897,357.241939 301.263807,361.863051 301.263807,361.863051 L282.764523,372.372 L269.720618,357.241939 Z" id="Fill-37" stroke="#653D3D" fill="#653D3D"></path>
            <path d="M282.764176,372.372347 C282.764176,372.372347 300.351951,384.197557 300.092558,384.197557 C299.833339,384.197557 270.982948,378.637744 270.982948,378.637744" id="Fill-38" stroke="#694640" fill="#694640"></path>
            <polyline id="Fill-39" stroke="#5A3939" fill="#5A3939" points="269.720618 357.241939 270.982428 378.637571 282.764523 372.372"></polyline>
            <polyline id="Fill-40" stroke="#B7645A" fill="#B7645A" points="601.658733 265.526161 599.715714 309.529249 580.830805 290.789345"></polyline>
            <polyline id="Fill-41" stroke="#D68768" fill="#D68768" points="621.982076 298.219632 599.715887 309.52873 627.591566 310.461023"></polyline>
            <polyline id="Fill-42" stroke="#B3584C" fill="#B3584C" points="601.658733 265.526161 599.715714 309.529249 621.981902 298.219286"></polyline>
            <polyline id="Fill-43" stroke="#FB6D49" fill="#FB6D49" points="580.831151 290.789172 567.709324 310.392439 599.716061 309.529249"></polyline>
            <polyline id="Fill-44" stroke="#FC7E5F" fill="#FC7E5F" points="567.709324 310.392265 585.787658 331.109157 599.716061 309.528903"></polyline>
            <polyline id="Fill-45" stroke="#CE5C4F" fill="#CE5C4F" points="567.709324 310.392265 566.480241 335.075256 585.787658 331.109157"></polyline>
            <polyline id="Fill-46" stroke="#FBC47D" fill="#FBC47D" points="469.518219 378.58977 489.772471 391.913438 526.363249 365.878163 539.149494 372.279862 522.908205 394.069333"></polyline>
            <polyline id="Fill-47" stroke="#C57A5C" fill="#C57A5C" points="539.150013 372.279689 536.332368 410.176371 522.908551 394.069852"></polyline>
            <polyline id="Fill-58" stroke="#1D1C29" fill="#1D1C29" points="214.307094 664.794554 216.804741 795.258773 246.649586 704.012691"></polyline>
            <polygon id="Fill-59" stroke="#08070E" fill="#08070E" points="246.649586 704.012691 216.804914 795.258773 266.550247 796.886951"></polygon>
            <polyline id="Stroke-61" stroke="#445472" fill="#445472" points="266.550766 796.886778 271.10359 829.211498 216.804455 795.258643"></polyline>
            <polyline id="Stroke-63" stroke="#141726" fill="#141726" points="51.3293603 614.251559 56.4294423 786.985701 216.804704 795.25932"></polyline>
            <polygon id="Stroke-64" stroke="#101019" fill="#101019" points="51.3293603 614.251559 125.168965 566.667176 216.804704 795.25932"></polygon>
            <polyline id="Stroke-65" stroke="#13141D" fill="#13141D" points="125.169268 566.667204 214.307478 664.794352 216.804188 795.259348"></polyline>
            <polygon id="Fill-72" stroke="#4C5E79" fill="#4C5E79" points="362.269159 950.515561 430.619749 895.552877 382.10731 808.601145"></polygon>
            <polyline id="Fill-73" stroke="#2E4660" fill="#2E4660" points="382.107656 808.600799 338.274496 863.476488 362.269332 950.515232"></polyline>
            <polyline id="Fill-74" stroke="#131117" fill="#131117" points="554.562043 588.27846 485.311372 639.053359 486.028597 611.081278"></polyline>
            <polyline id="Fill-75" stroke="#08080E" fill="#08080E" points="485.311718 639.053706 554.562389 588.278807 546.62512 764.864946"></polyline>
            <polygon id="Fill-76" stroke="#100E1A" fill="#100E1A" points="394.553123 660.83902 324.857779 668.370798 365.780653 626.009743"></polygon>
            <polyline id="Fill-77" stroke="#0A070A" fill="#0A070A" points="365.780307 626.01009 458.370233 611.179478 394.552777 660.839366"></polyline>
            <path d="M226.139405,545.639433 L260.106302,574.444395 C260.106302,574.444395 242.659653,598.489866 242.659653,599.009269" id="Fill-78" stroke="#0B0B10" fill="#0B0B10"></path>
            <path d="M260.106302,574.444395 C260.7979,574.271203 315.338355,620.408884 315.338355,620.408884 L242.659653,599.009269" id="Fill-79" stroke="#0E0E12" fill="#0E0E12"></path>
            <polyline id="Fill-80" stroke="#190D10" fill="#190D10" points="242.659826 599.008923 293.125673 643.986909 315.338355 620.409404"></polyline>
            <polyline id="Fill-81" stroke="#1C0F12" fill="#1C0F12" points="242.659826 599.008923 250.199175 656.983244 293.125673 643.986909"></polyline>
            <polyline id="Fill-82" stroke="#151834" fill="#151834" points="306.344989 725.574934 287.646399 882.07202 338.274669 863.476488"></polyline>
            <polyline id="Fill-91" stroke="#11111C" fill="#11111C" points="689.587215 696.953555 546.624947 764.864253 583.712866 830.710155"></polyline>
            <polyline id="Fill-92" stroke="#100E1A" fill="#100E1A" points="554.562043 588.27846 546.624774 764.864599 605.786847 571.6179"></polyline>
            <polyline id="Fill-93" stroke="#293952" fill="#293952" points="546.62512 764.864599 455.418389 823.169718 521.381461 819.180757"></polyline>
            <polyline id="Fill-94" stroke="#09080D" fill="#09080D" points="324.857433 668.371144 306.344989 725.574934 394.552777 660.839366"></polyline>
            <polygon id="Fill-95" stroke="#070709" fill="#070709" points="293.12602 643.987083 324.857952 668.37149 300.483205 685.520971"></polygon>
            <polyline id="Fill-96" stroke="#0B0D24" fill="#0B0D24" points="250.199002 656.983417 300.482686 685.520971 246.649586 704.013211"></polyline>
            <polyline id="Fill-97" stroke="#09070B" fill="#09070B" points="315.338182 620.409057 324.857433 668.370971 365.780307 626.009917"></polyline>
            <polyline id="Fill-98" stroke="#08090D" fill="#08090D" points="242.659826 599.008923 214.30744 664.7949 250.199175 656.983244"></polyline>
            <polyline id="Fill-99" stroke="#181929" fill="#181929" points="185.761636 553.061233 193.789294 576.808641 125.169441 566.667378"></polyline>
            <polyline id="Fill-100" stroke="#0D0D12" fill="#0D0D12" points="554.562043 588.27846 605.786847 571.6179 593.558521 551.303161"></polyline>
            <polyline id="Fill-101" stroke="#AB9387" fill="#AB9387" points="653.796259 489.55048 668.320329 506.368472 649.024339 521.569888"></polyline>
            <polyline id="Fill-102" stroke="#85654C" fill="#85654C" points="613.656757 497.588152 586.631117 524.955447 559.826254 480.860394"></polyline>
            <polyline id="Fill-103" stroke="#C09D7C" fill="#C09D7C" points="582.203437 446.921671 613.656411 497.588325 620.627105 461.121864"></polyline>
            <path d="M506.519558,529.420859 C506.519558,529.420859 520.899213,550.734224 520.698175,550.504572 C520.496271,550.27388 559.825908,480.86074 559.825908,480.86074" id="Fill-104" stroke="#1C1113" fill="#1C1113"></path>
            <polygon id="Fill-105" stroke="#171218" fill="#171218" points="485.370246 540.690642 520.697482 550.503706 486.028251 611.081278"></polygon>
            <polyline id="Fill-106" stroke="#FDFB97" fill="#FDFB97" points="536.332541 410.176197 549.881032 441.327393 536.360419 455.32322"></polyline>
            <polyline id="Fill-107" stroke="#1A0E11" fill="#1A0E11" points="549.881378 441.32722 548.256106 466.333561 582.203264 446.921498"></polyline>
            <polyline id="Fill-108" stroke="#AB8B71" fill="#AB8B71" points="595.105179 413.92927 617.91197 440.970098 582.203264 446.922018"></polyline>
            <path d="M517.560185,452.590075 L456.502019,454.260167" id="Fill-109" stroke="#795349" fill="#FDBC79"></path>
            <polyline id="Fill-110" stroke="#FDBC79" fill="#FDBC79" points="479.501536 411.737178 484.913452 430.490244 456.502019 454.259993"></polyline>
            <polyline id="Fill-111" stroke="#775243" fill="#775243" points="484.912933 430.490418 456.5015 454.259993 517.560531 452.590075"></polyline>
            <polyline id="Fill-112" stroke="#C0824E" fill="#C0824E" points="479.501536 411.737178 456.502019 454.259993 431.142689 453.617278"></polyline>
            <polyline id="Fill-113" stroke="#845847" fill="#845847" points="479.501536 411.737178 506.814448 409.064477 484.913452 430.490244 517.560185 452.589902 506.814448 409.064477 479.501536 411.737178 489.772298 391.913957"></polyline>
            <polyline id="Fill-114" stroke="#FBCC8C" fill="#FBCC8C" points="469.518219 378.58977 489.772471 391.913438 526.363249 365.878163"></polyline>
            <polyline id="Fill-115" stroke="#FDCB78" fill="#FDCB78" points="489.771952 391.913611 479.501363 411.736831 506.814101 409.063958"></polyline>
            <polyline id="Fill-116" stroke="#FCFBAF" fill="#FCFBAF" points="618.299154 260.035452 630.471722 258.510669 633.15136 273.129467"></polyline>
            <path d="M580.831151,290.789172 L567.709324,310.392439 L562.624679,292.509316 L545.079675,332.420741 L551.973314,279.666429 C552.319632,280.358159 545.079675,332.420741 545.079675,332.420741 L567.709324,310.392439" id="Fill-117" stroke="#945A58" fill="#945A58"></path>
            <polyline id="Fill-118" stroke="#815B5A" fill="#815B5A" points="551.973487 279.666602 562.62416 292.509489 545.079848 332.420914"></polyline>
            <polyline id="Fill-119" stroke="#6D5049" fill="#6D5049" points="297.760971 527.567877 333.619805 579.756024 458.37006 611.179651"></polyline>
            <polyline id="Fill-120" stroke="#704E43" fill="#704E43" points="388.528051 355.516253 377.751145 387.446294 469.518219 378.590116"></polyline>
            <path d="M303.633663,417.861943 C303.633663,418.813114 314.25715,466.785592 314.25715,466.785592 L372.42477,461.540989" id="Fill-121" stroke="#74524B" fill="#74524B"></path>
            <polyline id="Fill-122" stroke="#6E4840" fill="#6E4840" points="377.751491 387.446121 372.424943 461.540989 345.607613 388.134732"></polyline>
            <polyline id="Fill-123" stroke="#44271A" fill="#44271A" points="347.282062 479.880473 311.240198 486.141021 380.494159 495.319855"></polyline>
            <polyline id="Fill-124" stroke="#623C39" fill="#623C39" points="377.348723 331.213073 366.132859 367.065568 314.099055 322.047401"></polyline>
            <polyline id="Fill-125" stroke="#461C14" fill="#461C14" points="273.256874 303.226269 267.65708 319.459045 289.554786 309.255433"></polyline>
            <polyline id="Fill-126" stroke="#705352" fill="#705352" points="354.546088 254.009406 403.316881 249.59855 377.348723 331.212899"></polyline>
            <polyline id="Fill-127" stroke="#75534C" fill="#75534C" points="425.195365 234.770536 476.16753 240.719338 448.937562 337.632784"></polyline>
            <polyline id="Fill-128" stroke="#71534F" fill="#71534F" points="324.369471 195.071963 298.010147 216.783498 317.523451 227.120121"></polyline>
            <polyline id="Fill-129" stroke="#6D3F27" fill="#6D3F27" points="549.991854 147.338664 635.283642 164.791058 570.690778 258.592762"></polyline>
            <polyline id="Fill-130" stroke="#1D1314" fill="#1D1314" points="448.646655 25.6542451 393.585337 59.3986462 466.162914 64.0351718"></polyline>
            <polygon id="Fill-131" stroke="#5D3412" fill="#5D3412" points="440.24151 0.463108668 448.646481 25.6540719 493.55773 8.22627108"></polygon>
            <polygon id="Fill-132" stroke="#B37A3E" fill="#B37A3E" points="493.558249 8.22609788 515.902186 44.0565978 554.420399 26.6869895"></polygon>
            <polygon id="Fill-133" stroke="#9F6B3F" fill="#9F6B3F" points="554.420226 26.6869895 575.224085 71.9817446 596.320237 69.4910691"></polygon>
            <polygon id="Fill-134" stroke="#2E1912" fill="#2E1912" points="515.90184 44.056771 575.223912 71.982091 492.340941 76.9443909"></polygon>
            <polyline id="Fill-135" stroke="#231312" fill="#231312" points="515.90184 44.056771 466.162914 64.0349986 448.646481 25.6540719"></polyline>
            <polyline id="Fill-136" stroke="#36241B" fill="#36241B" points="440.24151 0.463108668 391.675045 7.07333131 448.646481 25.6540719"></polyline>
            <polyline id="Fill-137" stroke="#141011" fill="#141011" points="448.646655 25.6542451 393.585337 59.3986462 391.675218 7.0735045"></polyline>
            <polyline id="Fill-138" stroke="#171115" fill="#171115" points="391.674872 7.07315812 343.876541 26.4803714 393.58499 59.3982998"></polyline>
            <polygon id="Fill-139" stroke="#633F44" fill="#633F44" points="393.585163 59.3986462 466.163607 64.0351718 397.784273 95.3415478"></polygon>
            <polygon id="Fill-140" stroke="#5A3C40" fill="#5A3C40" points="466.163261 64.0349986 485.99916 97.8057249 492.340594 76.9443909"></polygon>
            <polyline id="Fill-141" stroke="#704648" fill="#704648" points="397.784273 95.3413746 408.792519 183.015196 477.595227 152.17921"></polyline>
            <polyline id="Fill-142" stroke="#22181B" fill="#22181B" points="343.876887 26.4803714 357.052913 60.6089126 393.58551 59.398473"></polyline>
            <polygon id="Fill-143" stroke="#795A60" fill="#795A60" points="357.053086 60.609259 397.7841 95.341721 322.423335 99.709106"></polygon>
            <polyline id="Fill-144" stroke="#241E1E" fill="#241E1E" points="343.876887 26.4803714 302.716093 52.5551338 357.052913 60.6089126"></polyline>
            <polyline id="Fill-145" stroke="#423237" fill="#423237" points="302.716266 52.555307 302.169083 69.580263 357.053086 60.6090858"></polyline>
            <polyline id="Fill-146" stroke="#796064" fill="#796064" points="322.423162 99.7092792 266.406698 121.629163 302.16891 69.5797435"></polyline>
            <polygon id="Fill-147" stroke="#7A5C5E" fill="#7A5C5E" points="322.423162 99.7092792 265.551811 173.178058 331.566484 180.075433"></polygon>
            <polygon id="Fill-148" stroke="#8C7570" fill="#8C7570" points="266.406525 121.628817 265.551638 173.178578 241.226068 187.803091"></polygon>
            <polygon id="Fill-149" stroke="#4F352D" fill="#4F352D" points="241.226068 187.802745 256.591172 197.867803 245.528727 208.097048"></polygon>
            <polyline id="Fill-150" stroke="#6F4B41" fill="#6F4B41" points="241.226068 187.802745 231.912184 200.703997 245.528727 208.097048"></polyline>
            <polyline id="Fill-151" stroke="#6A4D44" fill="#6A4D44" points="256.591518 197.867803 264.478744 210.929778 245.528207 208.097048"></polyline>
            <polyline id="Fill-152" stroke="#4D2C27" fill="#4D2C27" points="245.528553 208.096875 246.494262 220.245607 264.47909 210.929778"></polyline>
            <polyline id="Fill-153" stroke="#574243" fill="#574243" points="264.47909 210.929605 279.034329 225.07403 298.01032 216.784017"></polyline>
            <polyline id="Fill-154" stroke="#3B2722" fill="#3B2722" points="264.47909 210.929605 262.718235 229.503764 279.034329 225.07403"></polyline>
            <polygon id="Fill-155" stroke="#4E2F27" fill="#4E2F27" points="246.493916 220.245781 262.718062 229.503244 254.851269 239.838309"></polygon>
            <polyline id="Fill-156" stroke="#6B4946" fill="#6B4946" points="279.034329 225.07403 270.727711 249.232595 262.718235 229.503764"></polyline>
            <polyline id="Fill-157" stroke="#825D56" fill="#825D56" points="247.78222 282.743187 273.25722 303.226096 244.245964 306.483147"></polyline>
            <polyline id="Fill-158" stroke="#442923" fill="#442923" points="331.566657 180.075087 350.6436 203.437834 324.369471 195.07231"></polyline>
            <polyline id="Fill-159" stroke="#634139" fill="#634139" points="324.369471 195.071963 317.523451 227.120121 350.6436 203.438354"></polyline>
            <polyline id="Fill-160" stroke="#4E302B" fill="#4E302B" points="317.523451 227.119948 350.523947 227.064873 350.6436 203.438008"></polyline>
            <polyline id="Fill-161" stroke="#583B39" fill="#583B39" points="317.523451 227.119948 354.545915 254.009579 350.523947 227.064873"></polyline>
            <polyline id="Fill-162" stroke="#6B4E4C" fill="#6B4E4C" points="374.615233 231.67871 354.546261 254.009753 403.317054 249.598896"></polyline>
            <polyline id="Fill-163" stroke="#261112" fill="#261112" points="365.62429 214.365909 350.52412 227.065219 374.61506 231.67871"></polyline>
            <polyline id="Fill-164" stroke="#301A19" fill="#301A19" points="369.047647 180.539588 350.6436 203.437661 392.224479 197.918029"></polyline>
            <polyline id="Fill-165" stroke="#482D28" fill="#482D28" points="350.643427 203.437834 365.624464 214.36539 392.224306 197.918376"></polyline>
            <polyline id="Fill-166" stroke="#382225" fill="#382225" points="365.62429 214.365909 374.61506 231.67871 393.263607 220.919498"></polyline>
            <polyline id="Fill-167" stroke="#3A262A" fill="#3A262A" points="365.62429 214.365909 393.263607 220.919498 403.797743 213.878373"></polyline>
            <polyline id="Fill-168" stroke="#533633" fill="#533633" points="365.62429 214.365909 403.797743 213.878373 392.224998 197.918722"></polyline>
            <polyline id="Fill-169" stroke="#482E31" fill="#482E31" points="369.047647 180.539588 392.224479 197.918029 408.792346 183.014503"></polyline>
            <polyline id="Fill-170" stroke="#54362F" fill="#54362F" points="414.316642 203.548677 403.797397 213.878893 425.195365 234.770536"></polyline>
            <polyline id="Fill-171" stroke="#442D2C" fill="#442D2C" points="393.263607 220.919498 425.195712 234.770882 374.614886 231.67871"></polyline>
            <polyline id="Fill-172" stroke="#634641" fill="#634641" points="374.615233 231.67871 403.317054 249.598896 425.195192 234.770882"></polyline>
            <path d="M441.586264,208.029676 C441.586264,208.029676 424.849393,234.193979 425.195712,234.770882 C425.541164,235.346919 476.167011,240.719511 476.167011,240.719511" id="Fill-173" stroke="#69463B" fill="#69463B"></path>
            <polyline id="Fill-174" stroke="#724E4E" fill="#724E4E" points="354.546088 254.009406 377.348723 331.212899 334.246641 308.208833"></polyline>
            <polyline id="Fill-175" stroke="#7C5B55" fill="#7C5B55" points="403.317054 249.598723 377.349069 331.213073 448.937216 337.632957"></polyline>
            <polyline id="Fill-176" stroke="#72564F" fill="#72564F" points="403.317054 249.598723 448.937216 337.632957 425.195192 234.770709"></polyline>
            <polyline id="Fill-177" stroke="#7B5A52" fill="#7B5A52" points="476.167011 240.719338 448.937043 337.632784 510.42118 255.88958"></polyline>
            <polyline id="Fill-178" stroke="#AD846D" fill="#AD846D" points="476.167011 240.719338 510.42118 255.88958 519.105111 183.587769"></polyline>
            <polyline id="Fill-179" stroke="#36221D" fill="#36221D" points="492.340767 76.9442177 508.664826 101.726448 575.224431 71.9817446"></polyline>
            <polyline id="Fill-180" stroke="#653A26" fill="#653A26" points="596.32041 69.4914155 619.907456 110.661774 549.9922 147.338317"></polyline>
            <polyline id="Fill-181" stroke="#582C1C" fill="#582C1C" points="619.907283 110.661947 635.283815 164.790885 549.992027 147.338491"></polyline>
            <polyline id="Fill-182" stroke="#6E442E" fill="#6E442E" points="519.104591 183.588115 549.9922 147.339183 570.690432 258.592242"></polyline>
            <path d="M519.104591,183.588115 C520.257485,183.414923 570.690432,258.592242 570.690432,258.592242 L510.42066,255.889926" id="Fill-183" stroke="#8B5C37" fill="#8B5C37"></path>
            <polyline id="Fill-184" stroke="#8E5833" fill="#8E5833" points="635.284161 164.790885 570.690432 258.592415 607.126926 241.886826"></polyline>
            <polygon id="Fill-185" stroke="#7F4F2D" fill="#7F4F2D" points="635.284161 164.790885 607.126926 241.886826 639.215047 235.559772"></polygon>
            <polyline id="Fill-186" stroke="#916141" fill="#916141" points="607.126752 241.886652 630.471722 258.511015 639.2147 235.560465"></polyline>
            <polyline id="Fill-187" stroke="#BD9B7C" fill="#BD9B7C" points="639.2147 235.560118 640.136946 259.098309 630.471722 258.510842"></polyline>
            <polyline id="Fill-188" stroke="#F8BA8B" fill="#F8BA8B" points="607.126752 241.886652 618.299154 260.034932 630.471722 258.511015"></polyline>
            <polyline id="Fill-189" stroke="#9A684D" fill="#9A684D" points="630.471549 258.510669 633.151187 273.129467 640.136773 259.098309"></polyline>
            <polyline id="Fill-190" stroke="#FEE59F" fill="#FEE59F" points="633.151533 273.12964 618.299327 260.035625 621.981556 298.219632"></polyline>
            <polygon id="Fill-191" stroke="#FFF0B5" fill="#FFF0B5" points="633.151533 273.12964 621.981556 298.219632 627.592086 310.461023"></polygon>
            <polyline id="Fill-192" stroke="#F26244" fill="#F26244" points="618.299154 260.035452 601.659079 265.526161 621.982249 298.219459"></polyline>
            <polyline id="Fill-193" stroke="#DE5E45" fill="#DE5E45" points="570.690605 258.592589 601.658733 265.526161 580.830805 290.789345"></polyline>
            <polyline id="Fill-194" stroke="#975747" fill="#975747" points="570.690605 258.592589 580.830805 290.789345 562.624506 292.509316"></polyline>
            <polyline id="Fill-195" stroke="#764739" fill="#764739" points="570.690605 258.592589 562.624506 292.509316 551.973833 279.666429"></polyline>
            <polyline id="Fill-196" stroke="#68403A" fill="#68403A" points="570.690605 258.592589 551.973833 279.666429 510.420833 255.889406"></polyline>
            <polyline id="Fill-197" stroke="#825D54" fill="#825D54" points="510.421006 255.889753 545.079675 332.420221 551.973314 279.666776"></polyline>
            <polyline id="Fill-198" stroke="#9E362E" fill="#9E362E" points="567.709324 310.392265 545.079675 332.420568 566.480241 335.075256"></polyline>
            <polyline id="Fill-199" stroke="#D07756" fill="#D07756" points="627.591739 310.460676 603.149806 345.884175 599.716061 309.529249"></polyline>
            <polyline id="Fill-200" stroke="#B25855" fill="#B25855" points="585.787658 331.109157 603.149806 345.883828 568.042309 370.517633"></polyline>
            <polyline id="Fill-201" stroke="#F9D482" fill="#F9D482" points="603.14998 345.883655 579.779556 374.764303 568.042656 370.517459"></polyline>
            <path d="M585.787658,331.109157 C585.211731,332.089078 568.042309,370.517633 568.042309,370.517633 L566.480241,335.075429" id="Fill-202" stroke="#A25D5B" fill="#A25D5B"></path>
            <polyline id="Fill-203" stroke="#BE6154" fill="#BE6154" points="545.079675 332.420741 568.042309 370.517806 526.362903 365.877816"></polyline>
            <polygon id="Fill-204" stroke="#7E5E52" fill="#7E5E52" points="545.079675 332.420741 526.362903 365.877816 448.937043 337.632438"></polygon>
            <path d="M568.042656,370.517633 C568.042656,370.517633 559.880626,412.521565 560.745383,412.694757 C561.61014,412.867949 579.779556,374.764303 579.779556,374.764303" id="Fill-205" stroke="#DE9F73" fill="#DE9F73"></path>
            <polyline id="Fill-206" stroke="#FDFD9A" fill="#FDFD9A" points="568.042656 370.517633 536.332887 410.176197 560.745383 412.694757"></polyline>
            <polyline id="Fill-207" stroke="#FBD77E" fill="#FBD77E" points="526.362903 365.877643 489.772125 391.913957 522.908724 394.069679"></polyline>
            <polyline id="Fill-208" stroke="#886455" fill="#886455" points="448.937216 337.632438 469.518046 378.589423 526.363076 365.877816"></polyline>
            <polyline id="Fill-209" stroke="#7B5A4F" fill="#7B5A4F" points="448.937216 337.632438 388.528051 355.516599 469.518046 378.589423"></polyline>
            <polyline id="Fill-210" stroke="#633D34" fill="#633D34" points="377.348723 331.213073 388.527704 355.51608 366.132859 367.065568"></polyline>
            <polyline id="Fill-211" stroke="#69413C" fill="#69413C" points="377.348723 331.213073 314.099055 322.047401 334.246641 308.209006"></polyline>
            <path d="M314.099055,322.047401 L289.5545,309.255379" id="Stroke-212" stroke="#51271D"></path>
            <polyline id="Fill-213" stroke="#663932" fill="#663932" points="289.554439 309.255086 267.6576 319.458872 285.344594 339.859688"></polyline>
            <polyline id="Fill-214" stroke="#5C352E" fill="#5C352E" points="289.554439 309.255086 285.344594 339.859688 314.099055 322.047054"></polyline>
            <polyline id="Fill-215" stroke="#68443E" fill="#68443E" points="314.099055 322.047401 301.263461 361.862877 285.344594 339.860034"></polyline>
            <polyline id="Fill-216" stroke="#653C33" fill="#653C33" points="273.256874 303.226269 267.65708 319.459045 244.246483 306.48332"></polyline>
            <polyline id="Fill-217" stroke="#795A56" fill="#795A56" points="267.657253 319.459045 256.570219 338.432931 285.344248 339.860034"></polyline>
            <polyline id="Fill-218" stroke="#714B3F" fill="#714B3F" points="244.246137 306.483147 256.570566 338.432931 233.814684 328.398181"></polyline>
            <polyline id="Fill-219" stroke="#7E594A" fill="#7E594A" points="233.814337 328.398008 248.234338 395.793287 256.570219 338.432758"></polyline>
            <path d="M256.570393,338.433105 C256.570393,338.433105 269.029366,357.241939 269.720964,357.241939 C270.412562,357.241939 285.344421,339.860207 285.344421,339.860207" id="Fill-220" stroke="#6D514D" fill="#6D514D"></path>
            <polyline id="Fill-221" stroke="#755455" fill="#755455" points="270.982775 378.637917 248.234338 395.793287 269.720964 357.242286"></polyline>
            <path d="M301.26398,361.863051 C301.869518,361.776974 366.132513,367.065048 366.132513,367.065048 L282.76383,372.372174" id="Fill-222" stroke="#533030" fill="#533030"></path>
            <polyline id="Fill-223" stroke="#5C3838" fill="#5C3838" points="282.764176 372.372347 300.092558 384.197557 366.132859 367.065221"></polyline>
            <path d="M270.982775,378.637917 C271.386409,378.637917 300.092385,384.19773 300.092385,384.19773 L248.234338,395.793287" id="Fill-224" stroke="#745650" fill="#745650"></path>
            <polyline id="Fill-225" stroke="#7C605D" fill="#7C605D" points="248.234511 395.793114 258.84657 422.205947 300.092732 384.197557"></polyline>
            <polyline id="Fill-226" stroke="#7A5B55" fill="#7A5B55" points="300.092732 384.197383 303.633836 417.862116 258.84657 422.20664"></polyline>
            <polyline id="Fill-227" stroke="#6B433E" fill="#6B433E" points="366.132513 367.065395 345.60744 388.135079 377.751318 387.44664"></polyline>
            <polyline id="Fill-228" stroke="#6B453D" fill="#6B453D" points="366.132513 367.065395 377.751318 387.44664 388.528224 355.516599"></polyline>
            <polygon id="Fill-229" stroke="#6D4B3D" fill="#6D4B3D" points="469.518219 378.58977 377.751145 387.445947 431.142862 453.616931"></polygon>
            <polyline id="Fill-230" stroke="#774F4A" fill="#774F4A" points="345.607786 388.134906 303.633836 417.862463 372.425116 461.541335"></polyline>
            <polyline id="Fill-231" stroke="#795D5C" fill="#795D5C" points="258.846916 422.206293 259.23081 441.820125 303.633317 417.86177"></polyline>
            <polyline id="Fill-232" stroke="#442B27" fill="#442B27" points="314.257669 466.785246 259.231502 441.819952 264.487402 475.360852"></polyline>
            <polyline id="Fill-233" stroke="#1B1110" fill="#1B1110" points="264.487402 475.361025 314.257496 466.785419 311.240544 486.140848"></polyline>
            <polyline id="Fill-234" stroke="#100E15" fill="#100E15" points="264.487402 475.361025 311.240544 486.140848 297.760971 527.56805"></polyline>
            <polyline id="Fill-235" stroke="#11172D" fill="#11172D" points="297.760971 527.567877 264.487402 475.360852 213.665366 509.118416"></polyline>
            <polyline id="Fill-236" stroke="#0C0C15" fill="#0C0C15" points="226.139405 545.639433 213.665712 509.117896 297.761317 527.568223"></polyline>
            <polyline id="Fill-237" stroke="#080A15" fill="#080A15" points="264.487402 475.361025 179.061935 491.69737 213.665366 509.117723"></polyline>
            <polyline id="Fill-238" stroke="#10142A" fill="#10142A" points="179.061762 491.697716 191.508268 536.189899 213.665366 509.118069"></polyline>
            <polyline id="Fill-239" stroke="#10101E" fill="#10101E" points="179.061762 491.697716 155.489434 497.289396 191.508268 536.189899"></polyline>
            <polyline id="Fill-240" stroke="#101118" fill="#101118" points="191.508268 536.190245 185.761636 553.060887 205.457969 553.746901"></polyline>
            <polygon id="Fill-241" stroke="#0D0E17" fill="#0D0E17" points="191.508268 536.190245 205.457969 553.746901 226.139058 545.639086"></polygon>
            <polyline id="Fill-242" stroke="#0B0C13" fill="#0B0C13" points="226.139405 545.639433 297.761317 527.568223 260.106302 574.444395"></polyline>
            <polyline id="Fill-243" stroke="#0A0B11" fill="#0A0B11" points="226.139405 545.639433 242.659653 599.009269 205.458488 553.747247"></polyline>
            <polyline id="Fill-244" stroke="#08080E" fill="#08080E" points="185.761636 553.061233 193.789294 576.808641 205.457969 553.747247"></polyline>
            <polygon id="Fill-245" stroke="#101219" fill="#101219" points="193.789294 576.808814 242.659306 599.008576 214.306921 664.794554"></polygon>
            <polygon id="Fill-246" stroke="#181821" fill="#181821" points="214.307094 664.794554 250.198829 656.983764 246.649586 704.012691"></polygon>
            <polyline id="Fill-247" stroke="#090A1A" fill="#090A1A" points="250.199002 656.983417 293.126366 643.987083 300.482686 685.520971"></polyline>
            <polyline id="Fill-248" stroke="#08070C" fill="#08070C" points="293.12602 643.987083 324.857952 668.37149 306.344643 725.57528"></polyline>
            <polyline id="Fill-249" stroke="#2A141E" fill="#2A141E" points="300.482859 685.520625 306.345162 725.574934 246.649759 704.012864"></polyline>
            <polyline id="Fill-250" stroke="#251D3B" fill="#251D3B" points="306.344989 725.574934 271.103813 829.21187 287.646399 882.07202"></polyline>
            <polyline id="Fill-251" stroke="#0A0A0E" fill="#0A0A0E" points="382.107656 808.600799 306.344989 725.574934 394.553469 660.839366"></polyline>
            <polyline id="Fill-252" stroke="#0E0C12" fill="#0E0C12" points="394.553123 660.83902 382.10731 808.600452 485.311718 639.053706"></polyline>
            <polyline id="Fill-253" stroke="#100E13" fill="#100E13" points="485.311718 639.053706 394.55295 660.83902 458.369714 611.179304"></polyline>
            <polyline id="Fill-254" stroke="#08080A" fill="#08080A" points="324.857433 668.371144 315.338355 620.409231 293.1255 643.986909"></polyline>
            <polyline id="Fill-255" stroke="#75544D" fill="#75544D" points="297.760971 527.567877 458.37006 611.179651 380.493639 495.319509"></polyline>
            <polyline id="Fill-256" stroke="#67453B" fill="#67453B" points="311.240371 486.140674 380.493639 495.319509 297.760797 527.567877"></polyline>
            <polyline id="Fill-257" stroke="#251410" fill="#251410" points="314.257669 466.785246 347.281715 479.880127 311.240717 486.140674"></polyline>
            <polyline id="Fill-258" stroke="#46271B" fill="#46271B" points="372.425116 461.540989 347.282408 479.880473 380.493639 495.319855"></polyline>
            <polyline id="Fill-259" stroke="#60392F" fill="#60392F" points="431.143036 453.617278 372.42477 461.541162 380.494159 495.320029"></polyline>
            <polyline id="Fill-260" stroke="#704F4A" fill="#704F4A" points="380.493986 495.319855 431.142689 453.616931 458.370233 611.179131"></polyline>
            <polyline id="Fill-261" stroke="#DD995F" fill="#DD995F" points="469.518219 378.58977 489.772471 391.913438 479.50171 411.737524"></polyline>
            <polygon id="Fill-262" stroke="#B37856" fill="#B37856" points="469.518219 378.58977 479.50171 411.737524 464.640499 405.441645"></polygon>
            <polyline id="Fill-263" stroke="#8F5F43" fill="#8F5F43" points="464.640153 405.441472 431.143382 453.617451 479.501536 411.737351"></polyline>
            <polyline id="Fill-264" stroke="#FEE88F" fill="#FEE88F" points="489.771952 391.913611 506.814101 409.063958 522.908551 394.069333"></polyline>
            <path d="M536.332541,410.176197 L506.814275,409.064304 C506.814275,409.064304 517.214559,452.589729 517.560012,452.589729 C517.906157,452.589729 536.332541,410.176197 536.332541,410.176197" id="Fill-265" stroke="#8D5D4E" fill="#8D5D4E"></path>
            <polyline id="Fill-266" stroke="#F6C880" fill="#F6C880" points="517.560185 452.590075 536.360593 455.323566 536.332714 410.176544"></polyline>
            <polyline id="Fill-267" stroke="#FEE6B0" fill="#FEE6B0" points="536.332541 410.176197 549.881032 441.327393 560.745729 412.694757"></polyline>
            <polyline id="Fill-268" stroke="#4C3134" fill="#4C3134" points="549.881378 441.32722 536.360766 455.323046 548.256106 466.333561"></polyline>
            <polyline id="Fill-269" stroke="#5D3D3B" fill="#5D3D3B" points="536.360419 455.323566 525.649141 477.822085 548.256453 466.333907"></polyline>
            <polyline id="Fill-270" stroke="#1D1010" fill="#1D1010" points="549.881378 441.32722 582.203264 446.921498 560.745383 412.694584"></polyline>
            <polyline id="Fill-271" stroke="#6E5C57" fill="#6E5C57" points="560.745556 412.694757 595.105525 413.928924 591.243384 425.050108"></polyline>
            <path d="M560.745556,412.694757 C561.782606,412.464065 591.243384,425.050108 591.243384,425.050108 L582.203437,446.921671" id="Fill-272" stroke="#2D1C17" fill="#2D1C17"></path>
            <polyline id="Fill-273" stroke="#CEAC8D" fill="#CEAC8D" points="617.912316 440.969752 620.627278 461.122037 582.20361 446.921844"></polyline>
            <polyline id="Fill-274" stroke="#968072" fill="#968072" points="617.912316 440.969752 645.842886 456.390256 620.627278 461.122037"></polyline>
            <polyline id="Fill-275" stroke="#AC8A63" fill="#AC8A63" points="645.842713 456.38991 664.17057 477.315325 620.627798 461.121691"></polyline>
            <path d="M664.170396,477.315152 C663.478626,477.833862 653.796259,489.550827 653.796259,489.550827 L620.627625,461.121691" id="Fill-276" stroke="#A8896E" fill="#A8896E"></path>
            <polyline id="Fill-277" stroke="#99775D" fill="#99775D" points="613.656757 497.588152 653.796259 489.550827 649.024339 521.569542"></polyline>
            <polyline id="Fill-278" stroke="#7A5A44" fill="#7A5A44" points="613.656757 497.588152 649.024339 521.569542 593.558521 551.302641"></polyline>
            <polyline id="Fill-279" stroke="#0F0D11" fill="#0F0D11" points="586.63077 524.955794 593.558868 551.303161 548.627879 563.567412"></polyline>
            <polyline id="Fill-280" stroke="#825F44" fill="#825F44" points="613.656757 497.588152 559.826254 480.860394 582.203784 446.921498"></polyline>
            <polyline id="Fill-281" stroke="#6C4F42" fill="#6C4F42" points="586.63077 524.955794 548.627879 563.567412 520.698002 550.504572"></polyline>
            <polyline id="Fill-282" stroke="#4E342C" fill="#4E342C" points="586.63077 524.955794 520.698002 550.504572 559.825735 480.86074"></polyline>
            <polyline id="Fill-283" stroke="#221010" fill="#221010" points="548.256106 466.333734 559.8266 480.860567 525.648795 477.821912"></polyline>
            <polyline id="Fill-284" stroke="#2E1819" fill="#2E1819" points="559.826081 480.860394 506.519731 529.420513 525.648275 477.821565"></polyline>
            <polyline id="Fill-285" stroke="#241213" fill="#241213" points="485.370246 540.690642 506.519558 529.420859 520.697482 550.503706"></polyline>
            <polyline id="Fill-286" stroke="#1E1518" fill="#1E1518" points="485.370246 540.690642 458.369887 611.179651 486.028251 611.081278"></polyline>
            <polyline id="Fill-287" stroke="#0D0D12" fill="#0D0D12" points="520.697829 550.504225 554.562216 588.278807 486.028597 611.080758"></polyline>
            <polyline id="Fill-288" stroke="#10101C" fill="#10101C" points="548.627879 563.567066 554.562389 588.278807 593.558695 551.302641"></polyline>
            <polyline id="Fill-289" stroke="#13131F" fill="#13131F" points="605.786674 571.618074 649.024166 521.569369 790.69432 571.272555"></polyline>
            <polyline id="Stroke-294" stroke="#0B0D1C" fill="#0B0D1C" points="430.619402 895.552963 455.418305 823.169882 491.34451 887.721666"></polyline>
            <polyline id="Fill-295" stroke="#08080E" fill="#08080E" points="382.107656 808.600799 455.418909 823.170237 546.624774 764.864426"></polyline>
            <polyline id="Fill-296" stroke="#100F17" fill="#100F17" points="382.107656 808.600799 546.624774 764.864426 485.311372 639.054052"></polyline>
            <polyline id="Fill-297" stroke="#0F0E12" fill="#0F0E12" points="458.37006 611.179478 485.312065 639.053879 486.028251 611.080931"></polyline>
            <polyline id="Fill-298" stroke="#0A0911" fill="#0A0911" points="546.62512 764.864599 605.787193 571.618074 689.587388 696.954074"></polyline>
            <polyline id="Fill-299" stroke="#0F0E15" fill="#0F0E15" points="605.786674 571.618074 790.69432 571.272555 689.586869 696.953382"></polyline>
            <polyline id="Fill-300" stroke="#161723" fill="#161723" points="546.62512 764.864599 521.381461 819.180757 583.713039 830.709809"></polyline>
            <polyline id="Stroke-303" stroke="#0A0A11" fill="#0A0A11" points="689.587215 696.953555 583.712926 830.710109 805.842989 784.06791"></polyline>
            <polyline id="Stroke-304" stroke="#16131F" fill="#16131F" points="689.587215 696.953555 805.797047 784.094072 790.694536 571.272846"></polyline>
            <polyline id="Stroke-307" stroke="#0F0F19" fill="#0F0F19" points="805.797261 784.094291 852.519296 675.715801 790.69475 571.273065"></polyline>
            <polyline id="Stroke-308" stroke="#2B1F28" fill="#2B1F28" points="790.694494 571.273075 873.806303 641.337869 852.51986 675.715811"></polyline>
            <polyline id="Stroke-309" stroke="#A08772" fill="#A08772" points="790.694494 571.273075 879.752296 615.57739 873.806303 641.337869"></polyline>
            <polyline id="Fill-323" stroke="#0A0B10" fill="#0A0B10" points="333.619805 579.75585 315.338009 620.409057 365.780134 626.009917"></polyline>
            <polyline id="Fill-324" stroke="#07080C" fill="#07080C" points="205.458142 553.747247 193.789467 576.808641 242.65948 599.009096"></polyline>
            <polyline id="Fill-325" stroke="#0C101E" fill="#0C101E" points="213.665366 509.118069 191.508441 536.190072 226.139058 545.639606"></polyline>
            <polyline id="Fill-326" stroke="#3E4F6D" fill="#3E4F6D" points="382.107656 808.600799 430.619229 895.552548 455.418909 823.170237"></polyline>
            <polyline id="Fill-327" stroke="#425C79" fill="#425C79" points="521.381288 819.181104 491.34441 887.721078 583.712866 830.710155"></polyline>
            <polyline id="Fill-331" stroke="#100F16" fill="#100F16" points="520.697829 550.504225 548.627706 563.567066 554.562216 588.278807"></polyline>
            <polyline id="Fill-332" stroke="#200F10" fill="#200F10" points="649.024166 521.569542 605.786674 571.618247 593.559041 551.302641"></polyline>
            <polyline id="Fill-333" stroke="#1B0E10" fill="#1B0E10" points="548.256106 466.333734 582.203437 446.921671 559.8266 480.860567"></polyline>
            <path d="M620.627625,461.121691 C620.97377,462.303381 613.426282,497.126942 613.656757,497.588152 C613.887405,498.049363 653.796259,489.550827 653.796259,489.550827" id="Fill-334" stroke="#937059" fill="#937059"></path>
            <path d="M517.560185,452.590075 C518.078796,452.590075 536.360593,455.323566 536.360593,455.323566 L525.648448,477.822085" id="Fill-335" stroke="#7C5650" fill="#7C5650"></path>
            <polyline id="Fill-336" stroke="#FFF598" fill="#FFF598" points="539.150013 372.279689 568.043002 370.517806 536.332368 410.176371"></polyline>
            <polyline id="Fill-337" stroke="#945F48" fill="#945F48" points="522.908551 394.069679 506.814101 409.064304 536.332368 410.176197"></polyline>
            <polyline id="Fill-338" stroke="#795141" fill="#795141" points="469.518219 378.58977 464.640499 405.441645 431.142862 453.616931"></polyline>
            <polyline id="Fill-339" stroke="#6A4339" fill="#6A4339" points="377.751491 387.446121 372.424943 461.540989 431.143209 453.617104"></polyline>
            <polyline id="Fill-340" stroke="#382218" fill="#382218" points="314.257669 466.785246 347.281715 479.880127 372.425289 461.540643"></polyline>
            <polyline id="Fill-341" stroke="#735653" fill="#735653" points="303.633663 417.861943 259.231156 441.820298 314.25715 466.785592"></polyline>
            <polyline id="Fill-342" stroke="#745347" fill="#745347" points="377.348723 331.213073 388.527704 355.51608 448.936869 337.632784"></polyline>
            <polyline id="Fill-343" stroke="#64403C" fill="#64403C" points="314.099055 322.047401 301.263461 361.862877 366.132859 367.065568"></polyline>
            <polyline id="Fill-344" stroke="#382223" fill="#382223" points="265.551638 173.178231 241.226241 187.802745 256.591345 197.867803"></polyline>
            <polyline id="Fill-345" stroke="#3C221D" fill="#3C221D" points="264.47909 210.929605 246.494262 220.245434 262.718235 229.503764"></polyline>
            <polyline id="Fill-346" stroke="#7A5B55" fill="#7A5B55" points="262.718062 229.503591 254.851269 239.83779 270.728404 249.232249"></polyline>
            <polyline id="Fill-347" stroke="#6E4137" fill="#6E4137" points="244.246137 306.483147 256.570566 338.432931 267.6576 319.459045"></polyline>
            <polyline id="Fill-348" stroke="#714C45" fill="#714C45" points="285.344248 339.859861 269.720791 357.241766 301.26398 361.862704"></polyline>
            <polyline id="Fill-349" stroke="#633F38" fill="#633F38" points="256.570393 338.433105 248.234338 395.79294 269.720964 357.241939"></polyline>
            <polyline id="Fill-350" stroke="#7D5C52" fill="#7D5C52" points="510.421006 255.889753 448.937043 337.632091 545.079675 332.420221"></polyline>
            <polyline id="Fill-351" stroke="#A05B59" fill="#A05B59" points="545.079675 332.420741 566.480067 335.075429 568.042309 370.517806"></polyline>
            <polyline id="Fill-352" stroke="#C05950" fill="#C05950" points="599.715887 309.528903 585.787485 331.108984 603.149633 345.883655"></polyline>
            <polyline id="Fill-353" stroke="#A34333" fill="#A34333" points="607.126752 241.886652 570.690259 258.592242 601.659079 265.525814"></polyline>
            <polyline id="Fill-354" stroke="#C95844" fill="#C95844" points="607.126752 241.886652 618.299154 260.034932 601.659079 265.525814"></polyline>
            <polyline id="Fill-355" stroke="#5B3B33" fill="#5B3B33" points="414.316642 203.548677 425.195365 234.770536 441.58609 208.02933"></polyline>
            <polyline id="Fill-356" stroke="#553637" fill="#553637" points="350.52412 227.065219 354.546088 254.009753 374.614886 231.67871"></polyline>
            <polyline id="Fill-357" stroke="#3B2523" fill="#3B2523" points="331.566657 180.075087 350.6436 203.437834 369.047647 180.539588"></polyline>
            <polyline id="Fill-358" stroke="#29100D" fill="#29100D" points="350.643427 203.437834 350.523601 227.0647 365.624464 214.36539"></polyline>
            <polyline id="Fill-359" stroke="#7D6467" fill="#7D6467" points="322.423162 99.7092792 266.406698 121.629163 265.551811 173.178058"></polyline>
            <polyline id="Fill-360" stroke="#755962" fill="#715A62" points="302.168737 69.5799166 322.422989 99.7094524 357.052913 60.6087394"></polyline>
            <polyline id="Fill-361" stroke="#6E4B52" fill="#6E4B52" points="357.053086 60.609259 397.7841 95.341721 393.584817 59.3988194"></polyline>
            <path d="M466.163261,64.0349986 C465.702138,63.6887876 397.783926,95.3413746 397.783926,95.3413746 L485.99916,97.8057249" id="Fill-362" stroke="#69464A" fill="#69464A"></path>
            <polyline id="Fill-363" stroke="#291A1A" fill="#291A1A" points="466.163261 64.0349986 492.340594 76.9443909 515.902186 44.056771"></polyline>
            <polyline id="Fill-364" stroke="#814B1F" fill="#814B1F" points="554.420226 26.6869895 515.902013 44.0564246 575.224085 71.9817446"></polyline>
            <polyline id="Fill-365" stroke="#845125" fill="#845125" points="493.558249 8.22609788 448.647001 25.6538987 515.902186 44.0565978"></polyline>
            <polyline id="Fill-366" stroke="#171216" fill="#171216" points="613.656757 497.588152 593.558521 551.302641 586.631117 524.955447"></polyline>
            <polygon id="Fill-367" stroke="#6C4A48" fill="#6C4A48" points="456.501846 454.25982 485.370246 540.690469 506.519731 529.420686"></polygon>
            <polyline id="Fill-368" stroke="#694645" fill="#694645" points="431.143036 453.617278 485.3699 540.690469 458.369714 611.179478"></polyline>
            <polyline id="Fill-369" stroke="#371A23" fill="#371A23" points="306.344989 725.574934 266.551113 796.887125 246.649586 704.012864"></polyline>
            <polyline id="Fill-370" stroke="#3D546D" fill="#3D546D" points="306.344989 725.574934 338.274669 863.476488 382.107829 808.600799"></polyline>
            <polyline id="Fill-371" stroke="#0D0B0F" fill="#0D0B0F" points="297.760971 527.567877 333.619805 579.756024 260.105956 574.444049"></polyline>
            <polyline id="Fill-372" stroke="#563D3A" fill="#563D3A" points="458.37006 611.179478 333.619805 579.755677 365.780134 626.009917"></polyline>
            <polyline id="Fill-373" stroke="#5E3432" fill="#5E3432" points="302.038348 287.102085 289.554786 309.255086 273.256874 303.225923"></polyline>
            <polyline id="Fill-374" stroke="#765855" fill="#765855" points="397.784273 95.3413746 369.04782 180.539415 408.792519 183.015196"></polyline>
            <polyline id="Fill-375" stroke="#3D2628" fill="#3D2628" points="408.792173 183.015023 414.316469 203.54885 392.224306 197.918549"></polyline>
            <polyline id="Fill-376" stroke="#4A3131" fill="#4A3131" points="408.792173 183.015023 414.316469 203.54885 441.58661 208.029503"></polyline>
            <polyline id="Fill-377" stroke="#4D2719" fill="#4D2719" points="575.224085 71.9822642 549.992027 147.338491 596.320237 69.4915887"></polyline>
            <path d="M492.340767,76.9442177 C492.47029,77.1172366 508.664826,101.726448 508.664826,101.726448 L485.99916,97.8062445" id="Fill-378" stroke="#493234" fill="#493234"></path>
            <polyline id="Fill-379" stroke="#A69291" fill="#A69291" points="595.105179 413.92927 591.244076 425.050627 617.91197 440.970098"></polyline>
            <polyline id="Fill-385" stroke="#13111E" fill="#13111E" points="260.106302 574.444395 333.620152 579.755504 315.338355 620.408884"></polyline>
            <polyline id="Fill-386" stroke="#0B0C12" fill="#0B0C12" points="125.169268 566.667204 214.30744 664.794381 193.788947 576.808641"></polyline>
            <polyline id="Fill-387" stroke="#0D0D1D" fill="#0D0D1D" points="306.344989 725.574934 266.551113 796.887125 271.103813 829.21187"></polyline>
            <polyline id="Fill-388" stroke="#735448" fill="#735448" points="431.143036 453.617278 456.5015 454.25982 485.3699 540.690469"></polyline>
            <polyline id="Fill-389" stroke="#6D4C44" fill="#6D4C44" points="456.501846 454.25982 506.519731 529.420686 525.649141 477.821912"></polyline>
            <polygon id="Fill-390" stroke="#FED484" fill="#FED484" points="480.262207 412.238411 484.891113 429.303474 505.93457 408.843483"></polygon>
            <polyline id="Fill-391" stroke="#FDBD84" fill="#FDBD84" points="526.362903 365.877643 539.150186 372.279516 568.042309 370.517633"></polyline>
            <polyline id="Fill-392" stroke="#6B4240" fill="#6B4240" points="300.092732 384.197383 345.607786 388.134732 366.132859 367.065048"></polyline>
            <polyline id="Fill-393" stroke="#704B42" fill="#704B42" points="300.092732 384.197383 303.633836 417.862116 345.607786 388.134732"></polyline>
            <polyline id="Fill-394" stroke="#513433" fill="#513433" points="392.224652 197.918376 403.797397 213.878893 414.316815 203.54885"></polyline>
            <polyline id="Fill-395" stroke="#4A312E" fill="#4A312E" points="403.79757 213.87872 393.263607 220.919844 425.195712 234.770362"></polyline>
            <polyline id="Fill-396" stroke="#553738" fill="#553738" points="279.034329 225.07403 270.727711 249.232595 298.01032 216.784017"></polyline>
            <polyline id="Fill-397" stroke="#7B5354" fill="#7B5354" points="247.78222 282.743187 302.038694 287.102259 273.25722 303.226096"></polyline>
            <polyline id="Fill-398" stroke="#734B4C" fill="#734B4C" points="334.246468 308.209179 289.554266 309.25474 302.038694 287.101739"></polyline>
            <polyline id="Fill-399" stroke="#51271D" fill="#51271D" points="289.554439 309.255086 334.246641 308.209525 314.099055 322.047054"></polyline>
            <polyline id="Fill-400" stroke="#BD4530" fill="#BD4530" points="562.624333 292.509489 580.830632 290.789518 567.708805 310.391919"></polyline>
            <polygon id="Fill-401" stroke="#795349" fill="#795349" points="456.501846 454.25982 517.560012 452.589902 525.649141 477.821912"></polygon>
            <polyline id="Stroke-402" stroke="#09070B" fill="#09070B" points="51.3293603 614.251559 0.913540034 678.593261 56.4294423 786.985701"></polyline>
            <polyline id="Fill-406" stroke="#2E405A" fill="#2E405A" points="491.344063 887.721407 583.712519 830.710501 562.618792 916.284351"></polyline>
        </g>
    </g>
</svg>