<?xml version="1.0" encoding="UTF-8"?>
<svg width="1000px" height="590px" viewBox="0 0 1000 590" version="1.1" xmlns="http://www.w3.org/2000/svg" xmlns:xlink="http://www.w3.org/1999/xlink">
    <!-- Generator: Sketch 51.2 (57519) - http://www.bohemiancoding.com/sketch -->
    <title>Asset/Map</title>
    <desc>Created with Sketch.</desc>
    <defs></defs>
    <g id="Asset/Map" stroke="none" stroke-width="1" fill="none" fill-rule="evenodd">
        <g id="Map" transform="translate(1.000000, 0.000000)">
            <polygon id="Stroke-3" stroke="#FFFFFF" points="285.24112 33.131585 365.77973 0.0530228758 382.791313 67.4749837 312.932239 68.7417484"></polygon>
            <polygon id="Stroke-4" stroke="#FFFFFF" points="382.791892 67.4757549 324.876834 150.987748 299.176062 133.272324 312.930888 68.7405915"></polygon>
            <polygon id="Stroke-5" stroke="#FFFFFF" points="253.568919 139.960725 240.175097 171.051412 287.594015 187.681314 294.109459 155.507033"></polygon>
            <polygon id="Stroke-6" stroke="#FFFFFF" points="3.80965251 73.440732 81.2710425 73.440732 95.7498069 121.16132 0.18996139 87.5390327"></polygon>
            <polygon id="Stroke-7" stroke="#FFFFFF" points="81.2712355 73.440732 202.168919 73.440732 203.616795 121.16132"></polygon>
            <polygon id="Stroke-8" stroke="#FFFFFF" points="81.2712355 73.440732 95.75 121.16132 203.616795 158.398804 203.616795 121.16132"></polygon>
            <polygon id="Stroke-9" stroke="#FFFFFF" points="95.7501931 121.16132 135.927799 258.538771 165.611197 279.869392 205.788803 266.129719 203.616988 158.398804"></polygon>
            <polygon id="Stroke-10" stroke="#FFFFFF" points="203.616602 158.398225 287.593436 187.682278 282.525869 212.263683 240.176448 254.199958 205.788417 266.131069"></polygon>
            <polygon id="Stroke-11" stroke="#FFFFFF" points="135.928764 258.538771 143.710618 288.455242 165.610232 279.869392"></polygon>
            <polygon id="Stroke-12" stroke="#FFFFFF" points="143.711004 288.454085 183.61834 311.772582 194.747683 301.468791 165.610618 279.868235"></polygon>
            <polygon id="Stroke-13" stroke="#FFFFFF" points="194.748649 301.469369 207.237066 310.14584 207.237066 322.618748 183.617375 311.77316"></polygon>
            <polygon id="Stroke-14" stroke="#FFFFFF" points="207.236486 310.14584 255.28861 337.530709 245.605212 387.962212 208.593629 368.983879"></polygon>
            <polygon id="Stroke-15" stroke="#FFFFFF" points="245.604826 387.962791 234.112548 440.835275 208.593243 414.399033 208.593243 368.982529"></polygon>
            <polyline id="Stroke-16" stroke="#FFFFFF" points="253.272008 348.031167 344.061583 403.689761 324.515251 435.954663 245.604054 387.962212 253.075097 349.05499"></polyline>
            <polygon id="Stroke-17" stroke="#FFFFFF" points="324.514479 435.954663 231.261583 589.690154 213.751931 535.192278 245.605212 387.962212"></polygon>
            <polygon id="Stroke-18" stroke="#FFFFFF" points="433.919691 132.006908 420.888803 190.301222 438.805792 184.065732"></polygon>
            <polygon id="Stroke-19" stroke="#FFFFFF" points="418.44556 201.961049 411.387645 230.159578 429.847104 236.395069 443.692664 221.754971 442.335521 212.26484"></polygon>
            <polygon id="Stroke-20" stroke="#FFFFFF" points="458.89556 117.094369 477.084749 144.479239 523.777799 95.9449902 508.032625 89.9794346"></polygon>
            <polygon id="Stroke-21" stroke="#FFFFFF" points="477.084556 144.479431 438.806564 184.065346 490.115444 167.256131"></polygon>
            <polygon id="Stroke-22" stroke="#FFFFFF" points="438.806178 184.065732 442.335135 212.264261 458.894981 217.144294 490.115058 167.254588"></polygon>
            <polygon id="Stroke-23" stroke="#FFFFFF" points="504.629923 115.848814 506.131853 141.768324 533.008301 98.6559052 523.778571 95.9449902"></polygon>
            <polygon id="Stroke-24" stroke="#FFFFFF" points="533.008687 98.6568693 614.475869 122.557654 490.114865 167.254974"></polygon>
            <polygon id="Stroke-25" stroke="#FFFFFF" points="660.602896 105.977497 682.048842 141.768902 609.566216 273.813216 458.896332 217.144294 490.114479 167.254588"></polygon>
            <polygon id="Stroke-26" stroke="#FFFFFF" points="565.670656 108.238971 614.475676 122.557075 660.603089 105.977304 728.199614 82.3888725"></polygon>
            <polygon id="Stroke-27" stroke="#FFFFFF" points="660.602896 105.977497 682.048842 141.768902 728.201351 82.3890654"></polygon>
            <polygon id="Stroke-28" stroke="#FFFFFF" points="728.200579 82.3884869 750.733398 254.290578 682.05 141.768324"></polygon>
            <polygon id="Stroke-29" stroke="#FFFFFF" points="609.565251 273.813023 750.733205 254.290964 682.049807 141.768709"></polygon>
            <polygon id="Stroke-30" stroke="#FFFFFF" points="538.260039 246.994631 529.005212 270.571493 598.163514 294.148356 609.565058 273.812637"></polygon>
            <polygon id="Stroke-31" stroke="#FFFFFF" points="446.950579 242.903193 458.894595 355.425448 546.039382 389.047735 598.162934 294.148356"></polygon>
            <polygon id="Stroke-32" stroke="#FFFFFF" points="446.950579 242.903193 390.755598 329.667899 457.103089 338.54682"></polygon>
            <polygon id="Stroke-33" stroke="#FFFFFF" points="446.950579 242.903193 429.848263 236.39584 383.153282 284.116428 383.153282 326.415186 390.755598 329.667899"></polygon>
            <polygon id="Stroke-34" stroke="#FFFFFF" points="458.89556 355.426026 471.383977 469.033804 497.173552 482.590307 546.040347 389.046386"></polygon>
            <polygon id="Stroke-35" stroke="#FFFFFF" points="550.660039 391.992915 530.841506 435.953699 547.673552 444.902033 562.604054 395.012327"></polygon>
            <polygon id="Stroke-36" stroke="#FFFFFF" points="609.565251 273.813023 660.059459 350.273938 750.733205 254.290964"></polygon>
            <polygon id="Stroke-37" stroke="#FFFFFF" points="750.733205 254.290964 759.962934 319.092631 750.733205 326.685507 699.611583 308.407075"></polygon>
            <polygon id="Stroke-38" stroke="#FFFFFF" points="699.610618 308.407846 725.485135 374.948663 750.732239 326.68435"></polygon>
            <polygon id="Stroke-39" stroke="#FFFFFF" points="725.485714 374.948085 768.107336 421.041353 808.286873 387.420993"></polygon>
            <polygon id="Stroke-40" stroke="#FFFFFF" points="768.107722 421.041931 839.235135 408.299088 833.804633 431.345722"></polygon>
            <polygon id="Stroke-41" stroke="#FFFFFF" points="839.234556 408.298317 906.01834 417.516585 901.132239 445.715114"></polygon>
            <polygon id="Stroke-42" stroke="#FFFFFF" points="843.578185 445.715693 779.780888 479.33798 787.383205 533.565922 896.78668 482.862556"></polygon>
            <polygon id="Stroke-43" stroke="#FFFFFF" points="896.787645 482.861784 883.484556 543.868941 838.283784 509.974791"></polygon>
            <polygon id="Stroke-44" stroke="#FFFFFF" points="988.003861 492.080631 979.859073 533.565729 996.418919 521.634618"></polygon>
            <polygon id="Stroke-45" stroke="#FFFFFF" points="728.200579 82.3884869 942.39749 125.138422 779.148456 299.028389 750.733398 254.290578"></polygon>
            <polygon id="Stroke-46" stroke="#FFFFFF" points="894.396332 176.267899 894.396332 205.75633 964.114479 149.359271 942.396332 125.138422"></polygon>
            <polygon id="Stroke-47" stroke="#FFFFFF" points="830.528185 273.416026 821.39305 283.650405 837.003089 282.645863"></polygon>
            <polygon id="Stroke-48" stroke="#FFFFFF" points="878.064672 249.762425 886.358108 226.906673 856.051158 258.288503"></polygon>
            <path d="M542,204 C542,209.52302 537.523415,214 532.000882,214 C526.478349,214 522,209.52302 522,204 C522,198.47698 526.478349,194 532.000882,194 C537.523415,194 542,198.47698 542,204" id="Fill-49" fill="#FFFFFF"></path>
            <path d="M255,246 C255,251.52302 250.523415,256 245.000882,256 C239.478349,256 235,251.52302 235,246 C235,240.47698 239.478349,236 245.000882,236 C250.523415,236 255,240.47698 255,246" id="Fill-50" fill="#FFFFFF"></path>
            <path d="M503,200 C503,205.52302 498.523415,210 493.000882,210 C487.478349,210 483,205.52302 483,200 C483,194.47698 487.478349,190 493.000882,190 C498.523415,190 503,194.47698 503,200" id="Fill-51" fill="#FFFFFF"></path>
            <path d="M888,536 C888,541.52302 883.523415,546 878.000882,546 C872.478349,546 868,541.52302 868,536 C868,530.47698 872.478349,526 878.000882,526 C883.523415,526 888,530.47698 888,536" id="Fill-52" fill="#FFFFFF"></path>
            <path d="M995,499 C995,504.52302 990.523415,509 985.000882,509 C979.478349,509 975,504.52302 975,499 C975,493.47698 979.478349,489 985.000882,489 C990.523415,489 995,493.47698 995,499" id="Fill-53" fill="#FFFFFF"></path>
            <path d="M435,159 C435,164.52302 430.523415,169 425.000882,169 C419.478349,169 415,164.52302 415,159 C415,153.47698 419.478349,149 425.000882,149 C430.523415,149 435,153.47698 435,159" id="Fill-54" fill="#FFFFFF"></path>
            <path d="M448,178 C448,183.52302 443.523415,188 438.000882,188 C432.478349,188 428,183.52302 428,178 C428,172.47698 432.478349,168 438.000882,168 C443.523415,168 448,172.47698 448,178" id="Fill-55" fill="#FFFFFF"></path>
            <path d="M505,150 C505,155.52302 500.523415,160 495.000882,160 C489.478349,160 485,155.52302 485,150 C485,144.47698 489.478349,140 495.000882,140 C500.523415,140 505,144.47698 505,150" id="Fill-56" fill="#FFFFFF"></path>
            <path d="M839,269 C839,274.52302 834.523415,279 829.000882,279 C823.478349,279 819,274.52302 819,269 C819,263.47698 823.478349,259 829.000882,259 C834.523415,259 839,263.47698 839,269" id="Fill-57" fill="#FFFFFF"></path>
            <path d="M486,134 C486,139.52302 481.523415,144 476.000882,144 C470.478349,144 466,139.52302 466,134 C466,128.47698 470.478349,124 476.000882,124 C481.523415,124 486,128.47698 486,134" id="Fill-58" fill="#FFFFFF"></path>
            <path d="M551,250 C551,255.52302 546.523415,260 541.000882,260 C535.478349,260 531,255.52302 531,250 C531,244.47698 535.478349,240 541.000882,240 C546.523415,240 551,244.47698 551,250" id="Fill-59" fill="#FFFFFF"></path>
            <path d="M492,175 C492,180.52302 487.523415,185 482.000882,185 C476.478349,185 472,180.52302 472,175 C472,169.47698 476.478349,165 482.000882,165 C487.523415,165 492,169.47698 492,175" id="Fill-60" fill="#FFFFFF"></path>
            <path d="M594,287 C594,292.52302 589.523415,297 584.000882,297 C578.478349,297 574,292.52302 574,287 C574,281.47698 578.478349,277 584.000882,277 C589.523415,277 594,281.47698 594,287" id="Fill-61" fill="#FFFFFF"></path>
            <path d="M132,215 C132,220.52302 127.523415,225 122.000882,225 C116.478349,225 112,220.52302 112,215 C112,209.47698 116.478349,205 122.000882,205 C127.523415,205 132,209.47698 132,215" id="Fill-62" fill="#FFFFFF"></path>
            <path d="M258,192 C258,197.52302 253.523415,202 248.000882,202 C242.478349,202 238,197.52302 238,192 C238,186.47698 242.478349,182 248.000882,182 C253.523415,182 258,186.47698 258,192" id="Fill-63" fill="#FFFFFF"></path>
            <path d="M675,310 C675,315.52302 670.523415,320 665.000882,320 C659.478349,320 655,315.52302 655,310 C655,304.47698 659.478349,300 665.000882,300 C670.523415,300 675,304.47698 675,310" id="Fill-64" fill="#FFFFFF"></path>
        </g>
    </g>
</svg>