<svg xmlns="http://www.w3.org/2000/svg" xmlns:xlink="http://www.w3.org/1999/xlink" width="1000" height="1000" viewBox="0 0 1000 1000">
  <defs>
    <style>
      .a, .c {
        fill: none;
      }

      .b {
        clip-path: url(#a);
      }

      .c {
        stroke: #868e96;
        stroke-miterlimit: 10;
      }
    </style>
    <clipPath id="a">
      <rect class="a" width="1000" height="1000"/>
    </clipPath>
  </defs>
  <title>Artboard 1</title>
  <g class="b">
    <g>
      <polyline class="c" points="297.037 484.016 291.564 538.501 304.278 511.796"/>
      <polyline class="c" points="317.203 430.584 336.554 442.033 297.037 484.016 317.203 430.584"/>
      <polyline class="c" points="297.037 484.016 308.588 482.867 304.278 511.796"/>
      <polyline class="c" points="336.554 442.033 308.588 482.867 297.037 484.016"/>
      <polyline class="c" points="648.067 288.678 676.922 317.867 639.277 362.04"/>
      <polyline class="c" points="707.675 226.04 648.067 288.678 626.552 262.286"/>
      <polyline class="c" points="707.675 226.04 648.067 288.678 676.922 317.867"/>
      <polyline class="c" points="588.685 323.766 504.827 361.342 544.797 391.824"/>
      <polyline class="c" points="491.411 254.505 598.928 257.508 588.685 323.766 491.411 254.505"/>
      <polyline class="c" points="588.685 323.766 544.797 391.824 586.944 431.658"/>
      <polyline class="c" points="639.277 362.04 586.944 431.658 588.685 323.766"/>
      <path class="c" d="M588.685,323.766c1.756,1.545,50.592,38.274,50.592,38.274l8.791-73.362"/>
      <polyline class="c" points="626.552 262.286 588.685 323.766 648.067 288.678"/>
      <polyline class="c" points="598.928 257.508 588.685 323.766 626.552 262.286"/>
      <polyline class="c" points="399.56 259.827 410.705 357.759 491.411 254.505"/>
      <polyline class="c" points="491.411 254.505 456.387 358.325 410.705 357.759"/>
      <polyline class="c" points="364.856 381.176 369.806 402.491 401.933 376.034"/>
      <polyline class="c" points="328.938 395.357 369.806 402.491 364.856 381.176"/>
      <polyline class="c" points="330.245 349.355 364.856 381.176 410.705 357.759"/>
      <polyline class="c" points="330.245 349.355 319.325 379.441 364.856 381.176"/>
      <polyline class="c" points="364.856 381.176 401.933 376.034 410.705 357.759"/>
      <polyline class="c" points="319.325 379.441 328.938 395.357 364.856 381.176"/>
      <polyline class="c" points="336.554 442.033 308.588 482.867 374.715 488.179"/>
      <polyline class="c" points="369.806 402.491 336.554 442.033 394.443 468.546 369.806 402.491"/>
      <polyline class="c" points="394.443 468.546 438.712 447.853 413.971 513.9"/>
      <polyline class="c" points="394.443 468.546 393.589 415.087 369.806 402.491"/>
      <polyline class="c" points="393.589 415.087 394.443 468.546 438.712 447.853"/>
      <polyline class="c" points="336.554 442.033 374.715 488.179 394.443 468.546"/>
      <polyline class="c" points="374.715 488.179 413.971 513.9 394.443 468.546"/>
      <path class="c" d="M335.326,573.65c.421,0,38.445,5.631,38.445,5.631l-22.548,12.806"/>
      <path class="c" d="M351.224,592.087s21.436,14.41,21.12,14.41-35.479-6.775-35.479-6.775"/>
      <polyline class="c" points="335.326 573.65 336.865 599.722 351.224 592.087"/>
      <polyline class="c" points="739.894 461.887 737.526 515.508 714.509 492.672"/>
      <polyline class="c" points="764.664 501.727 737.526 515.508 771.501 516.643"/>
      <polyline class="c" points="739.894 461.887 737.526 515.508 764.664 501.727"/>
      <polyline class="c" points="714.509 492.672 698.516 516.56 737.526 515.508"/>
      <polyline class="c" points="698.516 516.56 720.55 541.805 737.526 515.508"/>
      <polyline class="c" points="698.516 516.56 697.018 546.638 720.55 541.805"/>
      <polyline class="c" points="578.84 599.663 603.526 615.9 648.123 584.173 663.708 591.974 643.913 618.527"/>
      <polyline class="c" points="663.708 591.974 660.274 638.154 643.913 618.527"/>
      <polyline class="c" points="267.788 948.425 270.832 1107.405 307.207 996.215"/>
      <polyline class="c" points="307.207 996.215 270.832 1107.405 331.463 1109.388 307.207 996.215"/>
      <polyline class="c" points="69.15 886.834 75.366 1097.324 270.832 1107.405"/>
      <polyline class="c" points="69.15 886.834 159.313 828.886 270.832 1107.405"/>
      <polyline class="c" points="159.313 828.886 267.788 948.425 270.832 1107.405"/>
      <polyline class="c" points="682.492 855.184 598.09 917.058 598.963 882.971"/>
      <polyline class="c" points="598.09 917.058 682.492 855.184 672.819 1070.367"/>
      <polyline class="c" points="487.473 943.605 402.527 952.783 452.404 901.163"/>
      <polyline class="c" points="452.404 901.163 565.253 883.091 487.473 943.605"/>
      <path class="c" d="M282.209,803.225l41.4,35.1s-21.264,29.3-21.264,29.934"/>
      <path class="c" d="M323.608,838.327c.843-.211,67.317,56.011,67.317,56.011L302.345,868.26"/>
      <polyline class="c" points="302.345 868.26 363.853 923.069 390.925 894.338"/>
      <polyline class="c" points="302.345 868.26 311.533 938.906 363.853 923.069"/>
      <polyline class="c" points="847.062 987.613 672.819 1070.367 718.021 1150.605"/>
      <polyline class="c" points="682.492 855.184 672.819 1070.367 744.925 834.882"/>
      <polyline class="c" points="402.527 952.783 379.964 1022.49 487.473 943.605"/>
      <polyline class="c" points="363.853 923.069 402.527 952.783 372.82 973.681 363.853 923.069"/>
      <polyline class="c" points="311.533 938.906 372.82 973.681 307.207 996.215"/>
      <polyline class="c" points="390.925 894.338 402.527 952.783 452.404 901.163"/>
      <polyline class="c" points="302.345 868.26 267.788 948.425 311.533 938.906"/>
      <polyline class="c" points="232.784 812.414 242.781 841.208 159.313 828.886 232.784 812.414"/>
      <polyline class="c" points="682.492 855.184 744.925 834.882 730.022 810.127"/>
      <polyline class="c" points="803.439 734.877 821.141 755.371 797.623 773.895"/>
      <polyline class="c" points="754.517 744.672 721.578 778.021 688.908 724.288"/>
      <polyline class="c" points="716.182 682.931 754.517 744.672 763.013 700.235"/>
      <path class="c" d="M623.938,783.462s17.526,25.973,17.281,25.692,47.69-84.866,47.69-84.866"/>
      <polyline class="c" points="598.161 797.195 641.218 809.154 598.963 882.971 598.161 797.195"/>
      <polyline class="c" points="660.274 638.154 676.788 676.114 660.308 693.169"/>
      <polyline class="c" points="676.788 676.114 674.807 706.586 716.182 682.931"/>
      <polyline class="c" points="731.906 642.727 759.704 675.678 716.182 682.931"/>
      <line class="c" x1="637.394" y1="689.838" x2="562.976" y2="691.873"/>
      <polyline class="c" points="591.008 640.056 597.604 662.908 562.976 691.873"/>
      <polyline class="c" points="597.604 662.908 562.976 691.873 637.394 689.838"/>
      <polyline class="c" points="591.008 640.056 562.976 691.873 532.069 691.09"/>
      <polyline class="c" points="591.008 640.056 624.297 636.799 597.604 662.908 637.394 689.838 624.297 636.799 591.008 640.056 603.526 615.9"/>
      <polyline class="c" points="578.84 599.663 603.526 615.9 648.123 584.173"/>
      <polyline class="c" points="603.526 615.9 591.008 640.056 624.297 636.799"/>
      <polyline class="c" points="760.175 455.196 775.011 453.338 778.278 471.153"/>
      <path class="c" d="M714.509,492.672,698.516,516.56l-6.2-21.791L670.935,543.4l8.4-64.285c.421.843-8.4,64.285-8.4,64.285l27.581-26.843"/>
      <polyline class="c" points="679.337 479.118 692.319 494.769 670.935 543.403"/>
      <polyline class="c" points="369.502 781.204 413.207 844.799 565.253 883.091"/>
      <polyline class="c" points="480.13 571.547 466.995 610.456 578.84 599.663"/>
      <path class="c" d="M376.66,647.52c0,1.159,12.948,59.617,12.948,59.617l70.895-6.391"/>
      <polyline class="c" points="466.995 610.456 460.503 700.745 427.818 611.295"/>
      <polyline class="c" points="429.859 723.093 385.931 730.722 470.337 741.907"/>
      <polyline class="c" points="466.504 541.931 452.834 585.62 389.415 530.763"/>
      <polyline class="c" points="339.636 507.828 332.812 527.609 359.5 515.174"/>
      <polyline class="c" points="438.712 447.853 498.154 442.479 466.504 541.931"/>
      <polyline class="c" points="524.82 424.409 586.944 431.658 553.756 549.754"/>
      <polyline class="c" points="401.933 376.034 369.806 402.491 393.589 415.087"/>
      <polyline class="c" points="676.922 317.867 780.877 339.134 702.15 453.438"/>
      <polyline class="c" points="553.402 169.586 486.293 210.706 574.752 216.356"/>
      <polyline class="c" points="543.158 138.889 553.402 169.586 608.141 148.349 543.158 138.889"/>
      <polyline class="c" points="608.141 148.349 635.373 192.011 682.319 170.845 608.141 148.349"/>
      <polyline class="c" points="682.319 170.845 707.675 226.04 733.387 223.005 682.319 170.845"/>
      <polyline class="c" points="635.373 192.011 707.675 226.04 606.657 232.086 635.373 192.011"/>
      <polyline class="c" points="635.373 192.011 574.752 216.356 553.402 169.586"/>
      <polyline class="c" points="543.158 138.889 483.965 146.944 553.402 169.586"/>
      <polyline class="c" points="553.402 169.586 486.293 210.706 483.965 146.944"/>
      <polyline class="c" points="483.965 146.944 425.708 170.593 486.293 210.706"/>
      <polyline class="c" points="486.293 210.706 574.752 216.356 491.411 254.505 486.293 210.706"/>
      <polyline class="c" points="574.752 216.356 598.928 257.508 606.657 232.086 574.752 216.356"/>
      <polyline class="c" points="491.411 254.505 504.827 361.342 588.685 323.766"/>
      <polyline class="c" points="425.708 170.593 441.768 212.181 486.293 210.706"/>
      <polyline class="c" points="441.768 212.181 491.411 254.505 399.56 259.827 441.768 212.181"/>
      <polyline class="c" points="425.708 170.593 375.542 202.367 441.768 212.181"/>
      <polyline class="c" points="375.542 202.367 374.874 223.113 441.768 212.181"/>
      <polyline class="c" points="399.56 259.827 331.287 286.538 374.874 223.113"/>
      <polyline class="c" points="399.56 259.827 330.245 349.355 410.705 357.759 399.56 259.827"/>
      <polyline class="c" points="331.287 286.538 330.245 349.355 300.597 367.176 331.287 286.538"/>
      <polyline class="c" points="300.597 367.176 319.325 379.441 305.841 391.906 300.597 367.176"/>
      <polyline class="c" points="300.597 367.176 289.246 382.897 305.841 391.906"/>
      <polyline class="c" points="319.325 379.441 328.938 395.357 305.841 391.906"/>
      <polyline class="c" points="305.841 391.906 307.018 406.71 328.938 395.357"/>
      <polyline class="c" points="328.938 395.357 346.678 412.594 369.806 402.491"/>
      <polyline class="c" points="328.938 395.357 326.792 417.991 346.678 412.594"/>
      <polyline class="c" points="307.018 406.71 326.792 417.991 317.203 430.584 307.018 406.71"/>
      <polyline class="c" points="346.678 412.594 336.554 442.033 326.792 417.991"/>
      <polyline class="c" points="308.588 482.867 339.636 507.828 304.278 511.796"/>
      <polyline class="c" points="410.705 357.759 433.955 386.228 401.933 376.034"/>
      <polyline class="c" points="401.933 376.034 393.589 415.087 433.955 386.228"/>
      <polyline class="c" points="393.589 415.087 433.81 415.02 433.955 386.228"/>
      <polyline class="c" points="393.589 415.087 438.712 447.853 433.81 415.02"/>
      <polyline class="c" points="463.172 420.642 438.712 447.853 498.154 442.479"/>
      <polyline class="c" points="452.214 399.545 433.81 415.02 463.172 420.642"/>
      <polyline class="c" points="456.387 358.325 433.955 386.228 484.635 379.502"/>
      <polyline class="c" points="433.955 386.228 452.214 399.545 484.635 379.502"/>
      <polyline class="c" points="452.214 399.545 463.172 420.642 485.901 407.531"/>
      <polyline class="c" points="452.214 399.545 485.901 407.531 498.74 398.951"/>
      <polyline class="c" points="452.214 399.545 498.74 398.951 484.635 379.502"/>
      <polyline class="c" points="456.387 358.325 484.635 379.502 504.827 361.342"/>
      <polyline class="c" points="511.561 386.363 498.74 398.951 524.82 424.409"/>
      <polyline class="c" points="485.901 407.531 524.82 424.409 463.172 420.642"/>
      <polyline class="c" points="463.172 420.642 498.154 442.479 524.82 424.409"/>
      <path class="c" d="M544.8,391.824s-20.4,31.883-19.977,32.586,62.125,7.249,62.125,7.249"/>
      <polyline class="c" points="438.712 447.853 466.504 541.931 413.971 513.9"/>
      <polyline class="c" points="498.154 442.479 466.504 541.931 553.756 549.754"/>
      <polyline class="c" points="498.154 442.479 553.756 549.754 524.82 424.409"/>
      <polyline class="c" points="586.944 431.658 553.756 549.754 628.693 450.145"/>
      <polyline class="c" points="586.944 431.658 628.693 450.145 639.277 362.04"/>
      <polyline class="c" points="606.657 232.086 626.552 262.286 707.675 226.04"/>
      <polyline class="c" points="733.387 223.005 762.135 273.174 676.922 317.867"/>
      <polyline class="c" points="762.135 273.174 780.877 339.134 676.922 317.867"/>
      <polyline class="c" points="639.277 362.04 676.922 317.867 702.15 453.438"/>
      <path class="c" d="M639.277,362.04c1.4-.211,62.873,91.4,62.873,91.4l-73.457-3.294"/>
      <polyline class="c" points="780.877 339.134 702.15 453.438 746.558 433.081"/>
      <polyline class="c" points="780.877 339.134 746.558 433.081 785.667 425.372 780.877 339.134"/>
      <polyline class="c" points="746.558 433.081 775.011 453.338 785.667 425.372"/>
      <polyline class="c" points="785.667 425.372 786.791 454.055 775.011 453.338"/>
      <polyline class="c" points="746.558 433.081 760.175 455.196 775.011 453.338"/>
      <polyline class="c" points="775.011 453.338 778.278 471.153 786.791 454.055"/>
      <polyline class="c" points="778.278 471.153 760.175 455.196 764.664 501.727"/>
      <polyline class="c" points="778.278 471.153 764.664 501.727 771.501 516.643 778.278 471.153"/>
      <polyline class="c" points="760.175 455.196 739.894 461.887 764.664 501.727"/>
      <polyline class="c" points="702.15 453.438 739.894 461.887 714.509 492.672"/>
      <polyline class="c" points="702.15 453.438 714.509 492.672 692.319 494.769"/>
      <polyline class="c" points="702.15 453.438 692.319 494.769 679.337 479.118"/>
      <polyline class="c" points="702.15 453.438 679.337 479.118 628.693 450.145"/>
      <polyline class="c" points="628.693 450.145 670.935 543.403 679.337 479.118"/>
      <polyline class="c" points="698.516 516.56 670.935 543.403 697.018 546.638"/>
      <polyline class="c" points="771.501 516.643 741.712 559.809 737.526 515.508"/>
      <polyline class="c" points="720.55 541.805 741.712 559.809 698.923 589.827"/>
      <polyline class="c" points="741.712 559.809 713.227 595.002 698.923 589.827"/>
      <path class="c" d="M720.55,541.805c-.7,1.194-21.628,48.022-21.628,48.022l-1.9-43.189"/>
      <polyline class="c" points="670.935 543.403 698.923 589.827 648.123 584.173"/>
      <polyline class="c" points="670.935 543.403 648.123 584.173 553.756 549.754 670.935 543.403"/>
      <path class="c" d="M698.923,589.827s-9.947,51.185-8.894,51.4S713.227,595,713.227,595"/>
      <polyline class="c" points="698.923 589.827 660.274 638.154 690.029 641.223"/>
      <polyline class="c" points="648.123 584.173 603.526 615.9 643.913 618.527"/>
      <polyline class="c" points="553.756 549.754 578.84 599.663 648.123 584.173"/>
      <polyline class="c" points="553.756 549.754 480.13 571.547 578.84 599.663"/>
      <polyline class="c" points="466.504 541.931 480.13 571.547 452.834 585.62"/>
      <polyline class="c" points="466.504 541.931 389.415 530.763 413.971 513.9"/>
      <line class="c" x1="389.415" y1="530.763" x2="359.5" y2="515.174"/>
      <polyline class="c" points="359.5 515.174 332.812 527.609 354.369 552.468"/>
      <polyline class="c" points="359.5 515.174 354.369 552.468 389.415 530.763"/>
      <polyline class="c" points="389.415 530.763 373.772 579.281 354.369 552.468"/>
      <polyline class="c" points="339.636 507.828 332.812 527.609 304.278 511.796"/>
      <polyline class="c" points="332.812 527.609 319.299 550.73 354.369 552.468"/>
      <polyline class="c" points="304.278 511.796 319.299 550.73 291.564 538.501"/>
      <polyline class="c" points="291.564 538.501 309.139 620.627 319.299 550.73"/>
      <path class="c" d="M319.3,550.73s15.185,22.92,16.028,22.92,19.042-21.181,19.042-21.181"/>
      <polyline class="c" points="336.865 599.722 309.139 620.627 335.326 573.65"/>
      <path class="c" d="M373.772,579.281c.738-.105,79.062,6.339,79.062,6.339l-101.61,6.467"/>
      <polyline class="c" points="351.224 592.087 372.344 606.497 452.834 585.62"/>
      <path class="c" d="M336.865,599.722c.492,0,35.479,6.775,35.479,6.775l-63.205,14.13"/>
      <polyline class="c" points="309.139 620.627 322.074 652.813 372.344 606.497"/>
      <polyline class="c" points="372.344 606.497 376.66 647.52 322.074 652.813"/>
      <polyline class="c" points="452.834 585.62 427.818 611.295 466.995 610.456"/>
      <polyline class="c" points="452.834 585.62 466.995 610.456 480.13 571.547"/>
      <polyline class="c" points="578.84 599.663 466.995 610.456 532.069 691.09 578.84 599.663"/>
      <polyline class="c" points="427.818 611.295 376.66 647.52 460.503 700.745"/>
      <polyline class="c" points="322.074 652.813 322.542 676.714 376.66 647.52"/>
      <polyline class="c" points="389.608 707.136 322.542 676.714 328.948 717.586"/>
      <polyline class="c" points="328.948 717.586 389.608 707.136 385.931 730.722"/>
      <polyline class="c" points="328.948 717.586 385.931 730.722 369.502 781.204"/>
      <polyline class="c" points="369.502 781.204 328.948 717.586 267.006 758.722"/>
      <polyline class="c" points="282.209 803.225 267.006 758.722 369.502 781.204"/>
      <polyline class="c" points="328.948 717.586 224.831 737.494 267.006 758.722"/>
      <polyline class="c" points="224.831 737.494 240.001 791.711 267.006 758.722"/>
      <polyline class="c" points="224.831 737.494 196.101 744.307 240.001 791.711"/>
      <polyline class="c" points="240.001 791.711 232.784 812.414 257.003 813.105"/>
      <polyline class="c" points="240.001 791.711 257.003 813.105 282.209 803.225 240.001 791.711"/>
      <polyline class="c" points="282.209 803.225 369.502 781.204 323.608 838.327"/>
      <polyline class="c" points="282.209 803.225 302.345 868.26 257.003 813.105"/>
      <polyline class="c" points="232.784 812.414 242.781 841.208 257.003 813.105"/>
      <polyline class="c" points="242.781 841.208 302.345 868.26 267.788 948.425 242.781 841.208"/>
      <polyline class="c" points="267.788 948.425 311.533 938.906 307.207 996.215 267.788 948.425"/>
      <polyline class="c" points="311.533 938.906 363.853 923.069 372.82 973.681"/>
      <polyline class="c" points="363.853 923.069 402.527 952.783 379.964 1022.49"/>
      <polyline class="c" points="372.82 973.681 379.964 1022.49 307.207 996.215"/>
      <polyline class="c" points="472.304 1123.663 379.964 1022.49 487.473 943.605"/>
      <polyline class="c" points="487.473 943.605 472.304 1123.663 598.09 917.058"/>
      <polyline class="c" points="598.09 917.058 487.473 943.605 565.253 883.091"/>
      <polyline class="c" points="402.527 952.783 390.925 894.338 363.853 923.069"/>
      <polyline class="c" points="369.502 781.204 565.253 883.091 470.337 741.907"/>
      <polyline class="c" points="385.931 730.722 470.337 741.907 369.502 781.204"/>
      <polyline class="c" points="389.608 707.136 429.859 723.093 385.931 730.722"/>
      <polyline class="c" points="460.503 700.745 429.859 723.093 470.337 741.907"/>
      <polyline class="c" points="532.069 691.09 460.503 700.745 470.337 741.907"/>
      <polyline class="c" points="470.337 741.907 532.069 691.09 565.253 883.091"/>
      <polyline class="c" points="578.84 599.663 603.526 615.9 591.008 640.056"/>
      <polyline class="c" points="578.84 599.663 591.008 640.056 572.895 632.384 578.84 599.663"/>
      <polyline class="c" points="572.895 632.384 532.069 691.09 591.008 640.056"/>
      <polyline class="c" points="603.526 615.9 624.297 636.799 643.913 618.527"/>
      <path class="c" d="M660.274,638.154,624.3,636.8s12.676,53.039,13.1,53.039,22.88-51.684,22.88-51.684"/>
      <polyline class="c" points="637.394 689.838 660.308 693.169 660.274 638.154"/>
      <polyline class="c" points="660.274 638.154 676.788 676.114 690.029 641.223"/>
      <polyline class="c" points="676.788 676.114 660.308 693.169 674.807 706.586"/>
      <polyline class="c" points="660.308 693.169 647.253 720.585 674.807 706.586"/>
      <polyline class="c" points="676.788 676.114 716.182 682.931 690.029 641.223"/>
      <polyline class="c" points="690.029 641.223 731.906 642.727 727.2 656.279"/>
      <path class="c" d="M690.029,641.223c1.264-.281,37.171,15.056,37.171,15.056l-11.018,26.652"/>
      <polyline class="c" points="759.704 675.678 763.013 700.235 716.182 682.931"/>
      <polyline class="c" points="759.704 675.678 793.746 694.469 763.013 700.235"/>
      <polyline class="c" points="793.746 694.469 816.083 719.968 763.013 700.235"/>
      <path class="c" d="M816.083,719.968c-.843.632-12.644,14.91-12.644,14.91l-40.426-34.643"/>
      <polyline class="c" points="754.517 744.672 803.439 734.877 797.623 773.895"/>
      <polyline class="c" points="754.517 744.672 797.623 773.895 730.022 810.127"/>
      <polyline class="c" points="721.578 778.021 730.022 810.127 675.26 825.072"/>
      <polyline class="c" points="754.517 744.672 688.908 724.288 716.182 682.931"/>
      <polyline class="c" points="721.578 778.021 675.26 825.072 641.218 809.154"/>
      <polyline class="c" points="721.578 778.021 641.218 809.154 688.908 724.288"/>
      <polyline class="c" points="674.807 706.586 688.908 724.288 647.253 720.585"/>
      <polyline class="c" points="688.908 724.288 623.938 783.462 647.253 720.585"/>
      <polyline class="c" points="598.161 797.195 623.938 783.462 641.218 809.154"/>
      <polyline class="c" points="598.161 797.195 565.253 883.091 598.963 882.971"/>
      <polyline class="c" points="641.218 809.154 682.492 855.184 598.963 882.971"/>
      <polyline class="c" points="675.26 825.072 682.492 855.184 730.022 810.127"/>
      <polyline class="c" points="744.925 834.882 797.623 773.895 970.291 834.462"/>
      <polyline class="c" points="472.304 1123.663 672.819 1070.367 598.09 917.058"/>
      <polyline class="c" points="565.253 883.091 598.09 917.058 598.963 882.971"/>
      <polyline class="c" points="672.819 1070.367 744.925 834.882 847.062 987.613"/>
      <polyline class="c" points="744.925 834.882 970.291 834.462 847.062 987.613"/>
      <polyline class="c" points="847.062 987.613 988.699 1093.8 970.291 834.462"/>
      <polyline class="c" points="988.699 1093.8 1045.644 961.733 970.291 834.462"/>
      <polyline class="c" points="970.291 834.462 1071.588 919.841 1045.644 961.733"/>
      <polyline class="c" points="970.291 834.462 1078.835 888.45 1071.588 919.841"/>
      <polyline class="c" points="413.207 844.799 390.925 894.338 452.404 901.163"/>
      <polyline class="c" points="257.003 813.105 242.781 841.208 302.345 868.26"/>
      <polyline class="c" points="267.006 758.722 240.001 791.711 282.209 803.225"/>
      <polyline class="c" points="641.218 809.154 675.26 825.072 682.492 855.184"/>
      <polyline class="c" points="797.623 773.895 744.925 834.882 730.022 810.127"/>
      <polyline class="c" points="674.807 706.586 716.182 682.931 688.908 724.288"/>
      <path class="c" d="M763.013,700.235c.421,1.44-8.777,43.875-8.5,44.437s48.922-9.795,48.922-9.795"/>
      <path class="c" d="M637.394,689.838c.632,0,22.914,3.331,22.914,3.331l-13.055,27.416"/>
      <polyline class="c" points="663.708 591.974 698.923 589.827 660.274 638.154"/>
      <polyline class="c" points="643.913 618.527 624.297 636.799 660.274 638.154"/>
      <polyline class="c" points="578.84 599.663 572.895 632.384 532.069 691.09"/>
      <polyline class="c" points="466.995 610.456 460.503 700.745 532.069 691.09"/>
      <polyline class="c" points="389.608 707.136 429.859 723.093 460.503 700.745"/>
      <polyline class="c" points="376.66 647.52 322.542 676.714 389.608 707.136"/>
      <polyline class="c" points="466.504 541.931 480.13 571.547 553.756 549.754"/>
      <polyline class="c" points="389.415 530.763 373.772 579.281 452.834 585.62"/>
      <polyline class="c" points="330.245 349.355 300.597 367.176 319.325 379.441"/>
      <polyline class="c" points="328.938 395.357 307.018 406.71 326.792 417.991"/>
      <polyline class="c" points="326.792 417.991 317.203 430.584 336.554 442.033"/>
      <polyline class="c" points="304.278 511.796 319.299 550.73 332.812 527.609"/>
      <polyline class="c" points="354.369 552.468 335.326 573.65 373.772 579.281"/>
      <polyline class="c" points="319.299 550.73 309.139 620.627 335.326 573.65"/>
      <polyline class="c" points="628.693 450.145 553.756 549.754 670.935 543.403"/>
      <polyline class="c" points="670.935 543.403 697.018 546.638 698.923 589.827"/>
      <polyline class="c" points="737.526 515.508 720.55 541.805 741.712 559.809"/>
      <polyline class="c" points="746.558 433.081 702.15 453.438 739.894 461.887"/>
      <polyline class="c" points="746.558 433.081 760.175 455.196 739.894 461.887"/>
      <polyline class="c" points="511.561 386.363 524.82 424.409 544.797 391.824"/>
      <polyline class="c" points="433.81 415.02 438.712 447.853 463.172 420.642"/>
      <polyline class="c" points="410.705 357.759 433.955 386.228 456.387 358.325"/>
      <polyline class="c" points="433.955 386.228 433.81 415.02 452.214 399.545"/>
      <polyline class="c" points="399.56 259.827 331.287 286.538 330.245 349.355"/>
      <polyline class="c" points="374.874 223.113 399.56 259.827 441.768 212.181"/>
      <polyline class="c" points="441.768 212.181 491.411 254.505 486.293 210.706"/>
      <path class="c" d="M574.752,216.356c-.562-.421-83.341,38.149-83.341,38.149l107.517,3"/>
      <polyline class="c" points="574.752 216.356 606.657 232.086 635.373 192.011"/>
      <polyline class="c" points="682.319 170.845 635.373 192.011 707.675 226.04"/>
      <polyline class="c" points="608.141 148.349 553.402 169.586 635.373 192.011"/>
      <polyline class="c" points="754.517 744.672 730.022 810.127 721.578 778.021"/>
      <polyline class="c" points="562.976 691.873 598.161 797.195 623.938 783.462 562.976 691.873"/>
      <polyline class="c" points="532.069 691.09 598.161 797.195 565.253 883.091"/>
      <polyline class="c" points="379.964 1022.49 331.463 1109.388 307.207 996.215"/>
      <polyline class="c" points="369.502 781.204 413.207 844.799 323.608 838.327"/>
      <polyline class="c" points="565.253 883.091 413.207 844.799 452.404 901.163"/>
      <polyline class="c" points="374.715 488.179 359.5 515.174 339.636 507.828"/>
      <polyline class="c" points="491.411 254.505 456.387 358.325 504.827 361.342"/>
      <polyline class="c" points="504.827 361.342 511.561 386.363 484.635 379.502"/>
      <polyline class="c" points="504.827 361.342 511.561 386.363 544.797 391.824"/>
      <polyline class="c" points="707.675 226.04 676.922 317.867 733.387 223.005"/>
      <path class="c" d="M606.657,232.086c.158.211,19.9,30.2,19.9,30.2l-27.624-4.778"/>
      <polyline class="c" points="731.906 642.727 727.2 656.279 759.704 675.678"/>
      <polyline class="c" points="323.608 838.327 413.207 844.799 390.925 894.338"/>
      <polyline class="c" points="159.313 828.886 267.788 948.425 242.781 841.208"/>
      <polyline class="c" points="532.069 691.09 562.976 691.873 598.161 797.195"/>
      <polyline class="c" points="562.976 691.873 623.938 783.462 647.253 720.585"/>
      <polyline class="c" points="591.008 640.056 597.604 662.908 624.297 636.799"/>
      <polyline class="c" points="648.123 584.173 663.708 591.974 698.923 589.827"/>
      <polyline class="c" points="372.344 606.497 427.818 611.295 452.834 585.62"/>
      <polyline class="c" points="372.344 606.497 376.66 647.52 427.818 611.295"/>
      <polyline class="c" points="484.635 379.502 498.74 398.951 511.561 386.363"/>
      <polyline class="c" points="498.74 398.951 485.901 407.531 524.82 424.409"/>
      <polyline class="c" points="346.678 412.594 336.554 442.033 369.806 402.491"/>
      <polyline class="c" points="308.588 482.867 374.715 488.179 339.636 507.828"/>
      <polyline class="c" points="413.971 513.9 359.5 515.174 374.715 488.179"/>
      <polyline class="c" points="359.5 515.174 413.971 513.9 389.415 530.763"/>
      <polyline class="c" points="692.319 494.769 714.509 492.672 698.516 516.56"/>
      <polyline class="c" points="562.976 691.873 637.394 689.838 647.253 720.585"/>
      <polyline class="c" points="69.15 886.834 7.704 965.239 75.366 1097.324"/>
    </g>
  </g>
</svg>
